<svg width="314" height="437" viewBox="0 0 314 437" fill="none" xmlns="http://www.w3.org/2000/svg">
<path d="M17.5 13L16.6604 13.5433L16.6952 13.597L16.7366 13.6459L17.5 13ZM23 19.5L22.2366 20.1459L22.2635 20.1777L22.2929 20.2071L23 19.5ZM64 49.5L63.5343 50.3849L63.5636 50.4004L63.5939 50.4138L64 49.5ZM112 61L111.929 61.9975L111.964 62H112V61ZM313 62C313.552 62 314 61.5523 314 61C314 60.4477 313.552 60 313 60V62ZM74.7488 54.0101L74.3832 54.9409L74.7488 54.0101ZM94.5023 59.2227L94.7192 58.2465L94.5023 59.2227ZM10.8387 3.59677L10.2248 4.38612L10.8387 3.59677ZM34 30.5L33.2929 31.2071L33.3282 31.2424L33.3668 31.274L34 30.5ZM9.17342 2.30155L8.55948 3.0909L9.17342 2.30155ZM2 429.5V8.89605H0V429.5H2ZM2.74237 5.75133L3.49861 4.23885L1.70975 3.34442L0.953514 4.8569L2.74237 5.75133ZM8.55948 3.0909L10.2248 4.38612L11.4526 2.80741L9.78737 1.5122L8.55948 3.0909ZM11.9597 6.27843L16.6604 13.5433L18.3396 12.4567L13.6388 5.19193L11.9597 6.27843ZM16.7366 13.6459L22.2366 20.1459L23.7634 18.8541L18.2634 12.3541L16.7366 13.6459ZM22.2929 20.2071L33.2929 31.2071L34.7071 29.7929L23.7071 18.7929L22.2929 20.2071ZM57.1113 47.0044L63.5343 50.3849L64.4657 48.6151L58.0428 45.2346L57.1113 47.0044ZM63.5939 50.4138C66.3627 51.6444 70.5108 53.4197 74.3832 54.9409L75.1144 53.0793C71.2762 51.5716 67.156 49.8084 64.4061 48.5862L63.5939 50.4138ZM101.503 61.2527L111.929 61.9975L112.071 60.0025L101.645 59.2578L101.503 61.2527ZM112 62H313V60H112V62ZM0 429.5V436.5H2V429.5H0ZM94.2854 60.1989C96.662 60.7271 99.0743 61.0793 101.503 61.2527L101.645 59.2578C99.3148 59.0914 96.9999 58.7534 94.7192 58.2465L94.2854 60.1989ZM74.3832 54.9409C80.7652 57.4479 87.7417 58.7448 94.2854 60.1989L94.7192 58.2465C88.0719 56.7694 81.3096 55.513 75.1144 53.0793L74.3832 54.9409ZM10.2248 4.38612C10.905 4.91521 11.4915 5.55489 11.9597 6.27843L13.6388 5.19193C13.0489 4.2802 12.3098 3.47413 11.4526 2.80741L10.2248 4.38612ZM33.3668 31.274C40.7335 37.3013 48.6884 42.5713 57.1113 47.0044L58.0428 45.2346C49.7388 40.864 41.896 35.6683 34.6332 29.726L33.3668 31.274ZM5.68584 2.48432C6.68604 2.23427 7.74567 2.45794 8.55948 3.0909L9.78737 1.5122C8.48845 0.501932 6.79718 0.144929 5.20076 0.544032L5.68584 2.48432ZM3.49861 4.23885C3.93664 3.36279 4.73561 2.72187 5.68584 2.48432L5.20076 0.544032C3.68412 0.923192 2.40889 1.94615 1.70975 3.34442L3.49861 4.23885ZM2 8.89605C2 7.8044 2.25417 6.72774 2.74237 5.75133L0.953514 4.8569C0.326456 6.11102 0 7.4939 0 8.89605H2Z" fill="url(#paint0_linear_57_4997)"/>
<circle cx="111.5" cy="59.5" r="5.5" fill="#8734BC"/>
<circle cx="111.5" cy="59.5" r="5.5" fill="url(#paint1_linear_57_4997)"/>
<defs>
<linearGradient id="paint0_linear_57_4997" x1="1.00002" y1="-328.801" x2="86.0193" y2="524.73" gradientUnits="userSpaceOnUse">
<stop stop-color="#19CCEF"/>
<stop offset="0.5" stop-color="#7EBBED"/>
<stop offset="1" stop-color="#E3AAEB"/>
</linearGradient>
<linearGradient id="paint1_linear_57_4997" x1="109.173" y1="45.1154" x2="114.25" y2="70.5" gradientUnits="userSpaceOnUse">
<stop stop-color="#19CCEF"/>
<stop offset="0.5" stop-color="#7EBBED"/>
<stop offset="1" stop-color="#E3AAEB"/>
</linearGradient>
</defs>
</svg>
