<svg width="319" height="307" viewBox="0 0 319 307" fill="none" xmlns="http://www.w3.org/2000/svg">
<circle cx="116.5" cy="62.5" r="5.5" fill="#8734BC"/>
<circle cx="116.5" cy="62.5" r="5.5" fill="url(#paint0_linear_57_5013)"/>
<path d="M22.5 13L21.6604 13.5433L21.6952 13.597L21.7366 13.6459L22.5 13ZM28 19.5L27.2366 20.1459L27.2635 20.1777L27.2929 20.2071L28 19.5ZM69 49.5L68.5343 50.3849L68.5636 50.4004L68.5939 50.4138L69 49.5ZM117 61L116.929 61.9975L116.964 62H117V61ZM318.707 61.7071C319.098 61.3166 319.098 60.6834 318.707 60.2929L312.343 53.9289C311.953 53.5384 311.319 53.5384 310.929 53.9289C310.538 54.3195 310.538 54.9526 310.929 55.3431L316.586 61L310.929 66.6569C310.538 67.0474 310.538 67.6805 310.929 68.0711C311.319 68.4616 311.953 68.4616 312.343 68.0711L318.707 61.7071ZM0.666667 301.5C0.666667 304.446 3.05448 306.833 6 306.833C8.94552 306.833 11.3333 304.446 11.3333 301.5C11.3333 298.554 8.94552 296.167 6 296.167C3.05448 296.167 0.666667 298.554 0.666667 301.5ZM79.7488 54.0101L79.3832 54.9409L79.7488 54.0101ZM99.5023 59.2227L99.7192 58.2465L99.5023 59.2227ZM15.8387 3.59677L15.2248 4.38612L15.8387 3.59677ZM39 30.5L38.2929 31.2071L38.3282 31.2424L38.3668 31.274L39 30.5ZM14.1734 2.30155L13.5595 3.0909L14.1734 2.30155ZM7.74237 5.75133L8.49861 4.23885L6.70975 3.34442L5.95351 4.8569L7.74237 5.75133ZM13.5595 3.0909L15.2248 4.38612L16.4526 2.80741L14.7874 1.5122L13.5595 3.0909ZM16.9597 6.27843L21.6604 13.5433L23.3396 12.4567L18.6388 5.19193L16.9597 6.27843ZM21.7366 13.6459L27.2366 20.1459L28.7634 18.8541L23.2634 12.3541L21.7366 13.6459ZM27.2929 20.2071L38.2929 31.2071L39.7071 29.7929L28.7071 18.7929L27.2929 20.2071ZM62.1113 47.0044L68.5343 50.3849L69.4657 48.6151L63.0428 45.2346L62.1113 47.0044ZM68.5939 50.4138C71.3627 51.6444 75.5108 53.4197 79.3832 54.9409L80.1144 53.0793C76.2762 51.5716 72.156 49.8084 69.4061 48.5862L68.5939 50.4138ZM106.503 61.2527L116.929 61.9975L117.071 60.0025L106.645 59.2578L106.503 61.2527ZM117 62H318V60H117V62ZM5 8.89606V301.5H7V8.89606H5ZM99.2854 60.1989C101.662 60.7271 104.074 61.0793 106.503 61.2527L106.645 59.2578C104.315 59.0914 102 58.7534 99.7192 58.2465L99.2854 60.1989ZM79.3832 54.9409C85.7652 57.4479 92.7417 58.7448 99.2854 60.1989L99.7192 58.2465C93.0719 56.7694 86.3096 55.513 80.1144 53.0793L79.3832 54.9409ZM15.2248 4.38612C15.905 4.91521 16.4915 5.55489 16.9597 6.27843L18.6388 5.19193C18.0489 4.2802 17.3098 3.47413 16.4526 2.80741L15.2248 4.38612ZM38.3668 31.274C45.7335 37.3013 53.6884 42.5713 62.1113 47.0044L63.0428 45.2346C54.7388 40.864 46.896 35.6683 39.6332 29.726L38.3668 31.274ZM10.6858 2.48432C11.686 2.23427 12.7457 2.45794 13.5595 3.0909L14.7874 1.5122C13.4884 0.501932 11.7972 0.144929 10.2008 0.544032L10.6858 2.48432ZM8.49861 4.23885C8.93664 3.36279 9.73561 2.72187 10.6858 2.48432L10.2008 0.544032C8.68412 0.923192 7.40889 1.94615 6.70975 3.34442L8.49861 4.23885ZM5.95351 4.8569C5.32646 6.11102 5 7.49391 5 8.89606H7C7 7.8044 7.25417 6.72774 7.74237 5.75133L5.95351 4.8569Z" fill="url(#paint1_linear_57_5013)"/>
<defs>
<linearGradient id="paint0_linear_57_5013" x1="114.173" y1="48.1154" x2="119.25" y2="73.5" gradientUnits="userSpaceOnUse">
<stop stop-color="#19CCEF"/>
<stop offset="0.5" stop-color="#7EBBED"/>
<stop offset="1" stop-color="#E3AAEB"/>
</linearGradient>
<linearGradient id="paint1_linear_57_5013" x1="6.00002" y1="-226.566" x2="46.6884" y2="365.427" gradientUnits="userSpaceOnUse">
<stop stop-color="#19CCEF"/>
<stop offset="0.5" stop-color="#7EBBED"/>
<stop offset="1" stop-color="#E3AAEB"/>
</linearGradient>
</defs>
</svg>
