<svg width="360" height="840" viewBox="0 0 360 840" fill="none" xmlns="http://www.w3.org/2000/svg">
<g clip-path="url(#clip0_53_1025)">
<rect width="360" height="840" fill="white"/>
<g filter="url(#filter0_f_53_1025)">
<ellipse cx="35.5" cy="529.5" rx="160.5" ry="123.5" fill="#19CCEF"/>
</g>
<g filter="url(#filter1_f_53_1025)">
<circle cx="427.5" cy="116.5" r="170.5" fill="#A73DD5"/>
</g>
<g filter="url(#filter2_f_53_1025)">
<ellipse cx="331.5" cy="486" rx="122.5" ry="111" fill="#FCB0E7"/>
</g>
<g filter="url(#filter3_f_53_1025)">
<ellipse cx="257" cy="772" rx="179" ry="140" fill="#9180F7"/>
</g>
<g opacity="0.4">
<path opacity="0.010101" d="M-332.66 857.509L-287.943 866.707C-243.226 875.905 -153.793 894.302 -60.3598 869.4C33.0735 844.499 130.507 776.3 220.829 785.074C311.151 793.849 394.362 879.597 485.573 878.75C576.784 877.903 675.995 790.461 725.601 746.739L775.207 703.018" stroke="url(#paint0_linear_53_1025)" stroke-width="4.91243"/>
<path opacity="0.020202" d="M-327.157 842.702L-283.016 852.574C-238.876 862.446 -150.596 882.191 -57.5915 859.115C35.4126 836.039 133.14 770.142 222.471 780.371C311.801 790.6 392.734 876.955 483.113 877.668C573.493 878.381 673.32 793.453 723.234 750.989L773.148 708.524" stroke="url(#paint1_linear_53_1025)" stroke-width="4.86736"/>
<path opacity="0.030303" d="M-321.464 828.051L-277.91 838.58C-234.357 849.11 -147.249 870.168 -54.7104 848.895C37.8285 827.621 135.799 764.015 224.113 775.666C312.428 787.318 391.085 874.227 480.607 876.471C570.128 878.716 670.513 796.295 720.705 755.085L770.897 713.874" stroke="url(#paint2_linear_53_1025)" stroke-width="4.8223"/>
<path opacity="0.040404" d="M-315.586 813.562L-272.629 824.731C-229.672 835.9 -143.758 858.238 -51.7194 838.743C40.3189 819.248 138.481 757.92 225.756 770.962C313.031 784.004 389.419 871.416 478.055 875.162C566.691 878.908 667.575 798.987 718.018 759.027L768.46 719.066" stroke="url(#paint3_linear_53_1025)" stroke-width="4.77723"/>
<path opacity="0.050505" d="M-309.528 799.237L-267.177 811.029C-224.826 822.82 -140.123 846.403 -48.6205 828.663C42.8825 810.922 141.186 751.859 227.4 766.259C313.613 780.659 387.736 868.522 475.461 873.739C563.186 878.956 664.512 801.526 715.175 762.812L765.838 724.097" stroke="url(#paint4_linear_53_1025)" stroke-width="4.73216"/>
<path opacity="0.0606061" d="M-303.295 785.08L-261.559 797.476C-219.823 809.873 -136.351 834.665 -45.4176 818.654C45.516 802.643 143.911 745.83 229.041 761.555C314.171 777.28 386.037 865.543 472.825 872.201C559.614 878.858 661.325 803.91 712.18 766.436L763.036 728.962" stroke="url(#paint5_linear_53_1025)" stroke-width="4.68709"/>
<path opacity="0.0707071" d="M-296.89 771.093L-255.777 784.077C-214.665 797.06 -132.44 823.026 -42.1091 808.72C48.2217 794.413 146.658 739.834 230.685 756.851C314.711 773.868 384.327 862.48 470.155 870.548C555.982 878.615 658.021 806.137 709.041 769.898L760.061 733.659" stroke="url(#paint6_linear_53_1025)" stroke-width="4.64202"/>
<path opacity="0.0808081" d="M-290.319 757.28L-249.838 770.833C-209.358 784.385 -128.396 811.49 -38.7006 798.862C50.9949 786.233 149.424 733.872 232.327 752.147C315.229 770.423 382.605 859.334 467.448 868.78C552.291 878.225 654.603 808.205 705.758 773.195L756.914 738.185" stroke="url(#paint7_linear_53_1025)" stroke-width="4.59696"/>
<path opacity="0.0909091" d="M-283.586 743.644L-243.745 757.747C-203.903 771.851 -124.221 800.059 -35.1922 789.082C53.8361 778.105 152.21 727.944 233.97 747.444C315.729 766.944 380.874 856.105 464.711 866.897C548.547 877.689 651.074 810.113 702.338 776.325L753.602 742.537" stroke="url(#paint8_linear_53_1025)" stroke-width="4.55189"/>
<path opacity="0.10101" d="M-276.697 730.185L-237.502 744.823C-198.308 759.46 -119.918 788.734 -31.5882 779.382C56.7418 770.029 155.012 722.049 235.611 742.74C316.209 763.431 379.136 852.791 461.943 864.898C544.75 877.005 647.439 811.858 698.783 779.284L750.128 746.711" stroke="url(#paint9_linear_53_1025)" stroke-width="4.50682"/>
<path opacity="0.111111" d="M-269.653 716.909L-231.112 732.062C-192.571 747.214 -115.488 777.519 -27.8867 769.763C59.7147 762.007 157.835 716.189 237.255 738.036C316.675 759.884 377.395 849.395 459.152 862.784C540.91 876.173 643.705 813.439 695.103 782.073L746.5 750.706" stroke="url(#paint10_linear_53_1025)" stroke-width="4.46175"/>
<path opacity="0.121212" d="M-262.464 703.817L-224.582 719.467C-186.701 735.117 -110.938 766.417 -24.0951 760.228C62.748 754.04 160.672 710.364 238.897 733.333C317.122 756.302 375.648 845.916 456.335 860.555C537.022 875.193 639.871 814.856 691.295 784.687L742.719 754.519" stroke="url(#paint11_linear_53_1025)" stroke-width="4.41668"/>
<path opacity="0.131313" d="M-255.131 690.911L-217.915 707.04C-180.7 723.169 -106.269 755.427 -20.2127 750.778C65.8433 746.129 163.524 704.573 240.539 728.629C317.553 752.686 373.901 842.354 453.498 858.209C533.096 874.064 635.944 816.105 687.368 787.125L738.791 758.146" stroke="url(#paint12_linear_53_1025)" stroke-width="4.37161"/>
<path opacity="0.141414" d="M-247.662 678.194L-211.118 694.784C-174.573 711.374 -101.485 744.554 -16.2442 741.415C68.9968 738.275 166.39 698.817 242.179 723.926C317.968 749.035 372.152 838.711 450.642 855.749C529.131 872.787 631.926 817.187 683.323 789.387L734.721 761.587" stroke="url(#paint13_linear_53_1025)" stroke-width="4.32655"/>
<path opacity="0.151515" d="M-240.057 665.668L-204.189 682.7C-168.321 699.733 -96.5855 733.798 -12.187 732.139C72.2115 730.48 169.273 693.096 243.823 719.222C318.372 745.349 370.41 834.985 447.773 853.173C525.137 871.361 627.826 818.099 679.171 791.469L730.516 764.838" stroke="url(#paint14_linear_53_1025)" stroke-width="4.28148"/>
<path opacity="0.161616" d="M-232.325 653.334L-197.139 670.791C-161.952 688.248 -91.5784 723.162 -8.04864 722.952C75.4811 722.742 172.167 687.409 245.464 714.518C318.761 741.627 368.669 831.178 444.89 850.481C521.111 869.785 623.644 818.841 674.911 793.369L726.177 767.897" stroke="url(#paint15_linear_53_1025)" stroke-width="4.23641"/>
<path opacity="0.171717" d="M-224.47 641.195L-189.968 659.058C-155.466 676.922 -86.4634 712.648 -3.82812 713.857C78.8072 715.066 175.075 681.758 247.107 709.814C319.14 737.87 366.937 827.29 441.999 847.675C517.061 868.061 619.387 819.412 670.55 795.087L721.713 770.763" stroke="url(#paint16_linear_53_1025)" stroke-width="4.19134"/>
<path opacity="0.181818" d="M-216.497 629.254L-182.684 647.505C-148.872 665.756 -81.2467 702.258 0.469303 704.855C82.1853 707.452 177.992 676.143 248.749 705.111C319.505 734.079 365.211 823.322 439.099 844.756C512.987 866.189 615.056 819.811 666.091 796.622L717.126 773.433" stroke="url(#paint17_linear_53_1025)" stroke-width="4.14627"/>
<path opacity="0.191919" d="M-208.413 617.51L-175.292 636.131C-142.172 654.752 -75.9315 691.993 4.84127 695.946C85.614 699.899 180.919 670.563 250.389 700.407C319.859 730.251 363.494 819.274 436.193 841.721C508.893 864.167 610.656 820.037 661.538 797.971L712.42 775.906" stroke="url(#paint18_linear_53_1025)" stroke-width="4.10121"/>
<path opacity="0.20202" d="M-200.217 605.967L-167.792 624.939C-135.367 643.911 -70.5165 681.855 9.28986 687.132C89.0962 692.409 183.859 665.019 252.033 695.703C320.206 726.388 361.792 815.147 433.289 838.572C504.787 861.998 606.196 820.089 656.901 799.135L707.606 778.18" stroke="url(#paint19_linear_53_1025)" stroke-width="4.05614"/>
<path opacity="0.212121" d="M-191.921 594.626L-160.193 613.931C-128.466 633.236 -65.0108 671.846 13.8069 678.415C92.6245 684.984 186.805 659.511 253.674 691.001C320.543 722.49 360.101 810.942 430.383 835.312C500.666 859.681 601.674 819.968 652.178 800.111L702.682 780.255" stroke="url(#paint20_linear_53_1025)" stroke-width="4.01107"/>
<path opacity="0.222222" d="M-183.526 583.487L-152.498 603.107C-121.47 622.727 -59.4145 661.967 18.393 669.794C96.2004 677.622 189.759 654.038 255.316 686.297C320.872 718.556 358.426 806.659 427.482 831.938C496.539 857.216 597.098 819.671 647.378 800.899L697.658 782.126" stroke="url(#paint21_linear_53_1025)" stroke-width="3.966"/>
<path opacity="0.232323" d="M-175.04 572.552L-144.713 592.469C-114.386 612.385 -53.7325 652.218 23.0442 661.272C99.8208 670.326 192.721 648.6 256.957 681.593C321.194 714.586 356.767 802.298 424.586 828.451C492.406 854.605 592.471 819.199 642.504 801.497L692.537 783.794" stroke="url(#paint22_linear_53_1025)" stroke-width="3.92093"/>
<path opacity="0.242424" d="M-166.466 561.824L-136.842 582.019C-107.217 602.214 -47.9682 642.604 27.7579 652.85C103.484 663.096 195.687 643.199 258.598 676.89C321.508 710.582 355.126 797.862 421.699 824.854C488.271 851.847 587.797 818.553 637.56 801.905L687.323 785.258" stroke="url(#paint23_linear_53_1025)" stroke-width="3.87586"/>
<path opacity="0.252525" d="M-157.808 551.3L-128.886 571.755C-99.9649 592.21 -42.122 633.121 32.5347 644.527C107.191 655.932 198.662 637.832 260.241 672.186C321.82 706.54 353.509 793.348 418.824 821.145C484.14 848.943 583.083 817.729 632.555 802.122L682.026 786.515" stroke="url(#paint24_linear_53_1025)" stroke-width="3.8308"/>
<path opacity="0.262626" d="M-149.075 540.985L-120.857 561.682C-92.6389 582.38 -36.2025 623.776 37.3666 636.306C110.936 648.837 201.638 632.502 261.881 667.483C322.125 702.464 351.91 788.761 415.961 817.328C480.012 845.895 578.329 816.731 627.487 802.149L676.645 787.567" stroke="url(#paint25_linear_53_1025)" stroke-width="3.78573"/>
<path opacity="0.272727" d="M-140.269 530.877L-112.754 551.799C-85.2391 572.721 -30.2092 614.566 42.2554 628.187C114.72 641.809 204.619 627.206 263.523 662.779C322.428 698.352 350.337 784.1 413.116 813.4C475.894 842.701 573.542 815.556 622.366 801.983L671.19 788.41" stroke="url(#paint26_linear_53_1025)" stroke-width="3.74066"/>
<path opacity="0.282828" d="M-131.397 520.978L-104.584 542.107C-77.7719 563.236 -24.1472 605.493 47.1964 620.171C118.54 634.849 207.602 621.947 265.165 658.076C322.727 694.205 348.789 779.365 410.289 809.365C471.788 839.365 568.726 814.205 617.195 801.625L665.663 789.045" stroke="url(#paint27_linear_53_1025)" stroke-width="3.69559"/>
<path opacity="0.292929" d="M-122.463 511.289L-96.3527 532.607C-70.242 553.925 -18.0206 596.56 52.1866 612.26C122.394 627.96 210.587 616.723 266.805 653.373C323.023 690.023 347.267 774.559 407.482 805.223C467.697 835.887 563.884 812.679 611.977 801.075L660.071 789.472" stroke="url(#paint28_linear_53_1025)" stroke-width="3.65052"/>
<path opacity="0.30303" d="M-113.471 501.808L-88.0609 523.297C-62.6505 544.786 -11.8297 587.764 57.2267 604.451C126.283 621.138 213.575 611.533 268.448 648.669C323.321 685.804 345.776 769.68 404.701 800.973C463.627 832.266 559.023 810.976 606.722 800.332L654.42 789.687" stroke="url(#paint29_linear_53_1025)" stroke-width="3.60546"/>
<path opacity="0.313131" d="M-104.43 492.538L-79.7177 514.181C-55.0058 535.824 -5.58195 579.109 62.3099 596.748C130.202 614.387 216.562 606.379 270.089 643.965C323.617 681.552 344.313 764.731 401.945 796.618C459.577 828.505 554.145 809.099 601.429 799.396L648.713 789.693" stroke="url(#paint30_linear_53_1025)" stroke-width="3.56039"/>
<path opacity="0.323232" d="M-95.3437 483.479L-71.3281 505.258C-47.3124 527.037 0.718828 570.595 67.4334 589.151C134.148 607.707 219.546 601.261 271.729 639.263C323.912 677.264 342.88 759.714 399.215 792.16C455.55 824.606 549.252 807.048 596.103 798.269L642.954 789.49" stroke="url(#paint31_linear_53_1025)" stroke-width="3.51532"/>
<path opacity="0.333333" d="M-86.2129 474.629L-62.8909 496.527C-39.569 518.425 7.07491 562.221 72.6003 581.658C138.126 601.096 222.533 596.175 273.373 634.558C324.212 672.941 341.485 754.627 396.521 787.597C451.556 820.567 544.355 804.821 590.754 796.947L637.154 789.074" stroke="url(#paint32_linear_53_1025)" stroke-width="3.47025"/>
<path opacity="0.343434" d="M-77.0502 465.992L-54.4189 487.991C-31.7876 509.991 13.475 553.99 77.8003 574.274C142.126 594.558 225.514 591.126 275.012 629.856C324.511 668.585 340.12 749.475 393.855 782.934C447.59 816.394 539.451 802.422 585.381 795.436L631.311 788.45" stroke="url(#paint33_linear_53_1025)" stroke-width="3.42518"/>
<path opacity="0.353535" d="M-67.854 457.562L-45.91 479.646C-23.966 501.731 19.9221 545.9 83.0371 566.995C146.152 588.089 228.494 586.11 276.655 625.151C324.816 664.193 338.795 744.255 391.228 778.169C443.662 812.082 534.549 799.848 579.993 793.73L625.437 787.613" stroke="url(#paint34_linear_53_1025)" stroke-width="3.38011"/>
<path opacity="0.363636" d="M-58.6351 449.343L-37.3746 471.496C-16.1141 493.648 26.407 537.953 88.3026 559.823C150.198 581.693 231.468 581.128 278.295 620.447C325.121 659.767 337.504 738.97 388.636 773.304C439.768 807.638 529.649 797.102 574.59 791.834L619.53 786.566" stroke="url(#paint35_linear_53_1025)" stroke-width="3.33505"/>
<path opacity="0.373737" d="M-49.3948 441.334L-28.8136 463.538C-8.23233 485.742 32.9301 530.149 93.598 552.759C154.266 575.368 234.439 576.181 279.936 615.744C325.433 655.307 336.254 733.622 386.085 768.342C435.917 803.061 524.759 794.185 569.18 789.747L613.601 785.309" stroke="url(#paint36_linear_53_1025)" stroke-width="3.28998"/>
<path opacity="0.383838" d="M-40.1394 433.535L-20.2329 455.774C-0.326378 478.012 39.4866 522.489 98.9192 545.802C158.352 569.116 237.404 571.267 281.577 611.041C325.75 650.814 335.044 728.211 383.576 763.282C432.109 798.353 519.881 791.098 563.767 787.471L607.653 783.843" stroke="url(#paint37_linear_53_1025)" stroke-width="3.24491"/>
<path opacity="0.393939" d="M-30.8754 425.944L-11.6387 448.201C7.59797 470.458 46.0714 514.971 104.262 538.953C162.453 562.935 240.361 566.386 283.216 606.337C326.072 646.288 333.873 722.739 381.11 758.128C428.347 793.516 515.018 787.842 558.354 785.004L601.69 782.167" stroke="url(#paint38_linear_53_1025)" stroke-width="3.19984"/>
<path opacity="0.40404" d="M-21.6027 418.562L-3.03047 440.821C15.5418 463.08 52.6862 507.597 109.63 532.212C166.573 556.827 243.315 561.539 284.86 601.634C326.404 641.729 332.75 717.207 378.694 752.879C424.638 788.551 510.18 784.417 552.951 782.35L595.722 780.283" stroke="url(#paint39_linear_53_1025)" stroke-width="3.15477"/>
<path opacity="0.414141" d="M-12.3334 411.386L5.58009 433.632C23.4935 455.877 59.3204 500.367 115.012 525.579C170.703 550.791 246.258 556.724 286.5 596.93C326.741 637.137 331.668 711.616 376.323 747.538C420.978 783.46 505.363 780.825 547.555 779.508L589.747 778.19" stroke="url(#paint40_linear_53_1025)" stroke-width="3.1097"/>
<path opacity="0.424242" d="M-3.06846 404.418L14.1922 426.633C31.4529 448.849 65.9743 493.28 120.409 519.054C174.844 544.827 249.193 551.942 288.14 592.227C327.086 632.513 330.631 705.967 374.003 742.106C417.375 778.245 500.574 777.068 542.174 776.479L583.773 775.891" stroke="url(#paint41_linear_53_1025)" stroke-width="3.06464"/>
<path opacity="0.434343" d="M6.18683 397.655L22.8012 419.825C39.4156 441.996 72.6443 486.337 125.82 512.637C178.996 538.936 252.119 547.193 289.781 587.525C327.442 627.857 329.642 700.263 371.736 736.586C413.83 772.908 495.819 773.147 536.813 773.266L577.807 773.386" stroke="url(#paint42_linear_53_1025)" stroke-width="3.01957"/>
<path opacity="0.444444" d="M15.4279 391.093L31.4027 413.203C47.3775 435.314 79.327 479.534 131.242 506.324C183.156 533.113 255.036 542.473 291.422 582.819C327.808 623.166 328.701 694.501 369.524 730.974C410.347 767.448 491.1 769.06 531.477 769.866L571.853 770.672" stroke="url(#paint43_linear_53_1025)" stroke-width="2.9745"/>
<path opacity="0.454545" d="M24.6485 384.738L39.9908 406.772C55.3331 428.807 86.0177 472.876 136.67 500.121C187.322 527.366 257.941 537.786 293.063 578.117C328.185 618.447 327.809 688.688 367.368 725.28C406.927 761.872 486.421 764.814 526.168 766.286L565.915 767.757" stroke="url(#paint44_linear_53_1025)" stroke-width="2.92943"/>
<path opacity="0.464646" d="M33.8436 378.582L48.5608 400.526C63.2781 422.47 92.7126 466.359 142.102 494.024C191.491 521.688 260.834 533.129 294.703 573.413C328.572 613.696 326.966 682.821 365.269 719.499C403.572 756.177 481.784 760.408 520.891 762.523L559.997 764.638" stroke="url(#paint45_linear_53_1025)" stroke-width="2.88436"/>
<path opacity="0.474747" d="M43.0111 372.627L57.1112 394.466C71.2112 416.305 99.4112 459.984 147.538 488.033C195.664 516.083 263.717 528.504 296.345 568.709C328.973 608.914 326.177 676.904 363.233 713.636C400.289 750.369 477.198 755.843 515.652 758.58L554.107 761.318" stroke="url(#paint46_linear_53_1025)" stroke-width="2.8393"/>
<path opacity="0.484848" d="M52.1415 366.872L65.6324 388.591C79.1233 410.311 106.105 453.751 152.97 482.15C199.835 510.549 266.584 523.909 297.984 564.006C329.384 604.103 325.436 670.938 361.255 707.693C397.074 744.448 472.66 751.123 510.452 754.46L548.245 757.798" stroke="url(#paint47_linear_53_1025)" stroke-width="2.79423"/>
<path opacity="0.494949" d="M61.2352 361.312L74.1253 382.898C87.0155 404.484 112.796 447.656 158.402 476.371C204.008 505.085 269.44 519.342 299.626 559.301C329.812 599.261 324.752 664.923 359.344 701.67C393.936 738.416 468.179 746.247 505.3 750.163L542.422 754.078" stroke="url(#paint48_linear_53_1025)" stroke-width="2.74916"/>
<path opacity="0.50505" d="M70.283 355.949L82.5812 377.388C94.8794 398.826 119.476 441.704 163.826 470.699C208.176 499.694 272.279 514.806 301.265 554.599C330.251 594.391 324.12 658.863 357.496 695.571C390.871 732.278 463.754 741.221 500.196 745.692L536.637 750.163" stroke="url(#paint49_linear_53_1025)" stroke-width="2.70409"/>
<path opacity="0.515152" d="M79.2843 350.779L90.9996 372.057C102.715 393.334 126.146 435.89 169.243 465.131C212.341 494.372 275.105 510.299 302.906 549.895C330.707 589.492 323.545 652.758 355.716 689.395C387.888 726.033 459.393 736.043 495.146 741.048L530.899 746.053" stroke="url(#paint50_linear_53_1025)" stroke-width="2.65902"/>
<path opacity="0.525253" d="M88.2315 345.8L99.3732 366.903C110.515 388.006 132.799 430.212 174.649 459.665C216.499 489.118 277.915 505.818 304.547 545.191C331.178 584.563 323.025 646.607 354.005 683.145C384.985 719.684 455.097 730.716 490.154 736.232L525.21 741.748" stroke="url(#paint51_linear_53_1025)" stroke-width="2.61396"/>
<path opacity="0.535354" d="M97.1206 341.01L107.698 361.926C118.276 382.841 139.432 424.672 180.04 454.304C220.648 483.935 280.708 501.367 306.186 540.487C331.665 579.607 322.562 640.415 352.363 676.824C382.164 713.233 450.869 725.243 485.222 731.247L519.575 737.252" stroke="url(#paint52_linear_53_1025)" stroke-width="2.56889"/>
<path opacity="0.545455" d="M105.949 336.409L115.973 357.124C125.997 377.839 146.045 419.27 185.417 449.046C224.789 478.821 283.486 496.943 307.828 535.783C332.17 574.624 322.158 634.184 350.794 670.434C379.431 706.685 446.716 719.626 480.358 726.097L514 732.568" stroke="url(#paint53_linear_53_1025)" stroke-width="2.52382"/>
<path opacity="0.555556" d="M114.711 331.993L124.191 352.495C133.671 372.998 152.632 414.002 190.775 443.89C228.919 473.777 286.245 492.546 309.468 531.08C332.692 569.614 321.812 627.913 349.298 663.977C376.784 700.041 442.636 713.869 475.563 720.783L508.489 727.697" stroke="url(#paint54_linear_53_1025)" stroke-width="2.47875"/>
<path opacity="0.565657" d="M123.4 327.758L132.347 348.036C141.294 368.313 159.189 408.868 196.111 438.833C233.034 468.798 288.985 488.174 311.108 526.376C333.23 564.577 321.524 621.605 347.876 657.453C374.227 693.301 438.635 707.97 470.84 715.305L503.044 722.64" stroke="url(#paint55_linear_53_1025)" stroke-width="2.43368"/>
<path opacity="0.575758" d="M132.015 323.704L140.44 343.745C148.865 363.785 165.714 403.866 201.424 433.877C237.135 463.888 291.707 483.828 312.748 521.671C333.789 559.514 321.298 615.26 346.53 650.865C371.762 686.47 434.717 701.935 466.194 709.668L497.672 717.4" stroke="url(#paint56_linear_53_1025)" stroke-width="2.38861"/>
<path opacity="0.585859" d="M140.55 319.83L148.463 339.622C156.377 359.413 172.203 398.997 206.711 429.021C241.219 459.045 294.409 479.509 314.387 516.968C334.365 554.427 321.131 608.882 345.26 644.217C369.39 679.552 430.883 695.767 461.629 703.874L492.376 711.982" stroke="url(#paint57_linear_53_1025)" stroke-width="2.34355"/>
<path opacity="0.59596" d="M149.003 316.129L156.416 335.661C163.829 355.193 178.655 394.257 211.971 424.262C245.287 454.267 297.093 475.213 316.028 512.264C334.963 549.315 321.027 602.471 344.071 637.509C367.115 672.546 427.138 689.466 457.15 697.925L487.162 706.385" stroke="url(#paint58_linear_53_1025)" stroke-width="2.29848"/>
<path opacity="0.606061" d="M157.369 312.602L164.293 331.863C171.218 351.124 185.066 389.647 217.201 419.601C249.336 449.556 299.757 470.942 317.669 507.56C335.582 544.179 320.986 596.029 342.962 630.744C364.938 665.458 423.486 683.036 452.76 691.825L482.034 700.614" stroke="url(#paint59_linear_53_1025)" stroke-width="2.25341"/>
<path opacity="0.616162" d="M165.639 309.244L172.086 328.224C178.534 347.204 191.429 385.163 222.395 415.036C253.36 444.908 302.396 466.694 319.307 502.856C336.218 539.018 321.004 589.558 341.931 623.923C362.857 658.288 419.924 676.48 448.458 685.575L476.991 694.671" stroke="url(#paint60_linear_53_1025)" stroke-width="2.20834"/>
<path opacity="0.626263" d="M173.817 306.054L179.799 324.742C185.782 343.43 197.748 380.806 227.557 410.565C257.365 440.325 305.017 462.469 320.948 498.152C336.879 533.836 321.089 583.059 340.985 617.05C360.881 651.041 416.463 669.8 444.254 679.179L472.045 688.558" stroke="url(#paint61_linear_53_1025)" stroke-width="2.16327"/>
<path opacity="0.636364" d="M181.894 303.028L187.424 321.414C192.954 339.8 204.015 376.573 232.68 406.189C261.346 435.806 307.616 458.267 322.588 493.449C337.561 528.631 321.236 576.535 340.121 610.127C359.006 643.719 413.101 662.999 440.148 672.64L467.195 682.28" stroke="url(#paint62_linear_53_1025)" stroke-width="2.11821"/>
<path opacity="0.646465" d="M189.868 300.161L194.958 318.236C200.048 336.311 210.228 372.46 237.764 401.904C265.3 431.347 310.192 454.085 324.229 488.744C338.266 523.403 321.448 569.984 339.342 603.153C357.236 636.322 409.841 656.079 436.144 665.958L462.447 675.836" stroke="url(#paint63_linear_53_1025)" stroke-width="2.07314"/>
<path opacity="0.656566" d="M197.734 297.454L202.396 315.208C207.059 332.962 216.384 368.47 242.805 397.711C269.226 426.952 312.744 449.925 325.868 484.04C338.992 518.156 321.723 563.412 338.647 596.135C355.57 628.857 406.686 649.046 432.244 659.14L457.802 669.234" stroke="url(#paint64_linear_53_1025)" stroke-width="2.02807"/>
<path opacity="0.666667" d="M205.489 294.901L209.737 312.325C213.984 329.749 222.48 364.597 247.802 393.606C273.124 422.615 315.273 445.785 327.507 479.336C339.742 512.887 322.064 556.818 338.038 589.071C354.012 621.325 403.639 641.899 428.452 652.186L453.265 662.473" stroke="url(#paint65_linear_53_1025)" stroke-width="1.983"/>
<path opacity="0.676768" d="M213.13 292.499L216.976 309.585C220.822 326.67 228.515 360.842 252.754 389.591C276.993 418.339 317.778 441.665 329.148 474.631C340.517 507.598 322.47 550.205 337.517 581.967C352.563 613.728 400.703 634.643 424.773 645.101L448.842 655.559" stroke="url(#paint66_linear_53_1025)" stroke-width="1.93793"/>
<path opacity="0.686869" d="M220.653 290.246L224.111 306.985C227.569 323.725 234.484 357.203 257.657 385.663C280.83 414.123 320.26 437.565 330.788 469.928C341.316 502.291 322.942 543.575 337.083 574.823C351.224 606.071 397.88 627.283 421.207 637.889L444.535 648.495" stroke="url(#paint67_linear_53_1025)" stroke-width="1.89286"/>
<path opacity="0.69697" d="M228.056 288.137L231.138 304.521C234.221 320.906 240.386 353.675 262.51 381.819C284.634 409.963 322.717 433.482 332.428 465.223C342.14 496.964 323.481 536.928 336.739 567.641C349.997 598.355 395.172 619.818 417.76 630.55L440.348 641.282" stroke="url(#paint68_linear_53_1025)" stroke-width="1.8478"/>
<path opacity="0.707071" d="M235.331 286.171L238.053 302.193C240.774 318.215 246.216 350.26 267.309 378.061C288.403 405.861 325.147 429.418 334.067 460.52C342.988 491.622 324.084 530.268 336.482 560.426C348.88 590.585 392.581 612.255 414.431 623.091L436.281 633.926" stroke="url(#paint69_linear_53_1025)" stroke-width="1.80273"/>
<path opacity="0.717172" d="M242.479 284.342L244.852 299.995C247.225 315.648 251.972 346.953 272.054 374.384C292.135 401.815 327.552 425.372 335.706 455.817C343.86 486.261 324.753 523.595 336.315 553.178C347.877 582.762 390.109 604.596 411.225 615.513L432.341 626.43" stroke="url(#paint70_linear_53_1025)" stroke-width="1.75766"/>
<path opacity="0.727273" d="M249.497 282.645L251.537 297.921C253.576 313.198 257.655 343.751 276.744 370.787C295.833 397.822 329.933 421.339 337.347 451.111C344.761 480.882 325.49 516.908 336.24 545.898C346.99 574.888 387.761 596.841 408.147 607.818L428.532 618.795" stroke="url(#paint71_linear_53_1025)" stroke-width="1.71259"/>
<path opacity="0.737374" d="M256.381 281.08L258.1 295.974C259.819 310.868 263.258 340.656 281.375 367.27C299.492 393.884 332.286 417.324 338.987 446.407C345.687 475.49 326.293 510.214 336.256 538.592C346.218 566.969 385.536 588.999 405.196 600.014L424.855 611.029" stroke="url(#paint72_linear_53_1025)" stroke-width="1.66752"/>
<path opacity="0.747475" d="M263.127 279.642L264.54 294.147C265.954 308.652 268.78 337.662 285.945 363.83C303.11 389.998 334.614 413.324 340.627 441.703C346.64 470.081 327.163 503.512 336.362 531.259C345.562 559.007 383.437 581.069 402.375 592.101L421.313 603.132" stroke="url(#paint73_linear_53_1025)" stroke-width="1.62245"/>
<path opacity="0.757576" d="M269.734 278.326L270.856 292.436C271.978 306.546 274.221 334.767 290.456 360.465C306.69 386.163 336.916 409.338 342.268 436.998C347.621 464.658 328.101 496.804 336.563 523.904C345.025 551.003 381.468 573.057 399.69 584.083L417.912 595.11" stroke="url(#paint74_linear_53_1025)" stroke-width="1.57739"/>
<path opacity="0.767677" d="M276.195 277.13L277.039 290.841C277.884 304.551 279.573 331.972 294.898 357.176C310.224 382.38 339.187 405.367 343.906 432.295C348.625 459.223 329.102 490.093 336.851 516.528C344.601 542.964 379.624 564.966 397.136 575.966L414.648 586.967" stroke="url(#paint75_linear_53_1025)" stroke-width="1.53232"/>
<path opacity="0.777778" d="M282.512 276.048L283.094 289.354C283.676 302.659 284.839 329.27 299.278 353.957C313.718 378.644 341.433 401.407 345.546 427.59C349.66 453.774 330.172 483.378 337.236 509.134C344.299 534.889 377.915 556.797 394.723 567.751L411.531 578.705" stroke="url(#paint76_linear_53_1025)" stroke-width="1.48725"/>
<path opacity="0.787879" d="M288.679 275.077L289.013 287.972C289.346 300.868 290.013 326.66 303.589 350.808C317.165 374.955 343.649 397.458 347.185 422.885C350.72 448.311 331.306 476.661 337.71 501.722C344.114 526.783 376.337 548.555 392.448 559.441L408.559 570.328" stroke="url(#paint77_linear_53_1025)" stroke-width="1.44218"/>
<path opacity="0.79798" d="M294.697 274.213L294.797 286.695C294.896 299.177 295.096 324.141 307.831 347.727C320.567 371.314 345.839 393.522 348.824 418.18C351.81 442.838 332.508 469.945 338.279 494.297C344.05 518.649 374.894 540.245 390.316 551.043L405.738 561.841" stroke="url(#paint78_linear_53_1025)" stroke-width="1.39711"/>
<path opacity="0.808081" d="M300.563 273.453L300.443 285.517C300.324 297.581 300.086 321.71 312.005 344.714C323.925 367.718 348.002 389.597 350.466 413.476C352.929 437.355 333.778 463.233 338.943 486.862C344.108 510.491 373.589 531.87 388.33 542.56L403.07 553.25" stroke="url(#paint79_linear_53_1025)" stroke-width="1.35205"/>
<path opacity="0.818182" d="M306.271 272.792L305.947 284.435C305.624 296.078 304.977 319.365 316.105 341.766C327.233 364.167 350.135 385.683 352.105 408.773C354.074 431.862 335.111 456.526 339.698 479.418C344.284 502.311 372.42 523.434 386.488 533.995L400.555 544.557" stroke="url(#paint80_linear_53_1025)" stroke-width="1.30698"/>
<path opacity="0.828283" d="M311.821 272.223L311.308 283.441C310.795 294.66 309.77 317.098 320.131 338.877C330.492 360.655 352.239 381.775 353.744 404.066C355.249 426.357 336.511 449.82 340.546 471.965C344.581 494.11 371.389 514.936 384.793 525.349L398.197 535.763" stroke="url(#paint81_linear_53_1025)" stroke-width="1.26191"/>
<path opacity="0.838384" d="M317.211 271.746L316.524 282.538C315.836 293.33 314.462 314.914 324.081 336.051C333.701 357.188 354.314 377.878 355.383 399.362C356.451 420.846 337.975 443.125 341.487 464.51C344.998 485.895 370.498 506.387 383.248 516.632L395.998 526.878" stroke="url(#paint82_linear_53_1025)" stroke-width="1.21684"/>
<path opacity="0.848485" d="M322.439 271.357L321.592 281.719C320.745 292.082 319.052 312.807 327.955 333.283C336.859 353.76 356.36 373.989 357.022 394.658C357.683 415.328 339.505 436.439 342.521 457.054C345.537 477.668 369.749 497.787 381.854 507.846L393.96 517.905" stroke="url(#paint83_linear_53_1025)" stroke-width="1.17177"/>
<path opacity="0.858586" d="M327.504 271.047L326.512 280.978C325.521 290.909 323.538 310.771 331.753 330.57C339.967 350.369 358.378 370.104 358.662 389.953C358.945 409.801 341.1 429.762 343.649 449.596C346.198 469.43 369.142 489.137 380.614 498.991L392.085 508.844" stroke="url(#paint84_linear_53_1025)" stroke-width="1.1267"/>
<path opacity="0.868687" d="M332.405 270.816L331.284 280.315C330.163 289.813 327.921 308.809 335.472 327.913C343.024 347.017 360.369 366.228 360.303 385.249C360.238 404.269 342.761 423.099 344.872 442.143C346.983 461.187 368.68 480.446 379.529 490.076L390.378 499.705" stroke="url(#paint85_linear_53_1025)" stroke-width="1.08164"/>
<path opacity="0.878788" d="M337.135 270.656L335.9 279.721C334.664 288.785 332.193 306.913 339.109 325.306C346.024 343.699 362.327 362.356 361.942 380.543C361.557 398.73 344.484 416.447 346.184 434.693C347.885 452.939 368.36 471.713 378.597 481.1L388.835 490.488" stroke="url(#paint86_linear_53_1025)" stroke-width="1.03657"/>
<path opacity="0.888889" d="M341.697 270.566L340.362 279.196C339.026 287.825 336.356 305.084 342.663 322.749C348.971 340.415 364.256 358.488 363.581 375.837C362.906 393.187 346.269 409.812 347.589 427.251C348.909 444.691 368.185 462.945 377.822 472.072L387.46 481.199" stroke="url(#paint87_linear_53_1025)" stroke-width="0.9915"/>
<path opacity="0.89899" d="M346.09 270.542L344.671 278.736C343.251 286.93 340.411 303.318 346.138 320.243C351.865 337.167 366.159 354.627 365.223 371.134C364.287 387.641 348.121 403.195 349.089 419.822C350.056 436.448 368.157 454.147 377.208 462.996L386.258 471.845" stroke="url(#paint88_linear_53_1025)" stroke-width="0.946432"/>
<path opacity="0.909091" d="M350.308 270.576L348.818 278.335C347.329 286.094 344.35 301.611 349.524 317.78C354.699 333.948 368.027 350.767 366.86 366.429C365.693 382.091 350.031 396.596 350.675 412.403C351.32 428.209 368.272 445.318 376.748 453.872L385.224 462.427" stroke="url(#paint89_linear_53_1025)" stroke-width="0.901364"/>
<path opacity="0.919192" d="M354.355 270.665L352.811 277.988C351.266 285.312 348.178 299.959 352.829 315.358C357.479 330.758 369.869 346.909 368.5 361.723C367.132 376.538 352.005 390.015 352.356 404.997C352.707 419.978 368.537 436.464 376.451 444.706L384.366 452.949" stroke="url(#paint90_linear_53_1025)" stroke-width="0.856296"/>
<path opacity="0.929293" d="M358.226 270.805L356.642 277.694C355.058 284.584 351.89 298.363 356.046 312.98C360.201 327.597 371.68 343.053 370.14 357.019C368.599 370.984 354.039 383.458 354.126 397.61C354.213 411.761 368.947 427.59 376.314 435.504L383.681 443.419" stroke="url(#paint91_linear_53_1025)" stroke-width="0.811227"/>
<path opacity="0.939394" d="M361.922 270.991L360.313 277.447C358.704 283.903 355.486 296.816 359.176 310.64C362.865 324.463 373.461 339.198 371.779 352.313C370.096 365.428 356.134 376.923 355.986 390.241C355.838 403.558 369.504 418.698 376.338 426.268L383.171 433.839" stroke="url(#paint92_linear_53_1025)" stroke-width="0.766159"/>
<path opacity="0.949495" d="M365.441 271.219L363.822 277.244C362.203 283.269 358.966 295.318 362.218 308.337C365.471 321.356 375.214 335.345 373.418 347.609C371.623 359.874 358.289 370.414 357.936 382.895C357.583 395.375 370.21 409.795 376.524 417.005L382.838 424.215" stroke="url(#paint93_linear_53_1025)" stroke-width="0.721091"/>
<path opacity="0.959596" d="M368.785 271.484L367.171 277.078C365.556 282.673 362.328 293.863 365.173 306.067C368.019 318.27 376.938 331.489 375.059 342.904C373.181 354.319 360.504 363.93 359.976 375.571C359.447 387.211 371.065 400.88 376.875 407.715L382.684 414.55" stroke="url(#paint94_linear_53_1025)" stroke-width="0.676023"/>
<path opacity="0.969697" d="M371.947 271.78L370.353 276.947C368.758 282.115 365.568 292.449 368.036 303.828C370.505 315.208 378.63 327.632 376.698 338.199C374.766 348.765 362.776 357.474 362.101 368.273C361.426 379.071 372.066 391.96 377.386 398.405L382.706 404.849" stroke="url(#paint95_linear_53_1025)" stroke-width="0.630955"/>
<path opacity="0.979798" d="M374.932 272.105L373.371 276.847C371.811 281.589 368.689 291.074 370.81 301.619C372.931 312.165 380.294 323.773 378.337 333.493C376.381 343.214 365.105 351.047 364.314 361.003C363.522 370.959 373.215 383.038 378.061 389.078L382.907 395.118" stroke="url(#paint96_linear_53_1025)" stroke-width="0.585886"/>
<path opacity="0.989899" d="M377.738 272.452L376.226 276.772C374.714 281.093 371.69 289.733 373.493 299.438C375.297 309.142 381.928 319.911 379.977 328.788C378.026 337.665 367.492 344.65 366.613 353.763C365.735 362.876 374.512 374.118 378.901 379.739L383.289 385.36" stroke="url(#paint97_linear_53_1025)" stroke-width="0.540818"/>
<path d="M380.362 272.818L378.913 276.72C377.464 280.621 374.566 288.424 376.084 297.28C377.601 306.136 383.533 316.046 381.616 324.083C379.699 332.12 369.933 338.285 368.997 346.556C368.062 354.827 375.956 365.204 379.903 370.392L383.85 375.581" stroke="url(#paint98_linear_53_1025)" stroke-width="0.49575"/>
</g>
</g>
<defs>
<filter id="filter0_f_53_1025" x="-425" y="106" width="921" height="847" filterUnits="userSpaceOnUse" color-interpolation-filters="sRGB">
<feFlood flood-opacity="0" result="BackgroundImageFix"/>
<feBlend mode="normal" in="SourceGraphic" in2="BackgroundImageFix" result="shape"/>
<feGaussianBlur stdDeviation="150" result="effect1_foregroundBlur_53_1025"/>
</filter>
<filter id="filter1_f_53_1025" x="-143" y="-454" width="1141" height="1141" filterUnits="userSpaceOnUse" color-interpolation-filters="sRGB">
<feFlood flood-opacity="0" result="BackgroundImageFix"/>
<feBlend mode="normal" in="SourceGraphic" in2="BackgroundImageFix" result="shape"/>
<feGaussianBlur stdDeviation="200" result="effect1_foregroundBlur_53_1025"/>
</filter>
<filter id="filter2_f_53_1025" x="-91" y="75" width="845" height="822" filterUnits="userSpaceOnUse" color-interpolation-filters="sRGB">
<feFlood flood-opacity="0" result="BackgroundImageFix"/>
<feBlend mode="normal" in="SourceGraphic" in2="BackgroundImageFix" result="shape"/>
<feGaussianBlur stdDeviation="150" result="effect1_foregroundBlur_53_1025"/>
</filter>
<filter id="filter3_f_53_1025" x="-222" y="332" width="958" height="880" filterUnits="userSpaceOnUse" color-interpolation-filters="sRGB">
<feFlood flood-opacity="0" result="BackgroundImageFix"/>
<feBlend mode="normal" in="SourceGraphic" in2="BackgroundImageFix" result="shape"/>
<feGaussianBlur stdDeviation="150" result="effect1_foregroundBlur_53_1025"/>
</filter>
<linearGradient id="paint0_linear_53_1025" x1="233.273" y1="650.37" x2="207.09" y2="919.894" gradientUnits="userSpaceOnUse">
<stop stop-color="white"/>
<stop offset="1" stop-color="white"/>
</linearGradient>
<linearGradient id="paint1_linear_53_1025" x1="237.166" y1="647.15" x2="206.644" y2="913.701" gradientUnits="userSpaceOnUse">
<stop stop-color="white"/>
<stop offset="1" stop-color="white"/>
</linearGradient>
<linearGradient id="paint2_linear_53_1025" x1="241.012" y1="643.965" x2="206.246" y2="907.477" gradientUnits="userSpaceOnUse">
<stop stop-color="white"/>
<stop offset="1" stop-color="white"/>
</linearGradient>
<linearGradient id="paint3_linear_53_1025" x1="244.809" y1="640.815" x2="205.895" y2="901.225" gradientUnits="userSpaceOnUse">
<stop stop-color="white"/>
<stop offset="1" stop-color="white"/>
</linearGradient>
<linearGradient id="paint4_linear_53_1025" x1="248.558" y1="637.698" x2="205.591" y2="894.945" gradientUnits="userSpaceOnUse">
<stop stop-color="white"/>
<stop offset="1" stop-color="white"/>
</linearGradient>
<linearGradient id="paint5_linear_53_1025" x1="252.254" y1="634.613" x2="205.332" y2="888.638" gradientUnits="userSpaceOnUse">
<stop stop-color="white"/>
<stop offset="1" stop-color="white"/>
</linearGradient>
<linearGradient id="paint6_linear_53_1025" x1="255.903" y1="631.558" x2="205.122" y2="882.305" gradientUnits="userSpaceOnUse">
<stop stop-color="white"/>
<stop offset="1" stop-color="white"/>
</linearGradient>
<linearGradient id="paint7_linear_53_1025" x1="259.499" y1="628.534" x2="204.959" y2="875.948" gradientUnits="userSpaceOnUse">
<stop stop-color="white"/>
<stop offset="1" stop-color="white"/>
</linearGradient>
<linearGradient id="paint8_linear_53_1025" x1="263.045" y1="625.537" x2="204.843" y2="869.567" gradientUnits="userSpaceOnUse">
<stop stop-color="white"/>
<stop offset="1" stop-color="white"/>
</linearGradient>
<linearGradient id="paint9_linear_53_1025" x1="266.537" y1="622.567" x2="204.774" y2="863.163" gradientUnits="userSpaceOnUse">
<stop stop-color="white"/>
<stop offset="1" stop-color="white"/>
</linearGradient>
<linearGradient id="paint10_linear_53_1025" x1="269.981" y1="619.623" x2="204.755" y2="856.737" gradientUnits="userSpaceOnUse">
<stop stop-color="white"/>
<stop offset="1" stop-color="white"/>
</linearGradient>
<linearGradient id="paint11_linear_53_1025" x1="273.369" y1="616.704" x2="204.781" y2="850.292" gradientUnits="userSpaceOnUse">
<stop stop-color="white"/>
<stop offset="1" stop-color="white"/>
</linearGradient>
<linearGradient id="paint12_linear_53_1025" x1="276.705" y1="613.807" x2="204.856" y2="843.826" gradientUnits="userSpaceOnUse">
<stop stop-color="white"/>
<stop offset="1" stop-color="white"/>
</linearGradient>
<linearGradient id="paint13_linear_53_1025" x1="279.987" y1="610.933" x2="204.978" y2="837.342" gradientUnits="userSpaceOnUse">
<stop stop-color="white"/>
<stop offset="1" stop-color="white"/>
</linearGradient>
<linearGradient id="paint14_linear_53_1025" x1="283.219" y1="608.079" x2="205.15" y2="830.841" gradientUnits="userSpaceOnUse">
<stop stop-color="white"/>
<stop offset="1" stop-color="white"/>
</linearGradient>
<linearGradient id="paint15_linear_53_1025" x1="286.395" y1="605.244" x2="205.369" y2="824.321" gradientUnits="userSpaceOnUse">
<stop stop-color="white"/>
<stop offset="1" stop-color="white"/>
</linearGradient>
<linearGradient id="paint16_linear_53_1025" x1="289.518" y1="602.427" x2="205.638" y2="817.788" gradientUnits="userSpaceOnUse">
<stop stop-color="white"/>
<stop offset="1" stop-color="white"/>
</linearGradient>
<linearGradient id="paint17_linear_53_1025" x1="292.587" y1="599.628" x2="205.953" y2="811.24" gradientUnits="userSpaceOnUse">
<stop stop-color="white"/>
<stop offset="1" stop-color="white"/>
</linearGradient>
<linearGradient id="paint18_linear_53_1025" x1="295.6" y1="596.843" x2="206.315" y2="804.678" gradientUnits="userSpaceOnUse">
<stop stop-color="white"/>
<stop offset="1" stop-color="white"/>
</linearGradient>
<linearGradient id="paint19_linear_53_1025" x1="298.562" y1="594.073" x2="206.73" y2="798.103" gradientUnits="userSpaceOnUse">
<stop stop-color="white"/>
<stop offset="1" stop-color="white"/>
</linearGradient>
<linearGradient id="paint20_linear_53_1025" x1="301.468" y1="591.316" x2="207.19" y2="791.519" gradientUnits="userSpaceOnUse">
<stop stop-color="white"/>
<stop offset="1" stop-color="white"/>
</linearGradient>
<linearGradient id="paint21_linear_53_1025" x1="304.32" y1="588.571" x2="207.699" y2="784.922" gradientUnits="userSpaceOnUse">
<stop stop-color="white"/>
<stop offset="1" stop-color="white"/>
</linearGradient>
<linearGradient id="paint22_linear_53_1025" x1="307.118" y1="585.835" x2="208.256" y2="778.316" gradientUnits="userSpaceOnUse">
<stop stop-color="white"/>
<stop offset="1" stop-color="white"/>
</linearGradient>
<linearGradient id="paint23_linear_53_1025" x1="309.86" y1="583.11" x2="208.86" y2="771.702" gradientUnits="userSpaceOnUse">
<stop stop-color="white"/>
<stop offset="1" stop-color="white"/>
</linearGradient>
<linearGradient id="paint24_linear_53_1025" x1="312.55" y1="580.391" x2="209.516" y2="765.079" gradientUnits="userSpaceOnUse">
<stop stop-color="white"/>
<stop offset="1" stop-color="white"/>
</linearGradient>
<linearGradient id="paint25_linear_53_1025" x1="315.184" y1="577.68" x2="210.217" y2="758.451" gradientUnits="userSpaceOnUse">
<stop stop-color="white"/>
<stop offset="1" stop-color="white"/>
</linearGradient>
<linearGradient id="paint26_linear_53_1025" x1="317.764" y1="574.973" x2="210.967" y2="751.816" gradientUnits="userSpaceOnUse">
<stop stop-color="white"/>
<stop offset="1" stop-color="white"/>
</linearGradient>
<linearGradient id="paint27_linear_53_1025" x1="320.29" y1="572.271" x2="211.765" y2="745.177" gradientUnits="userSpaceOnUse">
<stop stop-color="white"/>
<stop offset="1" stop-color="white"/>
</linearGradient>
<linearGradient id="paint28_linear_53_1025" x1="322.761" y1="569.572" x2="212.611" y2="738.536" gradientUnits="userSpaceOnUse">
<stop stop-color="white"/>
<stop offset="1" stop-color="white"/>
</linearGradient>
<linearGradient id="paint29_linear_53_1025" x1="325.181" y1="566.874" x2="213.506" y2="731.889" gradientUnits="userSpaceOnUse">
<stop stop-color="white"/>
<stop offset="1" stop-color="white"/>
</linearGradient>
<linearGradient id="paint30_linear_53_1025" x1="327.546" y1="564.176" x2="214.448" y2="725.242" gradientUnits="userSpaceOnUse">
<stop stop-color="white"/>
<stop offset="1" stop-color="white"/>
</linearGradient>
<linearGradient id="paint31_linear_53_1025" x1="329.855" y1="561.478" x2="215.436" y2="718.595" gradientUnits="userSpaceOnUse">
<stop stop-color="white"/>
<stop offset="1" stop-color="white"/>
</linearGradient>
<linearGradient id="paint32_linear_53_1025" x1="332.115" y1="558.777" x2="216.476" y2="711.946" gradientUnits="userSpaceOnUse">
<stop stop-color="white"/>
<stop offset="1" stop-color="white"/>
</linearGradient>
<linearGradient id="paint33_linear_53_1025" x1="334.319" y1="556.074" x2="217.559" y2="705.301" gradientUnits="userSpaceOnUse">
<stop stop-color="white"/>
<stop offset="1" stop-color="white"/>
</linearGradient>
<linearGradient id="paint34_linear_53_1025" x1="336.472" y1="553.365" x2="218.693" y2="698.655" gradientUnits="userSpaceOnUse">
<stop stop-color="white"/>
<stop offset="1" stop-color="white"/>
</linearGradient>
<linearGradient id="paint35_linear_53_1025" x1="338.571" y1="550.65" x2="219.871" y2="692.014" gradientUnits="userSpaceOnUse">
<stop stop-color="white"/>
<stop offset="1" stop-color="white"/>
</linearGradient>
<linearGradient id="paint36_linear_53_1025" x1="340.619" y1="547.929" x2="221.097" y2="685.377" gradientUnits="userSpaceOnUse">
<stop stop-color="white"/>
<stop offset="1" stop-color="white"/>
</linearGradient>
<linearGradient id="paint37_linear_53_1025" x1="342.616" y1="545.2" x2="222.37" y2="678.745" gradientUnits="userSpaceOnUse">
<stop stop-color="white"/>
<stop offset="1" stop-color="white"/>
</linearGradient>
<linearGradient id="paint38_linear_53_1025" x1="344.56" y1="542.462" x2="223.688" y2="672.119" gradientUnits="userSpaceOnUse">
<stop stop-color="white"/>
<stop offset="1" stop-color="white"/>
</linearGradient>
<linearGradient id="paint39_linear_53_1025" x1="346.456" y1="539.713" x2="225.057" y2="665.501" gradientUnits="userSpaceOnUse">
<stop stop-color="white"/>
<stop offset="1" stop-color="white"/>
</linearGradient>
<linearGradient id="paint40_linear_53_1025" x1="348.3" y1="536.953" x2="226.468" y2="658.891" gradientUnits="userSpaceOnUse">
<stop stop-color="white"/>
<stop offset="1" stop-color="white"/>
</linearGradient>
<linearGradient id="paint41_linear_53_1025" x1="350.093" y1="534.18" x2="227.925" y2="652.29" gradientUnits="userSpaceOnUse">
<stop stop-color="white"/>
<stop offset="1" stop-color="white"/>
</linearGradient>
<linearGradient id="paint42_linear_53_1025" x1="351.839" y1="531.394" x2="229.428" y2="645.7" gradientUnits="userSpaceOnUse">
<stop stop-color="white"/>
<stop offset="1" stop-color="white"/>
</linearGradient>
<linearGradient id="paint43_linear_53_1025" x1="353.536" y1="528.591" x2="230.978" y2="639.117" gradientUnits="userSpaceOnUse">
<stop stop-color="white"/>
<stop offset="1" stop-color="white"/>
</linearGradient>
<linearGradient id="paint44_linear_53_1025" x1="355.184" y1="525.774" x2="232.572" y2="632.55" gradientUnits="userSpaceOnUse">
<stop stop-color="white"/>
<stop offset="1" stop-color="white"/>
</linearGradient>
<linearGradient id="paint45_linear_53_1025" x1="356.783" y1="522.939" x2="234.21" y2="625.995" gradientUnits="userSpaceOnUse">
<stop stop-color="white"/>
<stop offset="1" stop-color="white"/>
</linearGradient>
<linearGradient id="paint46_linear_53_1025" x1="358.338" y1="520.086" x2="235.894" y2="619.454" gradientUnits="userSpaceOnUse">
<stop stop-color="white"/>
<stop offset="1" stop-color="white"/>
</linearGradient>
<linearGradient id="paint47_linear_53_1025" x1="359.844" y1="517.214" x2="237.619" y2="612.929" gradientUnits="userSpaceOnUse">
<stop stop-color="white"/>
<stop offset="1" stop-color="white"/>
</linearGradient>
<linearGradient id="paint48_linear_53_1025" x1="361.305" y1="514.321" x2="239.39" y2="606.418" gradientUnits="userSpaceOnUse">
<stop stop-color="white"/>
<stop offset="1" stop-color="white"/>
</linearGradient>
<linearGradient id="paint49_linear_53_1025" x1="362.72" y1="511.409" x2="241.203" y2="599.927" gradientUnits="userSpaceOnUse">
<stop stop-color="white"/>
<stop offset="1" stop-color="white"/>
</linearGradient>
<linearGradient id="paint50_linear_53_1025" x1="364.093" y1="508.474" x2="243.06" y2="593.453" gradientUnits="userSpaceOnUse">
<stop stop-color="white"/>
<stop offset="1" stop-color="white"/>
</linearGradient>
<linearGradient id="paint51_linear_53_1025" x1="365.42" y1="505.515" x2="244.958" y2="586.996" gradientUnits="userSpaceOnUse">
<stop stop-color="white"/>
<stop offset="1" stop-color="white"/>
</linearGradient>
<linearGradient id="paint52_linear_53_1025" x1="366.704" y1="502.532" x2="246.897" y2="580.56" gradientUnits="userSpaceOnUse">
<stop stop-color="white"/>
<stop offset="1" stop-color="white"/>
</linearGradient>
<linearGradient id="paint53_linear_53_1025" x1="367.947" y1="499.524" x2="248.88" y2="574.146" gradientUnits="userSpaceOnUse">
<stop stop-color="white"/>
<stop offset="1" stop-color="white"/>
</linearGradient>
<linearGradient id="paint54_linear_53_1025" x1="369.149" y1="496.492" x2="250.902" y2="567.755" gradientUnits="userSpaceOnUse">
<stop stop-color="white"/>
<stop offset="1" stop-color="white"/>
</linearGradient>
<linearGradient id="paint55_linear_53_1025" x1="370.308" y1="493.431" x2="252.964" y2="561.385" gradientUnits="userSpaceOnUse">
<stop stop-color="white"/>
<stop offset="1" stop-color="white"/>
</linearGradient>
<linearGradient id="paint56_linear_53_1025" x1="371.428" y1="490.342" x2="255.066" y2="555.039" gradientUnits="userSpaceOnUse">
<stop stop-color="white"/>
<stop offset="1" stop-color="white"/>
</linearGradient>
<linearGradient id="paint57_linear_53_1025" x1="372.508" y1="487.226" x2="257.206" y2="548.719" gradientUnits="userSpaceOnUse">
<stop stop-color="white"/>
<stop offset="1" stop-color="white"/>
</linearGradient>
<linearGradient id="paint58_linear_53_1025" x1="373.552" y1="484.08" x2="259.386" y2="542.424" gradientUnits="userSpaceOnUse">
<stop stop-color="white"/>
<stop offset="1" stop-color="white"/>
</linearGradient>
<linearGradient id="paint59_linear_53_1025" x1="374.559" y1="480.904" x2="261.605" y2="536.157" gradientUnits="userSpaceOnUse">
<stop stop-color="white"/>
<stop offset="1" stop-color="white"/>
</linearGradient>
<linearGradient id="paint60_linear_53_1025" x1="375.525" y1="477.696" x2="263.857" y2="529.917" gradientUnits="userSpaceOnUse">
<stop stop-color="white"/>
<stop offset="1" stop-color="white"/>
</linearGradient>
<linearGradient id="paint61_linear_53_1025" x1="376.46" y1="474.458" x2="266.149" y2="523.706" gradientUnits="userSpaceOnUse">
<stop stop-color="white"/>
<stop offset="1" stop-color="white"/>
</linearGradient>
<linearGradient id="paint62_linear_53_1025" x1="377.359" y1="471.187" x2="268.476" y2="517.525" gradientUnits="userSpaceOnUse">
<stop stop-color="white"/>
<stop offset="1" stop-color="white"/>
</linearGradient>
<linearGradient id="paint63_linear_53_1025" x1="378.225" y1="467.881" x2="270.838" y2="511.373" gradientUnits="userSpaceOnUse">
<stop stop-color="white"/>
<stop offset="1" stop-color="white"/>
</linearGradient>
<linearGradient id="paint64_linear_53_1025" x1="379.056" y1="464.543" x2="273.233" y2="505.254" gradientUnits="userSpaceOnUse">
<stop stop-color="white"/>
<stop offset="1" stop-color="white"/>
</linearGradient>
<linearGradient id="paint65_linear_53_1025" x1="379.856" y1="461.169" x2="275.661" y2="499.166" gradientUnits="userSpaceOnUse">
<stop stop-color="white"/>
<stop offset="1" stop-color="white"/>
</linearGradient>
<linearGradient id="paint66_linear_53_1025" x1="380.626" y1="457.76" x2="278.123" y2="493.111" gradientUnits="userSpaceOnUse">
<stop stop-color="white"/>
<stop offset="1" stop-color="white"/>
</linearGradient>
<linearGradient id="paint67_linear_53_1025" x1="381.366" y1="454.316" x2="280.616" y2="487.092" gradientUnits="userSpaceOnUse">
<stop stop-color="white"/>
<stop offset="1" stop-color="white"/>
</linearGradient>
<linearGradient id="paint68_linear_53_1025" x1="382.078" y1="450.834" x2="283.141" y2="481.106" gradientUnits="userSpaceOnUse">
<stop stop-color="white"/>
<stop offset="1" stop-color="white"/>
</linearGradient>
<linearGradient id="paint69_linear_53_1025" x1="382.76" y1="447.317" x2="285.693" y2="475.157" gradientUnits="userSpaceOnUse">
<stop stop-color="white"/>
<stop offset="1" stop-color="white"/>
</linearGradient>
<linearGradient id="paint70_linear_53_1025" x1="383.415" y1="443.762" x2="288.275" y2="469.244" gradientUnits="userSpaceOnUse">
<stop stop-color="white"/>
<stop offset="1" stop-color="white"/>
</linearGradient>
<linearGradient id="paint71_linear_53_1025" x1="384.046" y1="440.166" x2="290.886" y2="463.367" gradientUnits="userSpaceOnUse">
<stop stop-color="white"/>
<stop offset="1" stop-color="white"/>
</linearGradient>
<linearGradient id="paint72_linear_53_1025" x1="384.652" y1="436.533" x2="293.524" y2="457.529" gradientUnits="userSpaceOnUse">
<stop stop-color="white"/>
<stop offset="1" stop-color="white"/>
</linearGradient>
<linearGradient id="paint73_linear_53_1025" x1="385.234" y1="432.861" x2="296.188" y2="451.729" gradientUnits="userSpaceOnUse">
<stop stop-color="white"/>
<stop offset="1" stop-color="white"/>
</linearGradient>
<linearGradient id="paint74_linear_53_1025" x1="385.796" y1="429.148" x2="298.878" y2="445.968" gradientUnits="userSpaceOnUse">
<stop stop-color="white"/>
<stop offset="1" stop-color="white"/>
</linearGradient>
<linearGradient id="paint75_linear_53_1025" x1="386.331" y1="425.397" x2="301.588" y2="440.249" gradientUnits="userSpaceOnUse">
<stop stop-color="white"/>
<stop offset="1" stop-color="white"/>
</linearGradient>
<linearGradient id="paint76_linear_53_1025" x1="386.85" y1="421.604" x2="304.324" y2="434.569" gradientUnits="userSpaceOnUse">
<stop stop-color="white"/>
<stop offset="1" stop-color="white"/>
</linearGradient>
<linearGradient id="paint77_linear_53_1025" x1="387.347" y1="417.769" x2="307.08" y2="428.93" gradientUnits="userSpaceOnUse">
<stop stop-color="white"/>
<stop offset="1" stop-color="white"/>
</linearGradient>
<linearGradient id="paint78_linear_53_1025" x1="387.826" y1="413.893" x2="309.857" y2="423.333" gradientUnits="userSpaceOnUse">
<stop stop-color="white"/>
<stop offset="1" stop-color="white"/>
</linearGradient>
<linearGradient id="paint79_linear_53_1025" x1="388.291" y1="409.977" x2="312.656" y2="417.779" gradientUnits="userSpaceOnUse">
<stop stop-color="white"/>
<stop offset="1" stop-color="white"/>
</linearGradient>
<linearGradient id="paint80_linear_53_1025" x1="388.737" y1="406.019" x2="315.47" y2="412.269" gradientUnits="userSpaceOnUse">
<stop stop-color="white"/>
<stop offset="1" stop-color="white"/>
</linearGradient>
<linearGradient id="paint81_linear_53_1025" x1="389.169" y1="402.015" x2="318.302" y2="406.799" gradientUnits="userSpaceOnUse">
<stop stop-color="white"/>
<stop offset="1" stop-color="white"/>
</linearGradient>
<linearGradient id="paint82_linear_53_1025" x1="389.586" y1="397.972" x2="321.15" y2="401.376" gradientUnits="userSpaceOnUse">
<stop stop-color="white"/>
<stop offset="1" stop-color="white"/>
</linearGradient>
<linearGradient id="paint83_linear_53_1025" x1="389.991" y1="393.886" x2="324.012" y2="395.997" gradientUnits="userSpaceOnUse">
<stop stop-color="white"/>
<stop offset="1" stop-color="white"/>
</linearGradient>
<linearGradient id="paint84_linear_53_1025" x1="390.386" y1="389.755" x2="326.888" y2="390.661" gradientUnits="userSpaceOnUse">
<stop stop-color="white"/>
<stop offset="1" stop-color="white"/>
</linearGradient>
<linearGradient id="paint85_linear_53_1025" x1="390.772" y1="385.583" x2="329.779" y2="385.372" gradientUnits="userSpaceOnUse">
<stop stop-color="white"/>
<stop offset="1" stop-color="white"/>
</linearGradient>
<linearGradient id="paint86_linear_53_1025" x1="391.146" y1="381.365" x2="332.678" y2="380.126" gradientUnits="userSpaceOnUse">
<stop stop-color="white"/>
<stop offset="1" stop-color="white"/>
</linearGradient>
<linearGradient id="paint87_linear_53_1025" x1="391.512" y1="377.104" x2="335.586" y2="374.927" gradientUnits="userSpaceOnUse">
<stop stop-color="white"/>
<stop offset="1" stop-color="white"/>
</linearGradient>
<linearGradient id="paint88_linear_53_1025" x1="391.874" y1="372.802" x2="338.506" y2="369.776" gradientUnits="userSpaceOnUse">
<stop stop-color="white"/>
<stop offset="1" stop-color="white"/>
</linearGradient>
<linearGradient id="paint89_linear_53_1025" x1="392.227" y1="368.455" x2="341.428" y2="364.669" gradientUnits="userSpaceOnUse">
<stop stop-color="white"/>
<stop offset="1" stop-color="white"/>
</linearGradient>
<linearGradient id="paint90_linear_53_1025" x1="392.577" y1="364.062" x2="344.36" y2="359.608" gradientUnits="userSpaceOnUse">
<stop stop-color="white"/>
<stop offset="1" stop-color="white"/>
</linearGradient>
<linearGradient id="paint91_linear_53_1025" x1="392.924" y1="359.628" x2="347.294" y2="354.594" gradientUnits="userSpaceOnUse">
<stop stop-color="white"/>
<stop offset="1" stop-color="white"/>
</linearGradient>
<linearGradient id="paint92_linear_53_1025" x1="393.267" y1="355.149" x2="350.232" y2="349.627" gradientUnits="userSpaceOnUse">
<stop stop-color="white"/>
<stop offset="1" stop-color="white"/>
</linearGradient>
<linearGradient id="paint93_linear_53_1025" x1="393.611" y1="350.627" x2="353.173" y2="344.707" gradientUnits="userSpaceOnUse">
<stop stop-color="white"/>
<stop offset="1" stop-color="white"/>
</linearGradient>
<linearGradient id="paint94_linear_53_1025" x1="393.956" y1="346.06" x2="356.115" y2="339.832" gradientUnits="userSpaceOnUse">
<stop stop-color="white"/>
<stop offset="1" stop-color="white"/>
</linearGradient>
<linearGradient id="paint95_linear_53_1025" x1="394.299" y1="341.45" x2="359.054" y2="335.005" gradientUnits="userSpaceOnUse">
<stop stop-color="white"/>
<stop offset="1" stop-color="white"/>
</linearGradient>
<linearGradient id="paint96_linear_53_1025" x1="394.646" y1="336.796" x2="361.992" y2="330.224" gradientUnits="userSpaceOnUse">
<stop stop-color="white"/>
<stop offset="1" stop-color="white"/>
</linearGradient>
<linearGradient id="paint97_linear_53_1025" x1="394.997" y1="332.099" x2="364.927" y2="325.489" gradientUnits="userSpaceOnUse">
<stop stop-color="white"/>
<stop offset="1" stop-color="white"/>
</linearGradient>
<linearGradient id="paint98_linear_53_1025" x1="395.351" y1="327.359" x2="367.856" y2="320.801" gradientUnits="userSpaceOnUse">
<stop stop-color="white"/>
<stop offset="1" stop-color="white"/>
</linearGradient>
<clipPath id="clip0_53_1025">
<rect width="360" height="840" fill="white"/>
</clipPath>
</defs>
</svg>
