<svg width="40" height="40" viewBox="0 0 40 40" fill="none" xmlns="http://www.w3.org/2000/svg">
<path d="M33.0141 18.3333H6.18075C5.30629 18.3333 4.59741 19.0422 4.59741 19.9167V20.0833C4.59741 20.9578 5.30629 21.6667 6.18075 21.6667H33.0141C33.8885 21.6667 34.5974 20.9578 34.5974 20.0833V19.9167C34.5974 19.0422 33.8885 18.3333 33.0141 18.3333Z" fill="#1F2937"/>
<path d="M33.0141 26.6667H6.18075C5.30629 26.6667 4.59741 27.3755 4.59741 28.25V28.4167C4.59741 29.2911 5.30629 30 6.18075 30H33.0141C33.8885 30 34.5974 29.2911 34.5974 28.4167V28.25C34.5974 27.3755 33.8885 26.6667 33.0141 26.6667Z" fill="#1F2937"/>
<path d="M33.0141 10H6.18075C5.30629 10 4.59741 10.7089 4.59741 11.5833V11.75C4.59741 12.6245 5.30629 13.3333 6.18075 13.3333H33.0141C33.8885 13.3333 34.5974 12.6245 34.5974 11.75V11.5833C34.5974 10.7089 33.8885 10 33.0141 10Z" fill="#1F2937"/>
</svg>
