<svg width="562" height="194" viewBox="0 0 562 194" fill="none" xmlns="http://www.w3.org/2000/svg">
<g clip-path="url(#clip0_8_859)">
<rect width="562" height="194" rx="20" fill="#D8EDF4"/>
<rect opacity="0.5" x="-26" y="-20" width="611" height="234" fill="url(#paint0_linear_8_859)"/>
<g opacity="0.5">
<path opacity="0.010101" d="M449.295 196.988L301.803 -58.4766L154.31 196.988H449.295Z" stroke="white" stroke-width="5.03676"/>
<path opacity="0.020202" d="M450.981 196.246L304.775 -56.9901L158.569 196.246H450.981Z" stroke="white" stroke-width="5.03676"/>
<path opacity="0.030303" d="M452.666 195.501L307.748 -55.5057L162.829 195.501H452.666Z" stroke="white" stroke-width="5.03676"/>
<path opacity="0.040404" d="M454.35 194.758L310.718 -54.0192L167.086 194.758H454.35Z" stroke="white" stroke-width="5.03676"/>
<path opacity="0.050505" d="M456.036 194.016L313.691 -52.5326L171.346 194.016H456.036Z" stroke="white" stroke-width="5.03676"/>
<path opacity="0.0606061" d="M457.721 193.275L316.663 -51.0448L175.605 193.275H457.721Z" stroke="white" stroke-width="5.03676"/>
<path opacity="0.0707071" d="M459.408 192.528L319.637 -49.5628L179.866 192.528H459.408Z" stroke="white" stroke-width="5.03676"/>
<path opacity="0.0808081" d="M461.089 191.785L322.605 -48.0762L184.121 191.785H461.089Z" stroke="white" stroke-width="5.03676"/>
<path opacity="0.0909091" d="M462.775 191.043L325.577 -46.5897L188.38 191.043H462.775Z" stroke="white" stroke-width="5.03676"/>
<path opacity="0.10101" d="M464.46 190.302L328.55 -45.1019L192.64 190.302H464.46Z" stroke="white" stroke-width="5.03676"/>
<path opacity="0.111111" d="M466.144 189.556L331.52 -43.6188L196.897 189.556H466.144Z" stroke="white" stroke-width="5.03676"/>
<path opacity="0.121212" d="M467.83 188.815L334.493 -42.1311L201.156 188.815H467.83Z" stroke="white" stroke-width="5.03676"/>
<path opacity="0.131313" d="M469.515 188.072L337.465 -40.6444L205.416 188.072H469.515Z" stroke="white" stroke-width="5.03676"/>
<path opacity="0.141414" d="M471.202 187.33L340.439 -39.1578L209.676 187.33H471.202Z" stroke="white" stroke-width="5.03676"/>
<path opacity="0.151515" d="M472.888 186.585L343.412 -37.6736L213.936 186.585H472.888Z" stroke="white" stroke-width="5.03676"/>
<path opacity="0.161616" d="M474.573 185.843L346.384 -36.187L218.195 185.843H474.573Z" stroke="white" stroke-width="5.03676"/>
<path opacity="0.171717" d="M476.259 185.101L349.357 -34.7004L222.455 185.101H476.259Z" stroke="white" stroke-width="5.03676"/>
<path opacity="0.181818" d="M477.942 184.356L352.327 -33.2161L226.712 184.356H477.942Z" stroke="white" stroke-width="5.03676"/>
<path opacity="0.191919" d="M479.628 183.612L355.3 -31.7306L230.971 183.612H479.628Z" stroke="white" stroke-width="5.03676"/>
<path opacity="0.20202" d="M481.313 182.87L358.271 -30.2441L235.23 182.87H481.313Z" stroke="white" stroke-width="5.03676"/>
<path opacity="0.212121" d="M482.996 182.128L361.241 -28.7575L239.487 182.128H482.996Z" stroke="white" stroke-width="5.03676"/>
<path opacity="0.222222" d="M484.682 181.383L364.214 -27.2732L243.746 181.383H484.682Z" stroke="white" stroke-width="5.03676"/>
<path opacity="0.232323" d="M486.367 180.64L367.187 -25.7866L248.006 180.64H486.367Z" stroke="white" stroke-width="5.03676"/>
<path opacity="0.242424" d="M488.051 179.898L370.157 -24.3L252.263 179.898H488.051Z" stroke="white" stroke-width="5.03676"/>
<path opacity="0.252525" d="M489.736 179.153L373.129 -22.8157L256.523 179.153H489.736Z" stroke="white" stroke-width="5.03676"/>
<path opacity="0.262626" d="M491.422 178.411L376.102 -21.3291L260.782 178.411H491.422Z" stroke="white" stroke-width="5.03676"/>
<path opacity="0.272727" d="M493.108 177.669L379.075 -19.8425L265.042 177.669H493.108Z" stroke="white" stroke-width="5.03676"/>
<path opacity="0.282828" d="M494.795 176.926L382.048 -18.3559L269.302 176.926H494.795Z" stroke="white" stroke-width="5.03676"/>
<path opacity="0.292929" d="M496.477 176.185L385.018 -16.8682L273.558 176.185H496.477Z" stroke="white" stroke-width="5.03676"/>
<path opacity="0.30303" d="M498.164 175.443L387.991 -15.3816L277.819 175.443H498.164Z" stroke="white" stroke-width="5.03676"/>
<path opacity="0.313131" d="M499.849 174.696L390.964 -13.8996L282.078 174.696H499.849Z" stroke="white" stroke-width="5.03676"/>
<path opacity="0.323232" d="M501.534 173.953L393.935 -12.413L286.337 173.953H501.534Z" stroke="white" stroke-width="5.03676"/>
<path opacity="0.333333" d="M503.216 173.212L396.904 -10.9253L290.593 173.212H503.216Z" stroke="white" stroke-width="5.03676"/>
<path opacity="0.343434" d="M504.903 172.47L399.878 -9.43867L294.853 172.47H504.903Z" stroke="white" stroke-width="5.03676"/>
<path opacity="0.353535" d="M506.589 171.725L402.851 -7.9544L299.113 171.725H506.589Z" stroke="white" stroke-width="5.03676"/>
<path opacity="0.363636" d="M508.274 170.982L405.823 -6.46779L303.372 170.982H508.274Z" stroke="white" stroke-width="5.03676"/>
<path opacity="0.373737" d="M509.96 170.24L408.796 -4.98122L307.632 170.24H509.96Z" stroke="white" stroke-width="5.03676"/>
<path opacity="0.383838" d="M511.643 169.498L411.766 -3.49462L311.889 169.498H511.643Z" stroke="white" stroke-width="5.03676"/>
<path opacity="0.393939" d="M513.329 168.755L414.739 -2.00805L316.148 168.755H513.329Z" stroke="white" stroke-width="5.03676"/>
<path opacity="0.40404" d="M515.015 168.011L417.711 -0.523733L320.408 168.011H515.015Z" stroke="white" stroke-width="5.03676"/>
<path opacity="0.414141" d="M516.698 167.268L420.682 0.962839L324.665 167.268H516.698Z" stroke="white" stroke-width="5.03676"/>
<path opacity="0.424242" d="M518.384 166.526L423.654 2.44944L328.925 166.526H518.384Z" stroke="white" stroke-width="5.03676"/>
<path opacity="0.434343" d="M520.069 165.78L426.627 3.9326L333.184 165.78H520.069Z" stroke="white" stroke-width="5.03676"/>
<path opacity="0.444444" d="M521.754 165.038L429.598 5.4192L337.442 165.038H521.754Z" stroke="white" stroke-width="5.03676"/>
<path opacity="0.454545" d="M523.437 164.295L432.568 6.90577L341.7 164.295H523.437Z" stroke="white" stroke-width="5.03676"/>
<path opacity="0.464646" d="M525.123 163.553L435.541 8.39237L345.959 163.553H525.123Z" stroke="white" stroke-width="5.03676"/>
<path opacity="0.474747" d="M526.809 162.812L438.514 9.88011L350.219 162.812H526.809Z" stroke="white" stroke-width="5.03676"/>
<path opacity="0.484848" d="M528.492 162.066L441.484 11.3633L354.476 162.066H528.492Z" stroke="white" stroke-width="5.03676"/>
<path opacity="0.494949" d="M530.178 161.323L444.456 12.8498L358.735 161.323H530.178Z" stroke="white" stroke-width="5.03676"/>
<path opacity="0.50505" d="M531.863 160.582L447.429 14.3376L362.995 160.582H531.863Z" stroke="white" stroke-width="5.03676"/>
<path opacity="0.515152" d="M533.55 159.84L450.403 15.8242L367.255 159.84H533.55Z" stroke="white" stroke-width="5.03676"/>
<path opacity="0.525253" d="M535.232 159.095L453.372 17.3085L371.511 159.095H535.232Z" stroke="white" stroke-width="5.03676"/>
<path opacity="0.535354" d="M536.919 158.353L456.346 18.7951L375.772 158.353H536.919Z" stroke="white" stroke-width="5.03676"/>
<path opacity="0.545455" d="M538.605 157.61L459.318 20.2816L380.031 157.61H538.605Z" stroke="white" stroke-width="5.03676"/>
<path opacity="0.555556" d="M540.291 156.866L462.291 21.7659L384.291 156.866H540.291Z" stroke="white" stroke-width="5.03676"/>
<path opacity="0.565657" d="M541.976 156.122L465.263 23.2514L388.55 156.122H541.976Z" stroke="white" stroke-width="5.03676"/>
<path opacity="0.575758" d="M543.658 155.38L468.232 24.738L392.806 155.38H543.658Z" stroke="white" stroke-width="5.03676"/>
<path opacity="0.585859" d="M545.344 154.637L471.205 26.2246L397.066 154.637H545.344Z" stroke="white" stroke-width="5.03676"/>
<path opacity="0.59596" d="M547.03 153.893L474.178 27.7089L401.325 153.893H547.03Z" stroke="white" stroke-width="5.03676"/>
<path opacity="0.606061" d="M548.713 153.15L477.148 29.1954L405.583 153.15H548.713Z" stroke="white" stroke-width="5.03676"/>
<path opacity="0.616162" d="M550.399 152.408L480.12 30.682L409.842 152.408H550.399Z" stroke="white" stroke-width="5.03676"/>
<path opacity="0.626263" d="M552.085 151.663L483.093 32.1663L414.102 151.663H552.085Z" stroke="white" stroke-width="5.03676"/>
<path opacity="0.636364" d="M553.77 150.921L486.066 33.6529L418.361 150.921H553.77Z" stroke="white" stroke-width="5.03676"/>
<path opacity="0.646465" d="M555.456 150.178L489.038 35.1395L422.621 150.178H555.456Z" stroke="white" stroke-width="5.03676"/>
<path opacity="0.656566" d="M557.139 149.436L492.008 36.6261L426.878 149.436H557.139Z" stroke="white" stroke-width="5.03676"/>
<path opacity="0.666667" d="M558.825 148.695L494.981 38.1138L431.137 148.695H558.825Z" stroke="white" stroke-width="5.03676"/>
<path opacity="0.676768" d="M560.511 147.949L497.954 39.597L435.397 147.949H560.511Z" stroke="white" stroke-width="5.03676"/>
<path opacity="0.686869" d="M562.197 147.205L500.927 41.0824L439.657 147.205H562.197Z" stroke="white" stroke-width="5.03676"/>
<path opacity="0.69697" d="M563.879 146.463L503.895 42.569L443.912 146.463H563.879Z" stroke="white" stroke-width="5.03676"/>
<path opacity="0.707071" d="M565.564 145.722L506.868 44.0568L448.172 145.722H565.564Z" stroke="white" stroke-width="5.03676"/>
<path opacity="0.717172" d="M567.251 144.976L509.842 45.5399L452.432 144.976H567.251Z" stroke="white" stroke-width="5.03676"/>
<path opacity="0.727273" d="M568.937 144.233L512.814 47.0265L456.692 144.233H568.937Z" stroke="white" stroke-width="5.03676"/>
<path opacity="0.737374" d="M570.619 143.492L515.783 48.5142L460.948 143.492H570.619Z" stroke="white" stroke-width="5.03676"/>
<path opacity="0.747475" d="M572.306 142.75L518.757 50.0008L465.208 142.75H572.306Z" stroke="white" stroke-width="5.03676"/>
<path opacity="0.757576" d="M573.991 142.007L521.73 51.4874L469.468 142.007H573.991Z" stroke="white" stroke-width="5.03676"/>
<path opacity="0.767677" d="M575.677 141.263L524.702 52.9717L473.727 141.263H575.677Z" stroke="white" stroke-width="5.03676"/>
<path opacity="0.777778" d="M577.363 140.52L527.675 54.4583L477.987 140.52H577.363Z" stroke="white" stroke-width="5.03676"/>
<path opacity="0.787879" d="M579.046 139.778L530.645 55.9449L482.244 139.778H579.046Z" stroke="white" stroke-width="5.03676"/>
<path opacity="0.79798" d="M580.732 139.033L533.618 57.4292L486.504 139.033H580.732Z" stroke="white" stroke-width="5.03676"/>
<path opacity="0.808081" d="M582.418 138.29L536.59 58.9146L490.763 138.29H582.418Z" stroke="white" stroke-width="5.03676"/>
<path opacity="0.818182" d="M584.102 137.547L539.562 60.4012L495.021 137.547H584.102Z" stroke="white" stroke-width="5.03676"/>
<path opacity="0.828283" d="M585.785 136.803L542.532 61.8855L499.279 136.803H585.785Z" stroke="white" stroke-width="5.03676"/>
<path opacity="0.838384" d="M587.471 136.06L545.505 63.3721L503.538 136.06H587.471Z" stroke="white" stroke-width="5.03676"/>
<path opacity="0.848485" d="M589.157 135.318L548.477 64.8587L507.797 135.318H589.157Z" stroke="white" stroke-width="5.03676"/>
<path opacity="0.858586" d="M590.84 134.576L551.447 66.3453L512.055 134.576H590.84Z" stroke="white" stroke-width="5.03676"/>
<path opacity="0.868687" d="M592.526 133.833L554.42 67.8319L516.314 133.833H592.526Z" stroke="white" stroke-width="5.03676"/>
<path opacity="0.878788" d="M594.212 133.092L557.393 69.3196L520.574 133.092H594.212Z" stroke="white" stroke-width="5.03676"/>
<path opacity="0.888889" d="M595.898 132.349L560.366 70.8062L524.834 132.349H595.898Z" stroke="white" stroke-width="5.03676"/>
<path opacity="0.89899" d="M597.581 131.605L563.335 72.2905L529.09 131.605H597.581Z" stroke="white" stroke-width="5.03676"/>
<path opacity="0.909091" d="M599.266 130.862L566.308 73.7771L533.35 130.862H599.266Z" stroke="white" stroke-width="5.03676"/>
<path opacity="0.919192" d="M600.953 130.12L569.282 75.2637L537.61 130.12H600.953Z" stroke="white" stroke-width="5.03676"/>
<path opacity="0.929293" d="M602.639 129.373L572.254 76.7457L541.87 129.373H602.639Z" stroke="white" stroke-width="5.03676"/>
<path opacity="0.939394" d="M604.32 128.632L575.222 78.2334L546.125 128.632H604.32Z" stroke="white" stroke-width="5.03676"/>
<path opacity="0.949495" d="M606.007 127.889L578.196 79.72L550.385 127.889H606.007Z" stroke="white" stroke-width="5.03676"/>
<path opacity="0.959596" d="M607.692 127.147L581.169 81.2066L554.645 127.147H607.692Z" stroke="white" stroke-width="5.03676"/>
<path opacity="0.969697" d="M609.378 126.402L584.141 82.6909L558.904 126.402H609.378Z" stroke="white" stroke-width="5.03676"/>
<path opacity="0.979798" d="M611.061 125.66L587.111 84.1775L563.162 125.66H611.061Z" stroke="white" stroke-width="5.03676"/>
</g>
</g>
<defs>
<linearGradient id="paint0_linear_8_859" x1="2.33269" y1="-112.741" x2="625.106" y2="404.26" gradientUnits="userSpaceOnUse">
<stop stop-color="#19C5EF"/>
<stop offset="0.489583" stop-color="#7FBBED"/>
<stop offset="0.963542" stop-color="#E3AAEB"/>
</linearGradient>
<clipPath id="clip0_8_859">
<rect width="562" height="194" rx="20" fill="white"/>
</clipPath>
</defs>
</svg>
