<svg width="312" height="194" viewBox="0 0 312 194" fill="none" xmlns="http://www.w3.org/2000/svg">
<g clip-path="url(#clip0_57_194)">
<rect width="312" height="194" rx="20" fill="#D8EDF4"/>
<rect opacity="0.5" x="-26" y="-20" width="611" height="234" fill="url(#paint0_linear_57_194)"/>
<g opacity="0.5">
<path opacity="0.010101" d="M264.526 187.562L145.773 -18.1235L27.0207 187.562H264.526Z" stroke="white" stroke-width="5.03676"/>
<path opacity="0.020202" d="M265.893 186.961L148.183 -16.9177L30.4741 186.961H265.893Z" stroke="white" stroke-width="5.03676"/>
<path opacity="0.030303" d="M267.259 186.357L150.593 -15.7146L33.9274 186.357H267.259Z" stroke="white" stroke-width="5.03676"/>
<path opacity="0.040404" d="M268.624 185.755L153.002 -14.5096L37.3789 185.755H268.624Z" stroke="white" stroke-width="5.03676"/>
<path opacity="0.050505" d="M269.991 185.154L155.411 -13.3037L40.8322 185.154H269.991Z" stroke="white" stroke-width="5.03676"/>
<path opacity="0.0606061" d="M271.358 184.552L157.822 -12.0979L44.2856 184.552H271.358Z" stroke="white" stroke-width="5.03676"/>
<path opacity="0.0707071" d="M272.725 183.946L160.232 -10.8966L47.7399 183.946H272.725Z" stroke="white" stroke-width="5.03676"/>
<path opacity="0.0808081" d="M274.088 183.344L162.639 -9.69163L51.1894 183.344H274.088Z" stroke="white" stroke-width="5.03676"/>
<path opacity="0.0909091" d="M275.455 182.743L165.049 -8.4857L54.6428 182.743H275.455Z" stroke="white" stroke-width="5.03676"/>
<path opacity="0.10101" d="M276.821 182.142L167.459 -7.27988L58.0961 182.142H276.821Z" stroke="white" stroke-width="5.03676"/>
<path opacity="0.111111" d="M278.186 181.538L169.867 -6.07677L61.5476 181.538H278.186Z" stroke="white" stroke-width="5.03676"/>
<path opacity="0.121212" d="M279.553 180.936L172.277 -4.87096L65.0009 180.936H279.553Z" stroke="white" stroke-width="5.03676"/>
<path opacity="0.131313" d="M280.919 180.334L174.687 -3.66601L68.4543 180.334H280.919Z" stroke="white" stroke-width="5.03676"/>
<path opacity="0.141414" d="M282.287 179.733L177.098 -2.46007L71.9086 179.733H282.287Z" stroke="white" stroke-width="5.03676"/>
<path opacity="0.151515" d="M283.654 179.129L179.508 -1.25695L75.3618 179.129H283.654Z" stroke="white" stroke-width="5.03676"/>
<path opacity="0.161616" d="M285.02 178.527L181.918 -0.0519924L78.8152 178.527H285.02Z" stroke="white" stroke-width="5.03676"/>
<path opacity="0.171717" d="M286.387 177.925L184.328 1.15296L82.2685 177.925H286.387Z" stroke="white" stroke-width="5.03676"/>
<path opacity="0.181818" d="M287.752 177.321L186.736 2.35609L85.72 177.321H287.752Z" stroke="white" stroke-width="5.03676"/>
<path opacity="0.191919" d="M289.118 176.718L189.146 3.56104L89.1733 176.718H289.118Z" stroke="white" stroke-width="5.03676"/>
<path opacity="0.20202" d="M290.484 176.116L191.555 4.766L92.6258 176.116H290.484Z" stroke="white" stroke-width="5.03676"/>
<path opacity="0.212121" d="M291.849 175.515L193.963 5.97181L96.0772 175.515H291.849Z" stroke="white" stroke-width="5.03676"/>
<path opacity="0.222222" d="M293.215 174.911L196.373 7.17494L99.5305 174.911H293.215Z" stroke="white" stroke-width="5.03676"/>
<path opacity="0.232323" d="M294.582 174.309L198.783 8.37989L102.984 174.309H294.582Z" stroke="white" stroke-width="5.03676"/>
<path opacity="0.242424" d="M295.947 173.707L201.191 9.58485L106.435 173.707H295.947Z" stroke="white" stroke-width="5.03676"/>
<path opacity="0.252525" d="M297.314 173.104L203.601 10.7889L109.889 173.104H297.314Z" stroke="white" stroke-width="5.03676"/>
<path opacity="0.262626" d="M298.68 172.501L206.011 11.9938L113.342 172.501H298.68Z" stroke="white" stroke-width="5.03676"/>
<path opacity="0.272727" d="M300.047 171.9L208.421 13.1997L116.795 171.9H300.047Z" stroke="white" stroke-width="5.03676"/>
<path opacity="0.282828" d="M301.414 171.298L210.832 14.4047L120.25 171.298H301.414Z" stroke="white" stroke-width="5.03676"/>
<path opacity="0.292929" d="M302.778 170.697L213.239 15.6105L123.7 170.697H302.778Z" stroke="white" stroke-width="5.03676"/>
<path opacity="0.30303" d="M304.146 170.095L215.65 16.8163L127.154 170.095H304.146Z" stroke="white" stroke-width="5.03676"/>
<path opacity="0.313131" d="M305.512 169.489L218.06 18.0167L130.608 169.489H305.512Z" stroke="white" stroke-width="5.03676"/>
<path opacity="0.323232" d="M306.878 168.886L220.469 19.2217L134.06 168.886H306.878Z" stroke="white" stroke-width="5.03676"/>
<path opacity="0.333333" d="M308.242 168.286L222.876 20.4285L137.511 168.286H308.242Z" stroke="white" stroke-width="5.03676"/>
<path opacity="0.343434" d="M309.61 167.684L225.287 21.6334L140.965 167.684H309.61Z" stroke="white" stroke-width="5.03676"/>
<path opacity="0.353535" d="M310.976 167.081L227.697 22.8374L144.418 167.081H310.976Z" stroke="white" stroke-width="5.03676"/>
<path opacity="0.363636" d="M312.343 166.479L230.107 24.0424L147.872 166.479H312.343Z" stroke="white" stroke-width="5.03676"/>
<path opacity="0.373737" d="M313.71 165.877L232.517 25.2483L151.325 165.877H313.71Z" stroke="white" stroke-width="5.03676"/>
<path opacity="0.383838" d="M315.074 165.275L234.925 26.4533L154.776 165.275H315.074Z" stroke="white" stroke-width="5.03676"/>
<path opacity="0.393939" d="M316.441 164.673L237.335 27.6582L158.23 164.673H316.441Z" stroke="white" stroke-width="5.03676"/>
<path opacity="0.40404" d="M317.808 164.069L239.745 28.8613L161.683 164.069H317.808Z" stroke="white" stroke-width="5.03676"/>
<path opacity="0.414141" d="M319.172 163.467L242.153 30.0663L165.135 163.467H319.172Z" stroke="white" stroke-width="5.03676"/>
<path opacity="0.424242" d="M320.539 162.866L244.563 31.2721L168.588 162.866H320.539Z" stroke="white" stroke-width="5.03676"/>
<path opacity="0.434343" d="M321.906 162.261L246.974 32.4744L172.041 162.261H321.906Z" stroke="white" stroke-width="5.03676"/>
<path opacity="0.444444" d="M323.271 161.659L249.382 33.6802L175.494 161.659H323.271Z" stroke="white" stroke-width="5.03676"/>
<path opacity="0.454545" d="M324.636 161.057L251.791 34.8851L178.945 161.057H324.636Z" stroke="white" stroke-width="5.03676"/>
<path opacity="0.464646" d="M326.003 160.455L254.201 36.0901L182.398 160.455H326.003Z" stroke="white" stroke-width="5.03676"/>
<path opacity="0.474747" d="M327.369 159.855L256.611 37.2969L185.852 159.855H327.369Z" stroke="white" stroke-width="5.03676"/>
<path opacity="0.484848" d="M328.734 159.249L259.019 38.4982L189.303 159.249H328.734Z" stroke="white" stroke-width="5.03676"/>
<path opacity="0.494949" d="M330.101 158.648L261.429 39.704L192.757 158.648H330.101Z" stroke="white" stroke-width="5.03676"/>
<path opacity="0.50505" d="M331.468 158.046L263.839 40.9099L196.21 158.046H331.468Z" stroke="white" stroke-width="5.03676"/>
<path opacity="0.515152" d="M332.835 157.444L266.25 42.1149L199.664 157.444H332.835Z" stroke="white" stroke-width="5.03676"/>
<path opacity="0.525253" d="M334.199 156.841L268.657 43.3189L203.115 156.841H334.199Z" stroke="white" stroke-width="5.03676"/>
<path opacity="0.535354" d="M335.567 156.239L271.068 44.5238L206.569 156.239H335.567Z" stroke="white" stroke-width="5.03676"/>
<path opacity="0.545455" d="M336.933 155.638L273.478 45.7296L210.022 155.638H336.933Z" stroke="white" stroke-width="5.03676"/>
<path opacity="0.555556" d="M338.3 155.034L275.888 46.9327L213.476 155.034H338.3Z" stroke="white" stroke-width="5.03676"/>
<path opacity="0.565657" d="M339.666 154.431L278.298 48.1369L216.929 154.431H339.666Z" stroke="white" stroke-width="5.03676"/>
<path opacity="0.575758" d="M341.03 153.828L280.705 49.3418L220.38 153.828H341.03Z" stroke="white" stroke-width="5.03676"/>
<path opacity="0.585859" d="M342.397 153.227L283.115 50.5476L223.833 153.227H342.397Z" stroke="white" stroke-width="5.03676"/>
<path opacity="0.59596" d="M343.764 152.623L285.525 51.7507L227.286 152.623H343.764Z" stroke="white" stroke-width="5.03676"/>
<path opacity="0.606061" d="M345.128 152.022L287.933 52.9567L230.738 152.022H345.128Z" stroke="white" stroke-width="5.03676"/>
<path opacity="0.616162" d="M346.495 151.42L290.343 54.1616L234.191 151.42H346.495Z" stroke="white" stroke-width="5.03676"/>
<path opacity="0.626263" d="M347.862 150.816L292.753 55.3648L237.644 150.816H347.862Z" stroke="white" stroke-width="5.03676"/>
<path opacity="0.636364" d="M349.228 150.214L295.163 56.5697L241.098 150.214H349.228Z" stroke="white" stroke-width="5.03676"/>
<path opacity="0.646465" d="M350.595 149.611L297.573 57.7747L244.551 149.611H350.595Z" stroke="white" stroke-width="5.03676"/>
<path opacity="0.656566" d="M351.96 149.01L299.981 58.9805L248.003 149.01H351.96Z" stroke="white" stroke-width="5.03676"/>
<path opacity="0.666667" d="M353.326 148.409L302.391 60.1863L251.456 148.409H353.326Z" stroke="white" stroke-width="5.03676"/>
<path opacity="0.676768" d="M354.693 147.805L304.801 61.3895L254.909 147.805H354.693Z" stroke="white" stroke-width="5.03676"/>
<path opacity="0.686869" d="M356.061 147.202L307.212 62.5935L258.363 147.202H356.061Z" stroke="white" stroke-width="5.03676"/>
<path opacity="0.69697" d="M357.424 146.6L309.618 63.7985L261.813 146.6H357.424Z" stroke="white" stroke-width="5.03676"/>
<path opacity="0.707071" d="M358.79 145.998L312.028 65.0043L265.266 145.998H358.79Z" stroke="white" stroke-width="5.03676"/>
<path opacity="0.717172" d="M360.158 145.394L314.439 66.2074L268.721 145.394H360.158Z" stroke="white" stroke-width="5.03676"/>
<path opacity="0.727273" d="M361.524 144.793L316.849 67.4133L272.174 144.793H361.524Z" stroke="white" stroke-width="5.03676"/>
<path opacity="0.737374" d="M362.888 144.191L319.256 68.6183L275.625 144.191H362.888Z" stroke="white" stroke-width="5.03676"/>
<path opacity="0.747475" d="M364.256 143.59L321.667 69.8241L279.079 143.59H364.256Z" stroke="white" stroke-width="5.03676"/>
<path opacity="0.757576" d="M365.622 142.987L324.077 71.0291L282.532 142.987H365.622Z" stroke="white" stroke-width="5.03676"/>
<path opacity="0.767677" d="M366.989 142.383L326.487 72.2322L285.986 142.383H366.989Z" stroke="white" stroke-width="5.03676"/>
<path opacity="0.777778" d="M368.356 141.782L328.897 73.438L289.439 141.782H368.356Z" stroke="white" stroke-width="5.03676"/>
<path opacity="0.787879" d="M369.721 141.18L331.305 74.643L292.89 141.18H369.721Z" stroke="white" stroke-width="5.03676"/>
<path opacity="0.79798" d="M371.087 140.576L333.715 75.8461L296.344 140.576H371.087Z" stroke="white" stroke-width="5.03676"/>
<path opacity="0.808081" d="M372.454 139.974L336.125 77.051L299.797 139.974H372.454Z" stroke="white" stroke-width="5.03676"/>
<path opacity="0.818182" d="M373.82 139.372L338.534 78.256L303.249 139.372H373.82Z" stroke="white" stroke-width="5.03676"/>
<path opacity="0.828283" d="M375.184 138.768L340.943 79.4591L306.701 138.768H375.184Z" stroke="white" stroke-width="5.03676"/>
<path opacity="0.838384" d="M376.551 138.165L343.353 80.6641L310.154 138.165H376.551Z" stroke="white" stroke-width="5.03676"/>
<path opacity="0.848485" d="M377.918 137.564L345.763 81.87L313.607 137.564H377.918Z" stroke="white" stroke-width="5.03676"/>
</g>
</g>
<defs>
<linearGradient id="paint0_linear_57_194" x1="2.33269" y1="-112.741" x2="625.106" y2="404.26" gradientUnits="userSpaceOnUse">
<stop stop-color="#19C5EF"/>
<stop offset="0.489583" stop-color="#7FBBED"/>
<stop offset="0.963542" stop-color="#E3AAEB"/>
</linearGradient>
<clipPath id="clip0_57_194">
<rect width="312" height="194" rx="20" fill="white"/>
</clipPath>
</defs>
</svg>
