<svg width="1241" height="264" viewBox="0 0 1241 264" fill="none" xmlns="http://www.w3.org/2000/svg">
<g clip-path="url(#clip0_8_966)">
<rect width="1241" height="264" rx="27.2143" fill="#D8EDF4"/>
<rect opacity="0.5" x="-35" y="-27" width="1308" height="318" fill="url(#paint0_linear_8_966)"/>
<g opacity="0.5">
<path opacity="0.010101" d="M1094.97 261.49L836.315 -87.2254L577.665 261.49H1094.97Z" stroke="url(#paint1_linear_8_966)" stroke-width="6.85359"/>
<path opacity="0.020202" d="M1097.91 260.481L841.512 -85.2019L585.111 260.481H1097.91Z" stroke="url(#paint2_linear_8_966)" stroke-width="6.85359"/>
<path opacity="0.030303" d="M1100.86 259.466L846.708 -83.1834L592.557 259.466H1100.86Z" stroke="url(#paint3_linear_8_966)" stroke-width="6.85359"/>
<path opacity="0.040404" d="M1103.8 258.457L851.9 -81.1594L599.999 258.457H1103.8Z" stroke="url(#paint4_linear_8_966)" stroke-width="6.85359"/>
<path opacity="0.050505" d="M1106.75 257.447L857.098 -79.137L607.446 257.447H1106.75Z" stroke="url(#paint5_linear_8_966)" stroke-width="6.85359"/>
<path opacity="0.0606061" d="M1109.7 256.438L862.294 -77.1131L614.891 256.438H1109.7Z" stroke="url(#paint6_linear_8_966)" stroke-width="6.85359"/>
<path opacity="0.0707071" d="M1112.64 255.422L867.492 -75.096L622.339 255.422H1112.64Z" stroke="url(#paint7_linear_8_966)" stroke-width="6.85359"/>
<path opacity="0.0808081" d="M1115.58 254.411L872.68 -73.0735L629.777 254.411H1115.58Z" stroke="url(#paint8_linear_8_966)" stroke-width="6.85359"/>
<path opacity="0.0909091" d="M1118.53 253.402L877.877 -71.0496L637.224 253.402H1118.53Z" stroke="url(#paint9_linear_8_966)" stroke-width="6.85359"/>
<path opacity="0.10101" d="M1121.48 252.393L883.073 -69.0261L644.669 252.393H1121.48Z" stroke="url(#paint10_linear_8_966)" stroke-width="6.85359"/>
<path opacity="0.111111" d="M1124.42 251.378L888.266 -67.0076L652.112 251.378H1124.42Z" stroke="url(#paint11_linear_8_966)" stroke-width="6.85359"/>
<path opacity="0.121212" d="M1127.37 250.368L893.462 -64.9841L659.558 250.368H1127.37Z" stroke="url(#paint12_linear_8_966)" stroke-width="6.85359"/>
<path opacity="0.131313" d="M1130.31 249.358L898.658 -62.9617L667.004 249.358H1130.31Z" stroke="url(#paint13_linear_8_966)" stroke-width="6.85359"/>
<path opacity="0.141414" d="M1133.26 248.349L903.857 -60.9373L674.452 248.349H1133.26Z" stroke="url(#paint14_linear_8_966)" stroke-width="6.85359"/>
<path opacity="0.151515" d="M1136.21 247.336L909.053 -58.9177L681.898 247.336H1136.21Z" stroke="url(#paint15_linear_8_966)" stroke-width="6.85359"/>
<path opacity="0.161616" d="M1139.15 246.325L914.249 -56.8953L689.343 246.325H1139.15Z" stroke="url(#paint16_linear_8_966)" stroke-width="6.85359"/>
<path opacity="0.171717" d="M1142.1 245.315L919.446 -54.8728L696.79 245.315H1142.1Z" stroke="url(#paint17_linear_8_966)" stroke-width="6.85359"/>
<path opacity="0.181818" d="M1145.04 244.301L924.638 -52.8533L704.232 244.301H1145.04Z" stroke="url(#paint18_linear_8_966)" stroke-width="6.85359"/>
<path opacity="0.191919" d="M1147.99 243.29L929.834 -50.8318L711.678 243.29H1147.99Z" stroke="url(#paint19_linear_8_966)" stroke-width="6.85359"/>
<path opacity="0.20202" d="M1150.94 242.279L935.029 -48.8093L719.122 242.279H1150.94Z" stroke="url(#paint20_linear_8_966)" stroke-width="6.85359"/>
<path opacity="0.212121" d="M1153.88 241.27L940.221 -46.7859L726.564 241.27H1153.88Z" stroke="url(#paint21_linear_8_966)" stroke-width="6.85359"/>
<path opacity="0.222222" d="M1156.83 240.257L945.418 -44.7654L734.011 240.257H1156.83Z" stroke="url(#paint22_linear_8_966)" stroke-width="6.85359"/>
<path opacity="0.232323" d="M1159.77 239.247L950.614 -42.7429L741.456 239.247H1159.77Z" stroke="url(#paint23_linear_8_966)" stroke-width="6.85359"/>
<path opacity="0.242424" d="M1162.72 238.236L955.807 -40.7205L748.898 238.236H1162.72Z" stroke="url(#paint24_linear_8_966)" stroke-width="6.85359"/>
<path opacity="0.252525" d="M1165.66 237.223L961.004 -38.7009L756.345 237.223H1165.66Z" stroke="url(#paint25_linear_8_966)" stroke-width="6.85359"/>
<path opacity="0.262626" d="M1168.61 236.212L966.2 -36.6785L763.79 236.212H1168.61Z" stroke="url(#paint26_linear_8_966)" stroke-width="6.85359"/>
<path opacity="0.272727" d="M1171.56 235.203L971.396 -34.655L771.237 235.203H1171.56Z" stroke="url(#paint27_linear_8_966)" stroke-width="6.85359"/>
<path opacity="0.282828" d="M1174.5 234.192L976.595 -32.6326L778.685 234.192H1174.5Z" stroke="url(#paint28_linear_8_966)" stroke-width="6.85359"/>
<path opacity="0.292929" d="M1177.45 233.183L981.785 -30.6082L786.125 233.183H1177.45Z" stroke="url(#paint29_linear_8_966)" stroke-width="6.85359"/>
<path opacity="0.30303" d="M1180.39 232.174L986.983 -28.5847L793.573 232.174H1180.39Z" stroke="url(#paint30_linear_8_966)" stroke-width="6.85359"/>
<path opacity="0.313131" d="M1183.34 231.156L992.179 -26.5691L801.018 231.156H1183.34Z" stroke="url(#paint31_linear_8_966)" stroke-width="6.85359"/>
<path opacity="0.323232" d="M1186.29 230.146L997.374 -24.5466L808.463 230.146H1186.29Z" stroke="url(#paint32_linear_8_966)" stroke-width="6.85359"/>
<path opacity="0.333333" d="M1189.23 229.138L1002.56 -22.5212L815.903 229.138H1189.23Z" stroke="url(#paint33_linear_8_966)" stroke-width="6.85359"/>
<path opacity="0.343434" d="M1192.17 228.128L1007.76 -20.4988L823.351 228.128H1192.17Z" stroke="url(#paint34_linear_8_966)" stroke-width="6.85359"/>
<path opacity="0.353535" d="M1195.12 227.114L1012.96 -18.4792L830.797 227.114H1195.12Z" stroke="url(#paint35_linear_8_966)" stroke-width="6.85359"/>
<path opacity="0.363636" d="M1198.07 226.104L1018.16 -16.4568L838.242 226.104H1198.07Z" stroke="url(#paint36_linear_8_966)" stroke-width="6.85359"/>
<path opacity="0.373737" d="M1201.02 225.095L1023.35 -14.4324L845.689 225.095H1201.02Z" stroke="url(#paint37_linear_8_966)" stroke-width="6.85359"/>
<path opacity="0.383838" d="M1203.96 224.085L1028.54 -12.4099L853.13 224.085H1203.96Z" stroke="url(#paint38_linear_8_966)" stroke-width="6.85359"/>
<path opacity="0.393939" d="M1206.9 223.074L1033.74 -10.3874L860.577 223.074H1206.9Z" stroke="url(#paint39_linear_8_966)" stroke-width="6.85359"/>
<path opacity="0.40404" d="M1209.85 222.061L1038.94 -8.36792L868.023 222.061H1209.85Z" stroke="url(#paint40_linear_8_966)" stroke-width="6.85359"/>
<path opacity="0.414141" d="M1212.79 221.05L1044.13 -6.34546L875.465 221.05H1212.79Z" stroke="url(#paint41_linear_8_966)" stroke-width="6.85359"/>
<path opacity="0.424242" d="M1215.74 220.04L1049.33 -4.32202L882.911 220.04H1215.74Z" stroke="url(#paint42_linear_8_966)" stroke-width="6.85359"/>
<path opacity="0.434343" d="M1218.69 219.025L1054.52 -2.30444L890.356 219.025H1218.69Z" stroke="url(#paint43_linear_8_966)" stroke-width="6.85359"/>
<path opacity="0.444444" d="M1221.63 218.015L1059.72 -0.281004L897.801 218.015H1221.63Z" stroke="url(#paint44_linear_8_966)" stroke-width="6.85359"/>
<path opacity="0.454545" d="M1224.57 217.005L1064.91 1.74146L905.243 217.005H1224.57Z" stroke="url(#paint45_linear_8_966)" stroke-width="6.85359"/>
<path opacity="0.464646" d="M1227.52 215.994L1070.11 3.76392L912.689 215.994H1227.52Z" stroke="url(#paint46_linear_8_966)" stroke-width="6.85359"/>
<path opacity="0.474747" d="M1230.47 214.987L1075.3 5.78931L920.136 214.987H1230.47Z" stroke="url(#paint47_linear_8_966)" stroke-width="6.85359"/>
<path opacity="0.484848" d="M1233.41 213.971L1080.49 7.80689L927.577 213.971H1233.41Z" stroke="url(#paint48_linear_8_966)" stroke-width="6.85359"/>
<path opacity="0.494949" d="M1236.36 212.962L1085.69 9.83032L935.023 212.962H1236.36Z" stroke="url(#paint49_linear_8_966)" stroke-width="6.85359"/>
<path opacity="0.50505" d="M1239.3 211.952L1090.89 11.8538L942.469 211.952H1239.3Z" stroke="url(#paint50_linear_8_966)" stroke-width="6.85359"/>
<path opacity="0.515152" d="M1242.25 210.942L1096.09 13.8762L949.917 210.942H1242.25Z" stroke="url(#paint51_linear_8_966)" stroke-width="6.85359"/>
<path opacity="0.525253" d="M1245.19 209.929L1101.28 15.8967L957.357 209.929H1245.19Z" stroke="url(#paint52_linear_8_966)" stroke-width="6.85359"/>
<path opacity="0.535354" d="M1248.14 208.919L1106.47 17.9192L964.805 208.919H1248.14Z" stroke="url(#paint53_linear_8_966)" stroke-width="6.85359"/>
<path opacity="0.545455" d="M1251.09 207.909L1111.67 19.9426L972.251 207.909H1251.09Z" stroke="url(#paint54_linear_8_966)" stroke-width="6.85359"/>
<path opacity="0.555556" d="M1254.04 206.896L1116.87 21.9622L979.698 206.896H1254.04Z" stroke="url(#paint55_linear_8_966)" stroke-width="6.85359"/>
<path opacity="0.565657" d="M1256.98 205.884L1122.06 23.9836L987.143 205.884H1256.98Z" stroke="url(#paint56_linear_8_966)" stroke-width="6.85359"/>
<path opacity="0.575758" d="M1259.92 204.873L1127.25 26.0061L994.584 204.873H1259.92Z" stroke="url(#paint57_linear_8_966)" stroke-width="6.85359"/>
<path opacity="0.585859" d="M1262.87 203.863L1132.45 28.0286L1002.03 203.863H1262.87Z" stroke="url(#paint58_linear_8_966)" stroke-width="6.85359"/>
<path opacity="0.59596" d="M1265.82 202.849L1137.65 30.0481L1009.48 202.849H1265.82Z" stroke="url(#paint59_linear_8_966)" stroke-width="6.85359"/>
<path opacity="0.606061" d="M1268.76 201.841L1142.84 32.0725L1016.92 201.841H1268.76Z" stroke="url(#paint60_linear_8_966)" stroke-width="6.85359"/>
<path opacity="0.616162" d="M1271.71 200.83L1148.04 34.095L1024.36 200.83H1271.71Z" stroke="url(#paint61_linear_8_966)" stroke-width="6.85359"/>
<path opacity="0.626263" d="M1274.65 199.817L1153.23 36.1145L1031.81 199.817H1274.65Z" stroke="url(#paint62_linear_8_966)" stroke-width="6.85359"/>
<path opacity="0.636364" d="M1277.6 198.806L1158.43 38.137L1039.26 198.806H1277.6Z" stroke="url(#paint63_linear_8_966)" stroke-width="6.85359"/>
<path opacity="0.646465" d="M1280.55 197.796L1163.62 40.1594L1046.7 197.796H1280.55Z" stroke="url(#paint64_linear_8_966)" stroke-width="6.85359"/>
<path opacity="0.656566" d="M1283.49 196.786L1168.82 42.1829L1054.14 196.786H1283.49Z" stroke="url(#paint65_linear_8_966)" stroke-width="6.85359"/>
<path opacity="0.666667" d="M1286.44 195.778L1174.01 44.2073L1061.59 195.778H1286.44Z" stroke="url(#paint66_linear_8_966)" stroke-width="6.85359"/>
<path opacity="0.676768" d="M1289.38 194.763L1179.21 46.2258L1069.04 194.763H1289.38Z" stroke="url(#paint67_linear_8_966)" stroke-width="6.85359"/>
<path opacity="0.686869" d="M1292.33 193.751L1184.41 48.2463L1076.48 193.751H1292.33Z" stroke="url(#paint68_linear_8_966)" stroke-width="6.85359"/>
<path opacity="0.69697" d="M1295.27 192.74L1189.6 50.2688L1083.92 192.74H1295.27Z" stroke="url(#paint69_linear_8_966)" stroke-width="6.85359"/>
<path opacity="0.707071" d="M1298.22 191.732L1194.79 52.2932L1091.37 191.732H1298.22Z" stroke="url(#paint70_linear_8_966)" stroke-width="6.85359"/>
<path opacity="0.717172" d="M1301.17 190.717L1199.99 54.3118L1098.82 190.717H1301.17Z" stroke="url(#paint71_linear_8_966)" stroke-width="6.85359"/>
<path opacity="0.727273" d="M1304.11 189.708L1205.19 56.3352L1106.26 189.708H1304.11Z" stroke="url(#paint72_linear_8_966)" stroke-width="6.85359"/>
<path opacity="0.737374" d="M1307.05 188.698L1210.38 58.3586L1113.7 188.698H1307.05Z" stroke="url(#paint73_linear_8_966)" stroke-width="6.85359"/>
<path opacity="0.747475" d="M1310 187.687L1215.58 60.3811L1121.15 187.687H1310Z" stroke="url(#paint74_linear_8_966)" stroke-width="6.85359"/>
<path opacity="0.757576" d="M1312.95 186.677L1220.77 62.4036L1128.6 186.677H1312.95Z" stroke="url(#paint75_linear_8_966)" stroke-width="6.85359"/>
<path opacity="0.767677" d="M1315.9 185.664L1225.97 64.4241L1136.04 185.664H1315.9Z" stroke="url(#paint76_linear_8_966)" stroke-width="6.85359"/>
<path opacity="0.777778" d="M1318.84 184.655L1231.17 66.4475L1143.49 184.655H1318.84Z" stroke="url(#paint77_linear_8_966)" stroke-width="6.85359"/>
<path opacity="0.787879" d="M1321.79 183.644L1236.36 68.47L1150.93 183.644H1321.79Z" stroke="url(#paint78_linear_8_966)" stroke-width="6.85359"/>
<path opacity="0.79798" d="M1324.73 182.631L1241.55 70.4895L1158.38 182.631H1324.73Z" stroke="url(#paint79_linear_8_966)" stroke-width="6.85359"/>
<path opacity="0.808081" d="M1327.68 181.619L1246.75 72.511L1165.82 181.619H1327.68Z" stroke="url(#paint80_linear_8_966)" stroke-width="6.85359"/>
<path opacity="0.818182" d="M1330.62 180.609L1251.95 74.5334L1173.27 180.609H1330.62Z" stroke="url(#paint81_linear_8_966)" stroke-width="6.85359"/>
<path opacity="0.828283" d="M1333.57 179.595L1257.14 76.553L1180.71 179.595H1333.57Z" stroke="url(#paint82_linear_8_966)" stroke-width="6.85359"/>
<path opacity="0.838384" d="M1336.51 178.585L1262.33 78.5754L1188.15 178.585H1336.51Z" stroke="url(#paint83_linear_8_966)" stroke-width="6.85359"/>
<path opacity="0.848485" d="M1339.46 177.576L1267.53 80.5999L1195.6 177.576H1339.46Z" stroke="url(#paint84_linear_8_966)" stroke-width="6.85359"/>
<path opacity="0.858586" d="M1342.4 176.566L1272.72 82.6223L1203.04 176.566H1342.4Z" stroke="url(#paint85_linear_8_966)" stroke-width="6.85359"/>
<path opacity="0.868687" d="M1345.35 175.555L1277.92 84.6448L1210.49 175.555H1345.35Z" stroke="url(#paint86_linear_8_966)" stroke-width="6.85359"/>
<path opacity="0.878788" d="M1348.3 174.546L1283.12 86.6692L1217.94 174.546H1348.3Z" stroke="url(#paint87_linear_8_966)" stroke-width="6.85359"/>
<path opacity="0.888889" d="M1351.25 173.536L1288.31 88.6917L1225.38 173.536H1351.25Z" stroke="url(#paint88_linear_8_966)" stroke-width="6.85359"/>
<path opacity="0.89899" d="M1354.19 172.523L1293.5 90.7122L1232.82 172.523H1354.19Z" stroke="url(#paint89_linear_8_966)" stroke-width="6.85359"/>
<path opacity="0.909091" d="M1357.13 171.513L1298.7 92.7346L1240.27 171.513H1357.13Z" stroke="url(#paint90_linear_8_966)" stroke-width="6.85359"/>
<path opacity="0.919192" d="M1360.08 170.502L1303.9 94.7571L1247.72 170.502H1360.08Z" stroke="url(#paint91_linear_8_966)" stroke-width="6.85359"/>
</g>
</g>
<defs>
<linearGradient id="paint0_linear_8_966" x1="25.6533" y1="-153.032" x2="856.605" y2="933.625" gradientUnits="userSpaceOnUse">
<stop stop-color="#19C5EF"/>
<stop offset="0.489583" stop-color="#7FBBED"/>
<stop offset="0.963542" stop-color="#E3AAEB"/>
</linearGradient>
<linearGradient id="paint1_linear_8_966" x1="1026.36" y1="-191.995" x2="760.093" y2="422.425" gradientUnits="userSpaceOnUse">
<stop stop-color="white"/>
<stop offset="0.9999" stop-color="white"/>
<stop offset="1" stop-color="white"/>
</linearGradient>
<linearGradient id="paint2_linear_8_966" x1="1029.95" y1="-189.133" x2="765.936" y2="420.081" gradientUnits="userSpaceOnUse">
<stop stop-color="white"/>
<stop offset="0.9999" stop-color="white"/>
<stop offset="1" stop-color="white"/>
</linearGradient>
<linearGradient id="paint3_linear_8_966" x1="1033.53" y1="-186.275" x2="771.778" y2="417.731" gradientUnits="userSpaceOnUse">
<stop stop-color="white"/>
<stop offset="0.9999" stop-color="white"/>
<stop offset="1" stop-color="white"/>
</linearGradient>
<linearGradient id="paint4_linear_8_966" x1="1037.11" y1="-183.412" x2="777.616" y2="415.387" gradientUnits="userSpaceOnUse">
<stop stop-color="white"/>
<stop offset="0.9999" stop-color="white"/>
<stop offset="1" stop-color="white"/>
</linearGradient>
<linearGradient id="paint5_linear_8_966" x1="1040.7" y1="-180.55" x2="783.459" y2="413.042" gradientUnits="userSpaceOnUse">
<stop stop-color="white"/>
<stop offset="0.9999" stop-color="white"/>
<stop offset="1" stop-color="white"/>
</linearGradient>
<linearGradient id="paint6_linear_8_966" x1="1044.29" y1="-177.687" x2="789.301" y2="410.698" gradientUnits="userSpaceOnUse">
<stop stop-color="white"/>
<stop offset="0.9999" stop-color="white"/>
<stop offset="1" stop-color="white"/>
</linearGradient>
<linearGradient id="paint7_linear_8_966" x1="1047.87" y1="-174.831" x2="795.145" y2="408.347" gradientUnits="userSpaceOnUse">
<stop stop-color="white"/>
<stop offset="0.9999" stop-color="white"/>
<stop offset="1" stop-color="white"/>
</linearGradient>
<linearGradient id="paint8_linear_8_966" x1="1051.45" y1="-171.969" x2="800.98" y2="406.002" gradientUnits="userSpaceOnUse">
<stop stop-color="white"/>
<stop offset="0.9999" stop-color="white"/>
<stop offset="1" stop-color="white"/>
</linearGradient>
<linearGradient id="paint9_linear_8_966" x1="1055.04" y1="-169.106" x2="806.822" y2="403.658" gradientUnits="userSpaceOnUse">
<stop stop-color="white"/>
<stop offset="0.9999" stop-color="white"/>
<stop offset="1" stop-color="white"/>
</linearGradient>
<linearGradient id="paint10_linear_8_966" x1="1058.62" y1="-166.244" x2="812.664" y2="401.314" gradientUnits="userSpaceOnUse">
<stop stop-color="white"/>
<stop offset="0.9999" stop-color="white"/>
<stop offset="1" stop-color="white"/>
</linearGradient>
<linearGradient id="paint11_linear_8_966" x1="1062.21" y1="-163.386" x2="818.503" y2="398.965" gradientUnits="userSpaceOnUse">
<stop stop-color="white"/>
<stop offset="0.9999" stop-color="white"/>
<stop offset="1" stop-color="white"/>
</linearGradient>
<linearGradient id="paint12_linear_8_966" x1="1065.79" y1="-160.523" x2="824.345" y2="396.62" gradientUnits="userSpaceOnUse">
<stop stop-color="white"/>
<stop offset="0.9999" stop-color="white"/>
<stop offset="1" stop-color="white"/>
</linearGradient>
<linearGradient id="paint13_linear_8_966" x1="1069.38" y1="-157.662" x2="830.187" y2="394.275" gradientUnits="userSpaceOnUse">
<stop stop-color="white"/>
<stop offset="0.9999" stop-color="white"/>
<stop offset="1" stop-color="white"/>
</linearGradient>
<linearGradient id="paint14_linear_8_966" x1="1072.97" y1="-154.798" x2="836.031" y2="391.931" gradientUnits="userSpaceOnUse">
<stop stop-color="white"/>
<stop offset="0.9999" stop-color="white"/>
<stop offset="1" stop-color="white"/>
</linearGradient>
<linearGradient id="paint15_linear_8_966" x1="1076.55" y1="-151.94" x2="841.874" y2="389.583" gradientUnits="userSpaceOnUse">
<stop stop-color="white"/>
<stop offset="0.9999" stop-color="white"/>
<stop offset="1" stop-color="white"/>
</linearGradient>
<linearGradient id="paint16_linear_8_966" x1="1080.14" y1="-149.078" x2="847.716" y2="387.238" gradientUnits="userSpaceOnUse">
<stop stop-color="white"/>
<stop offset="0.9999" stop-color="white"/>
<stop offset="1" stop-color="white"/>
</linearGradient>
<linearGradient id="paint17_linear_8_966" x1="1083.72" y1="-146.216" x2="853.559" y2="384.892" gradientUnits="userSpaceOnUse">
<stop stop-color="white"/>
<stop offset="0.9999" stop-color="white"/>
<stop offset="1" stop-color="white"/>
</linearGradient>
<linearGradient id="paint18_linear_8_966" x1="1087.3" y1="-143.358" x2="859.397" y2="382.544" gradientUnits="userSpaceOnUse">
<stop stop-color="white"/>
<stop offset="0.9999" stop-color="white"/>
<stop offset="1" stop-color="white"/>
</linearGradient>
<linearGradient id="paint19_linear_8_966" x1="1090.89" y1="-140.497" x2="865.239" y2="380.198" gradientUnits="userSpaceOnUse">
<stop stop-color="white"/>
<stop offset="0.9999" stop-color="white"/>
<stop offset="1" stop-color="white"/>
</linearGradient>
<linearGradient id="paint20_linear_8_966" x1="1094.47" y1="-137.636" x2="871.08" y2="377.852" gradientUnits="userSpaceOnUse">
<stop stop-color="white"/>
<stop offset="0.9999" stop-color="white"/>
<stop offset="1" stop-color="white"/>
</linearGradient>
<linearGradient id="paint21_linear_8_966" x1="1098.06" y1="-134.773" x2="876.918" y2="375.508" gradientUnits="userSpaceOnUse">
<stop stop-color="white"/>
<stop offset="0.9999" stop-color="white"/>
<stop offset="1" stop-color="white"/>
</linearGradient>
<linearGradient id="paint22_linear_8_966" x1="1101.64" y1="-131.913" x2="882.761" y2="373.161" gradientUnits="userSpaceOnUse">
<stop stop-color="white"/>
<stop offset="0.9999" stop-color="white"/>
<stop offset="1" stop-color="white"/>
</linearGradient>
<linearGradient id="paint23_linear_8_966" x1="1105.23" y1="-129.052" x2="888.603" y2="370.815" gradientUnits="userSpaceOnUse">
<stop stop-color="white"/>
<stop offset="0.9999" stop-color="white"/>
<stop offset="1" stop-color="white"/>
</linearGradient>
<linearGradient id="paint24_linear_8_966" x1="1108.81" y1="-126.19" x2="894.441" y2="368.47" gradientUnits="userSpaceOnUse">
<stop stop-color="white"/>
<stop offset="0.9999" stop-color="white"/>
<stop offset="1" stop-color="white"/>
</linearGradient>
<linearGradient id="paint25_linear_8_966" x1="1112.4" y1="-123.331" x2="900.284" y2="366.122" gradientUnits="userSpaceOnUse">
<stop stop-color="white"/>
<stop offset="0.9999" stop-color="white"/>
<stop offset="1" stop-color="white"/>
</linearGradient>
<linearGradient id="paint26_linear_8_966" x1="1115.98" y1="-120.47" x2="906.126" y2="363.776" gradientUnits="userSpaceOnUse">
<stop stop-color="white"/>
<stop offset="0.9999" stop-color="white"/>
<stop offset="1" stop-color="white"/>
</linearGradient>
<linearGradient id="paint27_linear_8_966" x1="1119.57" y1="-117.607" x2="911.968" y2="361.432" gradientUnits="userSpaceOnUse">
<stop stop-color="white"/>
<stop offset="0.9999" stop-color="white"/>
<stop offset="1" stop-color="white"/>
</linearGradient>
<linearGradient id="paint28_linear_8_966" x1="1123.16" y1="-114.746" x2="917.813" y2="359.087" gradientUnits="userSpaceOnUse">
<stop stop-color="white"/>
<stop offset="0.9999" stop-color="white"/>
<stop offset="1" stop-color="white"/>
</linearGradient>
<linearGradient id="paint29_linear_8_966" x1="1126.74" y1="-111.882" x2="923.649" y2="356.743" gradientUnits="userSpaceOnUse">
<stop stop-color="white"/>
<stop offset="0.9999" stop-color="white"/>
<stop offset="1" stop-color="white"/>
</linearGradient>
<linearGradient id="paint30_linear_8_966" x1="1130.32" y1="-109.02" x2="929.493" y2="354.399" gradientUnits="userSpaceOnUse">
<stop stop-color="white"/>
<stop offset="0.9999" stop-color="white"/>
<stop offset="1" stop-color="white"/>
</linearGradient>
<linearGradient id="paint31_linear_8_966" x1="1133.91" y1="-106.165" x2="935.335" y2="352.047" gradientUnits="userSpaceOnUse">
<stop stop-color="white"/>
<stop offset="0.9999" stop-color="white"/>
<stop offset="1" stop-color="white"/>
</linearGradient>
<linearGradient id="paint32_linear_8_966" x1="1137.49" y1="-103.303" x2="941.176" y2="349.701" gradientUnits="userSpaceOnUse">
<stop stop-color="white"/>
<stop offset="0.9999" stop-color="white"/>
<stop offset="1" stop-color="white"/>
</linearGradient>
<linearGradient id="paint33_linear_8_966" x1="1141.07" y1="-100.439" x2="947.012" y2="347.359" gradientUnits="userSpaceOnUse">
<stop stop-color="white"/>
<stop offset="0.9999" stop-color="white"/>
<stop offset="1" stop-color="white"/>
</linearGradient>
<linearGradient id="paint34_linear_8_966" x1="1144.66" y1="-97.5772" x2="952.857" y2="345.014" gradientUnits="userSpaceOnUse">
<stop stop-color="white"/>
<stop offset="0.9999" stop-color="white"/>
<stop offset="1" stop-color="white"/>
</linearGradient>
<linearGradient id="paint35_linear_8_966" x1="1148.25" y1="-94.7185" x2="958.699" y2="342.665" gradientUnits="userSpaceOnUse">
<stop stop-color="white"/>
<stop offset="0.9999" stop-color="white"/>
<stop offset="1" stop-color="white"/>
</linearGradient>
<linearGradient id="paint36_linear_8_966" x1="1151.83" y1="-91.8569" x2="964.541" y2="340.32" gradientUnits="userSpaceOnUse">
<stop stop-color="white"/>
<stop offset="0.9999" stop-color="white"/>
<stop offset="1" stop-color="white"/>
</linearGradient>
<linearGradient id="paint37_linear_8_966" x1="1155.42" y1="-88.9934" x2="970.384" y2="337.976" gradientUnits="userSpaceOnUse">
<stop stop-color="white"/>
<stop offset="0.9999" stop-color="white"/>
<stop offset="1" stop-color="white"/>
</linearGradient>
<linearGradient id="paint38_linear_8_966" x1="1159" y1="-86.1318" x2="976.222" y2="335.631" gradientUnits="userSpaceOnUse">
<stop stop-color="white"/>
<stop offset="0.9999" stop-color="white"/>
<stop offset="1" stop-color="white"/>
</linearGradient>
<linearGradient id="paint39_linear_8_966" x1="1162.59" y1="-83.2702" x2="982.064" y2="333.286" gradientUnits="userSpaceOnUse">
<stop stop-color="white"/>
<stop offset="0.9999" stop-color="white"/>
<stop offset="1" stop-color="white"/>
</linearGradient>
<linearGradient id="paint40_linear_8_966" x1="1166.17" y1="-80.4115" x2="987.907" y2="330.937" gradientUnits="userSpaceOnUse">
<stop stop-color="white"/>
<stop offset="0.9999" stop-color="white"/>
<stop offset="1" stop-color="white"/>
</linearGradient>
<linearGradient id="paint41_linear_8_966" x1="1169.75" y1="-77.5499" x2="993.745" y2="328.592" gradientUnits="userSpaceOnUse">
<stop stop-color="white"/>
<stop offset="0.9999" stop-color="white"/>
<stop offset="1" stop-color="white"/>
</linearGradient>
<linearGradient id="paint42_linear_8_966" x1="1173.34" y1="-74.6874" x2="999.587" y2="326.248" gradientUnits="userSpaceOnUse">
<stop stop-color="white"/>
<stop offset="0.9999" stop-color="white"/>
<stop offset="1" stop-color="white"/>
</linearGradient>
<linearGradient id="paint43_linear_8_966" x1="1176.92" y1="-71.8306" x2="1005.43" y2="323.898" gradientUnits="userSpaceOnUse">
<stop stop-color="white"/>
<stop offset="0.9999" stop-color="white"/>
<stop offset="1" stop-color="white"/>
</linearGradient>
<linearGradient id="paint44_linear_8_966" x1="1180.51" y1="-68.9681" x2="1011.27" y2="321.553" gradientUnits="userSpaceOnUse">
<stop stop-color="white"/>
<stop offset="0.9999" stop-color="white"/>
<stop offset="1" stop-color="white"/>
</linearGradient>
<linearGradient id="paint45_linear_8_966" x1="1184.09" y1="-66.1065" x2="1017.11" y2="319.208" gradientUnits="userSpaceOnUse">
<stop stop-color="white"/>
<stop offset="0.9999" stop-color="white"/>
<stop offset="1" stop-color="white"/>
</linearGradient>
<linearGradient id="paint46_linear_8_966" x1="1187.68" y1="-63.2449" x2="1022.95" y2="316.862" gradientUnits="userSpaceOnUse">
<stop stop-color="white"/>
<stop offset="0.9999" stop-color="white"/>
<stop offset="1" stop-color="white"/>
</linearGradient>
<linearGradient id="paint47_linear_8_966" x1="1191.26" y1="-60.3804" x2="1028.79" y2="314.52" gradientUnits="userSpaceOnUse">
<stop stop-color="white"/>
<stop offset="0.9999" stop-color="white"/>
<stop offset="1" stop-color="white"/>
</linearGradient>
<linearGradient id="paint48_linear_8_966" x1="1194.84" y1="-57.5237" x2="1034.63" y2="312.17" gradientUnits="userSpaceOnUse">
<stop stop-color="white"/>
<stop offset="0.9999" stop-color="white"/>
<stop offset="1" stop-color="white"/>
</linearGradient>
<linearGradient id="paint49_linear_8_966" x1="1198.43" y1="-54.6611" x2="1040.47" y2="309.825" gradientUnits="userSpaceOnUse">
<stop stop-color="white"/>
<stop offset="0.9999" stop-color="white"/>
<stop offset="1" stop-color="white"/>
</linearGradient>
<linearGradient id="paint50_linear_8_966" x1="1202.01" y1="-51.7985" x2="1046.32" y2="307.481" gradientUnits="userSpaceOnUse">
<stop stop-color="white"/>
<stop offset="0.9999" stop-color="white"/>
<stop offset="1" stop-color="white"/>
</linearGradient>
<linearGradient id="paint51_linear_8_966" x1="1205.6" y1="-48.9369" x2="1052.16" y2="305.136" gradientUnits="userSpaceOnUse">
<stop stop-color="white"/>
<stop offset="0.9999" stop-color="white"/>
<stop offset="1" stop-color="white"/>
</linearGradient>
<linearGradient id="paint52_linear_8_966" x1="1209.18" y1="-46.0773" x2="1058" y2="302.788" gradientUnits="userSpaceOnUse">
<stop stop-color="white"/>
<stop offset="0.9999" stop-color="white"/>
<stop offset="1" stop-color="white"/>
</linearGradient>
<linearGradient id="paint53_linear_8_966" x1="1212.77" y1="-43.2157" x2="1063.84" y2="300.443" gradientUnits="userSpaceOnUse">
<stop stop-color="white"/>
<stop offset="0.9999" stop-color="white"/>
<stop offset="1" stop-color="white"/>
</linearGradient>
<linearGradient id="paint54_linear_8_966" x1="1216.36" y1="-40.3531" x2="1069.68" y2="298.099" gradientUnits="userSpaceOnUse">
<stop stop-color="white"/>
<stop offset="0.9999" stop-color="white"/>
<stop offset="1" stop-color="white"/>
</linearGradient>
<linearGradient id="paint55_linear_8_966" x1="1219.94" y1="-37.4945" x2="1075.53" y2="295.75" gradientUnits="userSpaceOnUse">
<stop stop-color="white"/>
<stop offset="0.9999" stop-color="white"/>
<stop offset="1" stop-color="white"/>
</linearGradient>
<linearGradient id="paint56_linear_8_966" x1="1223.53" y1="-34.6338" x2="1081.37" y2="293.404" gradientUnits="userSpaceOnUse">
<stop stop-color="white"/>
<stop offset="0.9999" stop-color="white"/>
<stop offset="1" stop-color="white"/>
</linearGradient>
<linearGradient id="paint57_linear_8_966" x1="1227.11" y1="-31.7722" x2="1087.2" y2="291.059" gradientUnits="userSpaceOnUse">
<stop stop-color="white"/>
<stop offset="0.9999" stop-color="white"/>
<stop offset="1" stop-color="white"/>
</linearGradient>
<linearGradient id="paint58_linear_8_966" x1="1230.69" y1="-28.9107" x2="1093.05" y2="288.713" gradientUnits="userSpaceOnUse">
<stop stop-color="white"/>
<stop offset="0.9999" stop-color="white"/>
<stop offset="1" stop-color="white"/>
</linearGradient>
<linearGradient id="paint59_linear_8_966" x1="1234.28" y1="-26.052" x2="1098.89" y2="286.365" gradientUnits="userSpaceOnUse">
<stop stop-color="white"/>
<stop offset="0.9999" stop-color="white"/>
<stop offset="1" stop-color="white"/>
</linearGradient>
<linearGradient id="paint60_linear_8_966" x1="1237.86" y1="-23.1884" x2="1104.73" y2="284.022" gradientUnits="userSpaceOnUse">
<stop stop-color="white"/>
<stop offset="0.9999" stop-color="white"/>
<stop offset="1" stop-color="white"/>
</linearGradient>
<linearGradient id="paint61_linear_8_966" x1="1241.45" y1="-20.3269" x2="1110.57" y2="281.676" gradientUnits="userSpaceOnUse">
<stop stop-color="white"/>
<stop offset="0.9999" stop-color="white"/>
<stop offset="1" stop-color="white"/>
</linearGradient>
<linearGradient id="paint62_linear_8_966" x1="1245.03" y1="-17.4682" x2="1116.41" y2="279.328" gradientUnits="userSpaceOnUse">
<stop stop-color="white"/>
<stop offset="0.9999" stop-color="white"/>
<stop offset="1" stop-color="white"/>
</linearGradient>
<linearGradient id="paint63_linear_8_966" x1="1248.62" y1="-14.6066" x2="1122.25" y2="276.983" gradientUnits="userSpaceOnUse">
<stop stop-color="white"/>
<stop offset="0.9999" stop-color="white"/>
<stop offset="1" stop-color="white"/>
</linearGradient>
<linearGradient id="paint64_linear_8_966" x1="1252.2" y1="-11.745" x2="1128.1" y2="274.637" gradientUnits="userSpaceOnUse">
<stop stop-color="white"/>
<stop offset="0.9999" stop-color="white"/>
<stop offset="1" stop-color="white"/>
</linearGradient>
<linearGradient id="paint65_linear_8_966" x1="1255.79" y1="-8.88244" x2="1133.94" y2="272.293" gradientUnits="userSpaceOnUse">
<stop stop-color="white"/>
<stop offset="0.9999" stop-color="white"/>
<stop offset="1" stop-color="white"/>
</linearGradient>
<linearGradient id="paint66_linear_8_966" x1="1259.37" y1="-6.0189" x2="1139.78" y2="269.949" gradientUnits="userSpaceOnUse">
<stop stop-color="white"/>
<stop offset="0.9999" stop-color="white"/>
<stop offset="1" stop-color="white"/>
</linearGradient>
<linearGradient id="paint67_linear_8_966" x1="1262.96" y1="-3.16122" x2="1145.62" y2="267.6" gradientUnits="userSpaceOnUse">
<stop stop-color="white"/>
<stop offset="0.9999" stop-color="white"/>
<stop offset="1" stop-color="white"/>
</linearGradient>
<linearGradient id="paint68_linear_8_966" x1="1266.55" y1="-0.301577" x2="1151.46" y2="265.253" gradientUnits="userSpaceOnUse">
<stop stop-color="white"/>
<stop offset="0.9999" stop-color="white"/>
<stop offset="1" stop-color="white"/>
</linearGradient>
<linearGradient id="paint69_linear_8_966" x1="1270.12" y1="2.56002" x2="1157.3" y2="262.907" gradientUnits="userSpaceOnUse">
<stop stop-color="white"/>
<stop offset="0.9999" stop-color="white"/>
<stop offset="1" stop-color="white"/>
</linearGradient>
<linearGradient id="paint70_linear_8_966" x1="1273.71" y1="5.42357" x2="1163.14" y2="260.564" gradientUnits="userSpaceOnUse">
<stop stop-color="white"/>
<stop offset="0.9999" stop-color="white"/>
<stop offset="1" stop-color="white"/>
</linearGradient>
<linearGradient id="paint71_linear_8_966" x1="1277.3" y1="8.28125" x2="1168.99" y2="258.215" gradientUnits="userSpaceOnUse">
<stop stop-color="white"/>
<stop offset="0.9999" stop-color="white"/>
<stop offset="1" stop-color="white"/>
</linearGradient>
<linearGradient id="paint72_linear_8_966" x1="1280.88" y1="11.1438" x2="1174.83" y2="255.87" gradientUnits="userSpaceOnUse">
<stop stop-color="white"/>
<stop offset="0.9999" stop-color="white"/>
<stop offset="1" stop-color="white"/>
</linearGradient>
<linearGradient id="paint73_linear_8_966" x1="1284.46" y1="14.0064" x2="1180.66" y2="253.526" gradientUnits="userSpaceOnUse">
<stop stop-color="white"/>
<stop offset="0.9999" stop-color="white"/>
<stop offset="1" stop-color="white"/>
</linearGradient>
<linearGradient id="paint74_linear_8_966" x1="1288.05" y1="16.868" x2="1186.51" y2="251.181" gradientUnits="userSpaceOnUse">
<stop stop-color="white"/>
<stop offset="0.9999" stop-color="white"/>
<stop offset="1" stop-color="white"/>
</linearGradient>
<linearGradient id="paint75_linear_8_966" x1="1291.64" y1="19.7296" x2="1192.35" y2="248.835" gradientUnits="userSpaceOnUse">
<stop stop-color="white"/>
<stop offset="0.9999" stop-color="white"/>
<stop offset="1" stop-color="white"/>
</linearGradient>
<linearGradient id="paint76_linear_8_966" x1="1295.22" y1="22.5892" x2="1198.19" y2="246.488" gradientUnits="userSpaceOnUse">
<stop stop-color="white"/>
<stop offset="0.9999" stop-color="white"/>
<stop offset="1" stop-color="white"/>
</linearGradient>
<linearGradient id="paint77_linear_8_966" x1="1298.81" y1="25.4518" x2="1204.04" y2="244.144" gradientUnits="userSpaceOnUse">
<stop stop-color="white"/>
<stop offset="0.9999" stop-color="white"/>
<stop offset="1" stop-color="white"/>
</linearGradient>
<linearGradient id="paint78_linear_8_966" x1="1302.39" y1="28.3134" x2="1209.87" y2="241.798" gradientUnits="userSpaceOnUse">
<stop stop-color="white"/>
<stop offset="0.9999" stop-color="white"/>
<stop offset="1" stop-color="white"/>
</linearGradient>
<linearGradient id="paint79_linear_8_966" x1="1305.98" y1="31.172" x2="1215.72" y2="239.45" gradientUnits="userSpaceOnUse">
<stop stop-color="white"/>
<stop offset="0.9999" stop-color="white"/>
<stop offset="1" stop-color="white"/>
</linearGradient>
<linearGradient id="paint80_linear_8_966" x1="1309.56" y1="34.0327" x2="1221.56" y2="237.104" gradientUnits="userSpaceOnUse">
<stop stop-color="white"/>
<stop offset="0.9999" stop-color="white"/>
<stop offset="1" stop-color="white"/>
</linearGradient>
<linearGradient id="paint81_linear_8_966" x1="1313.15" y1="36.8942" x2="1227.4" y2="234.758" gradientUnits="userSpaceOnUse">
<stop stop-color="white"/>
<stop offset="0.9999" stop-color="white"/>
<stop offset="1" stop-color="white"/>
</linearGradient>
<linearGradient id="paint82_linear_8_966" x1="1316.73" y1="39.7529" x2="1233.24" y2="232.41" gradientUnits="userSpaceOnUse">
<stop stop-color="white"/>
<stop offset="0.9999" stop-color="white"/>
<stop offset="1" stop-color="white"/>
</linearGradient>
<linearGradient id="paint83_linear_8_966" x1="1320.31" y1="42.6145" x2="1239.08" y2="230.065" gradientUnits="userSpaceOnUse">
<stop stop-color="white"/>
<stop offset="0.9999" stop-color="white"/>
<stop offset="1" stop-color="white"/>
</linearGradient>
<linearGradient id="paint84_linear_8_966" x1="1323.9" y1="45.478" x2="1244.92" y2="227.721" gradientUnits="userSpaceOnUse">
<stop stop-color="white"/>
<stop offset="0.9999" stop-color="white"/>
<stop offset="1" stop-color="white"/>
</linearGradient>
<linearGradient id="paint85_linear_8_966" x1="1327.48" y1="48.3396" x2="1250.76" y2="225.376" gradientUnits="userSpaceOnUse">
<stop stop-color="white"/>
<stop offset="0.9999" stop-color="white"/>
<stop offset="1" stop-color="white"/>
</linearGradient>
<linearGradient id="paint86_linear_8_966" x1="1331.07" y1="51.2012" x2="1256.6" y2="223.031" gradientUnits="userSpaceOnUse">
<stop stop-color="white"/>
<stop offset="0.9999" stop-color="white"/>
<stop offset="1" stop-color="white"/>
</linearGradient>
<linearGradient id="paint87_linear_8_966" x1="1334.65" y1="54.0648" x2="1262.45" y2="220.687" gradientUnits="userSpaceOnUse">
<stop stop-color="white"/>
<stop offset="0.9999" stop-color="white"/>
<stop offset="1" stop-color="white"/>
</linearGradient>
<linearGradient id="paint88_linear_8_966" x1="1338.24" y1="56.9264" x2="1268.29" y2="218.342" gradientUnits="userSpaceOnUse">
<stop stop-color="white"/>
<stop offset="0.9999" stop-color="white"/>
<stop offset="1" stop-color="white"/>
</linearGradient>
<linearGradient id="paint89_linear_8_966" x1="1341.82" y1="59.786" x2="1274.13" y2="215.994" gradientUnits="userSpaceOnUse">
<stop stop-color="white"/>
<stop offset="0.9999" stop-color="white"/>
<stop offset="1" stop-color="white"/>
</linearGradient>
<linearGradient id="paint90_linear_8_966" x1="1345.41" y1="62.6476" x2="1279.97" y2="213.649" gradientUnits="userSpaceOnUse">
<stop stop-color="white"/>
<stop offset="0.9999" stop-color="white"/>
<stop offset="1" stop-color="white"/>
</linearGradient>
<linearGradient id="paint91_linear_8_966" x1="1348.99" y1="65.5092" x2="1285.81" y2="211.304" gradientUnits="userSpaceOnUse">
<stop stop-color="white"/>
<stop offset="0.9999" stop-color="white"/>
<stop offset="1" stop-color="white"/>
</linearGradient>
<clipPath id="clip0_8_966">
<rect width="1241" height="264" rx="27.2143" fill="white"/>
</clipPath>
</defs>
</svg>
