<svg width="23" height="516" viewBox="0 0 23 516" fill="none" xmlns="http://www.w3.org/2000/svg">
<path d="M11 21L11 494" stroke="url(#paint0_linear_57_6312)" stroke-width="2"/>
<circle cx="11.3793" cy="504.379" r="11.3793" fill="url(#paint1_linear_57_6312)"/>
<path d="M14.1077 505.476V506.601H7.95532L7.90845 505.752L11.5881 499.986H12.719L11.4944 502.084L9.37915 505.476H14.1077ZM13.0413 499.986V508.517H11.6292V499.986H13.0413Z" fill="white"/>
<circle cx="11.5" cy="188.5" r="11.5" fill="url(#paint2_linear_57_6312)"/>
<path d="M14.03 191.408V192.533H8.31122V191.567L11.0886 188.537C11.3932 188.194 11.6335 187.897 11.8093 187.647C11.985 187.397 12.1081 187.172 12.1784 186.973C12.2526 186.77 12.2897 186.573 12.2897 186.381C12.2897 186.112 12.239 185.875 12.1374 185.672C12.0397 185.465 11.8952 185.303 11.7038 185.186C11.5124 185.065 11.28 185.004 11.0065 185.004C10.6901 185.004 10.4245 185.073 10.2097 185.209C9.99481 185.346 9.8327 185.535 9.72333 185.778C9.61395 186.016 9.55927 186.289 9.55927 186.598H8.14716C8.14716 186.102 8.26044 185.649 8.487 185.239C8.71356 184.824 9.04169 184.496 9.47137 184.254C9.90106 184.008 10.4186 183.885 11.0241 183.885C11.5944 183.885 12.0788 183.981 12.4772 184.172C12.8757 184.364 13.1784 184.635 13.3854 184.987C13.5964 185.338 13.7018 185.754 13.7018 186.235C13.7018 186.5 13.6589 186.764 13.5729 187.026C13.487 187.287 13.364 187.549 13.2038 187.811C13.0475 188.069 12.862 188.328 12.6472 188.59C12.4323 188.848 12.196 189.11 11.9382 189.375L10.0925 191.408H14.03Z" fill="white"/>
<circle cx="11.3793" cy="345.379" r="11.3793" fill="url(#paint3_linear_57_6312)"/>
<path d="M9.88892 344.613H10.7327C11.0608 344.613 11.3323 344.556 11.5471 344.443C11.7659 344.33 11.928 344.174 12.0334 343.974C12.1389 343.775 12.1917 343.547 12.1917 343.289C12.1917 343.019 12.1428 342.789 12.0452 342.597C11.9514 342.402 11.8069 342.252 11.6116 342.146C11.4202 342.041 11.176 341.988 10.8792 341.988C10.6292 341.988 10.4026 342.039 10.1995 342.14C10.0002 342.238 9.84204 342.379 9.72485 342.562C9.60767 342.742 9.54907 342.957 9.54907 343.207H8.1311C8.1311 342.754 8.25024 342.351 8.48853 342C8.72681 341.648 9.05103 341.373 9.46118 341.174C9.87524 340.97 10.3401 340.869 10.8557 340.869C11.4065 340.869 11.887 340.961 12.2971 341.144C12.7112 341.324 13.0334 341.594 13.2639 341.953C13.4944 342.312 13.6096 342.758 13.6096 343.289C13.6096 343.531 13.553 343.777 13.4397 344.027C13.3264 344.277 13.1584 344.506 12.9358 344.713C12.7131 344.916 12.4358 345.082 12.1038 345.211C11.7717 345.336 11.387 345.398 10.9495 345.398H9.88892V344.613ZM9.88892 345.715V344.941H10.9495C11.4495 344.941 11.8752 345 12.2268 345.117C12.5823 345.234 12.8713 345.396 13.094 345.603C13.3167 345.806 13.4788 346.039 13.5803 346.301C13.6858 346.562 13.7385 346.84 13.7385 347.133C13.7385 347.531 13.6663 347.886 13.5217 348.199C13.3811 348.508 13.1799 348.769 12.9182 348.984C12.6565 349.199 12.3499 349.361 11.9983 349.47C11.6506 349.58 11.2717 349.635 10.8616 349.635C10.4944 349.635 10.1428 349.584 9.80688 349.482C9.47095 349.381 9.17017 349.23 8.90454 349.031C8.63892 348.828 8.42798 348.576 8.27173 348.275C8.11938 347.97 8.04321 347.619 8.04321 347.22H9.45532C9.45532 347.474 9.51392 347.699 9.6311 347.894C9.7522 348.086 9.92017 348.236 10.135 348.345C10.3538 348.455 10.6038 348.51 10.885 348.51C11.1819 348.51 11.4377 348.457 11.6526 348.351C11.8674 348.246 12.0315 348.09 12.1448 347.883C12.262 347.676 12.3206 347.426 12.3206 347.133C12.3206 346.801 12.2561 346.531 12.1272 346.324C11.9983 346.117 11.8147 345.965 11.5764 345.867C11.3381 345.765 11.0569 345.715 10.7327 345.715H9.88892Z" fill="white"/>
<circle cx="11.5" cy="11.5" r="11.5" fill="url(#paint4_linear_57_6312)"/>
<path d="M12.1667 6.9729V15.5334H10.7546V8.64868L8.66278 9.35767V8.19165L11.9968 6.9729H12.1667Z" fill="white"/>
<defs>
<linearGradient id="paint0_linear_57_6312" x1="11" y1="-337.2" x2="38.7124" y2="-336.379" gradientUnits="userSpaceOnUse">
<stop stop-color="#19CCEF"/>
<stop offset="0.5" stop-color="#7EBBED"/>
<stop offset="1" stop-color="#E3AAEB"/>
</linearGradient>
<linearGradient id="paint1_linear_57_6312" x1="6.56499" y1="474.618" x2="17.069" y2="527.138" gradientUnits="userSpaceOnUse">
<stop stop-color="#19CCEF"/>
<stop offset="0.5" stop-color="#7EBBED"/>
<stop offset="1" stop-color="#E3AAEB"/>
</linearGradient>
<linearGradient id="paint2_linear_57_6312" x1="6.63462" y1="158.423" x2="17.25" y2="211.5" gradientUnits="userSpaceOnUse">
<stop stop-color="#19CCEF"/>
<stop offset="0.5" stop-color="#7EBBED"/>
<stop offset="1" stop-color="#E3AAEB"/>
</linearGradient>
<linearGradient id="paint3_linear_57_6312" x1="6.56499" y1="315.618" x2="17.069" y2="368.138" gradientUnits="userSpaceOnUse">
<stop stop-color="#19CCEF"/>
<stop offset="0.5" stop-color="#7EBBED"/>
<stop offset="1" stop-color="#E3AAEB"/>
</linearGradient>
<linearGradient id="paint4_linear_57_6312" x1="6.63462" y1="-18.5769" x2="17.25" y2="34.5" gradientUnits="userSpaceOnUse">
<stop stop-color="#19CCEF"/>
<stop offset="0.5" stop-color="#7EBBED"/>
<stop offset="1" stop-color="#E3AAEB"/>
</linearGradient>
</defs>
</svg>
