<svg width="360" height="992" viewBox="0 0 360 992" fill="none" xmlns="http://www.w3.org/2000/svg">
<g filter="url(#filter0_d_57_4853)">
<rect width="360" height="992" rx="20" fill="url(#paint0_linear_57_4853)"/>
</g>
<mask id="mask0_57_4853" style="mask-type:alpha" maskUnits="userSpaceOnUse" x="0" y="0" width="360" height="992">
<rect width="360" height="992" rx="20" fill="url(#paint1_linear_57_4853)"/>
</mask>
<g mask="url(#mask0_57_4853)">
<g opacity="0.5">
<path opacity="0.01" d="M39.0607 175.678L41.5434 197.457C44.0262 219.236 48.9917 262.795 110.565 280.012C172.139 297.229 290.321 288.105 307.866 325.81C325.411 363.515 242.32 448.049 272.444 479.9C302.569 511.751 445.91 490.92 517.58 480.504L589.251 470.089" stroke="white" stroke-width="1.4"/>
<path opacity="0.02" d="M38.3449 177.444L40.8241 199.106C43.3032 220.767 48.2614 264.09 109.449 281.248C170.637 298.406 288.055 289.399 305.509 326.907C322.963 364.416 240.452 448.44 270.402 480.134C300.351 511.828 442.76 491.192 513.964 480.873L585.168 470.555" stroke="white" stroke-width="1.4"/>
<path opacity="0.03" d="M37.6283 179.211L40.1038 200.755C42.5793 222.299 47.5302 265.386 108.332 282.485C169.135 299.583 285.788 290.692 303.151 328.004C320.513 365.316 238.584 448.831 268.358 480.368C298.132 511.905 439.608 491.463 510.346 481.243L581.085 471.022" stroke="white" stroke-width="1.4"/>
<path opacity="0.04" d="M36.9126 180.978L39.3844 202.404C41.8563 223.83 46.7999 266.682 107.217 283.721C167.633 300.76 283.523 291.985 300.794 329.101C318.065 366.217 236.717 449.223 266.315 480.602C295.914 511.982 436.458 491.735 506.73 481.612L577.002 471.488" stroke="white" stroke-width="1.4"/>
<path opacity="0.05" d="M36.196 182.744L38.6642 204.053C41.1323 225.361 46.0687 267.977 106.1 284.957C166.131 301.936 281.256 293.279 298.436 330.198C315.615 367.118 234.849 449.614 264.272 480.836C293.695 512.058 433.306 492.007 503.112 481.981L572.918 471.955" stroke="white" stroke-width="1.4"/>
<path opacity="0.06" d="M35.4802 184.511L37.9448 205.701C40.4093 226.892 45.3384 269.273 104.984 286.193C164.629 303.113 278.99 294.572 296.078 331.295C313.167 368.018 232.982 450.005 262.229 481.07C291.476 512.135 430.156 492.278 499.496 482.35L568.836 472.421" stroke="white" stroke-width="1.4"/>
<path opacity="0.07" d="M34.7636 186.278L37.2245 207.351C39.6854 228.423 44.6072 270.569 103.867 287.429C163.126 304.29 276.724 295.866 293.72 332.393C310.717 368.919 231.114 450.397 260.185 481.304C289.257 512.212 427.005 492.55 495.878 482.719L564.752 472.888" stroke="white" stroke-width="1.4"/>
<path opacity="0.08" d="M34.0479 188.044L36.5051 208.999C38.9623 229.954 43.8768 271.864 102.751 288.665C161.625 305.467 274.458 297.159 291.363 333.489C308.269 369.82 229.246 450.788 258.143 481.538C287.039 512.289 423.854 492.822 492.262 483.088L560.669 473.355" stroke="white" stroke-width="1.4"/>
<path opacity="0.09" d="M33.3313 189.811L35.7849 210.648C38.2385 231.486 43.1457 273.16 101.634 289.902C160.122 306.644 272.191 298.453 289.005 334.587C305.819 370.72 227.378 451.179 256.099 481.772C284.82 512.366 420.703 493.094 488.644 483.457L556.586 473.821" stroke="white" stroke-width="1.4"/>
<path opacity="0.1" d="M32.6155 191.578L35.0655 212.297C37.5154 233.017 42.4153 274.456 100.518 291.138C158.62 307.82 269.925 299.746 286.648 335.683C303.371 371.621 225.511 451.57 254.057 482.006C282.602 512.442 417.553 493.365 485.028 483.826L552.503 474.288" stroke="white" stroke-width="1.4"/>
<path opacity="0.11" d="M31.899 193.344L34.3453 213.946C36.7916 234.548 41.6842 275.751 99.401 292.374C157.118 308.997 267.659 301.04 284.29 336.781C300.921 372.522 223.643 451.962 252.013 482.24C280.383 512.519 414.401 493.637 481.411 484.196L548.42 474.755" stroke="white" stroke-width="1.4"/>
<path opacity="0.12" d="M31.1832 195.111L33.6259 215.595C36.0685 236.079 40.9538 277.047 98.2849 293.61C155.616 310.174 265.393 302.333 281.933 337.878C298.473 373.422 221.776 452.353 249.97 482.474C278.165 512.596 411.251 493.908 477.794 484.565L544.337 475.221" stroke="white" stroke-width="1.4"/>
<path opacity="0.13" d="M30.4666 196.878L32.9056 217.244C35.3446 237.61 40.2226 278.343 97.168 294.847C154.113 311.351 263.126 303.626 279.575 338.975C296.023 374.323 219.908 452.744 247.927 482.708C275.946 512.673 408.1 494.18 474.177 484.934L540.253 475.688" stroke="white" stroke-width="1.4"/>
<path opacity="0.14" d="M29.7508 198.644L32.1862 218.893C34.6216 239.141 39.4923 279.638 96.052 296.083C152.612 312.527 260.86 304.92 277.218 340.072C293.575 375.224 218.04 453.135 245.884 482.942C273.728 512.749 404.949 494.452 470.56 485.303L536.171 476.154" stroke="white" stroke-width="1.4"/>
<path opacity="0.15" d="M29.0343 200.411L31.466 220.542C33.8977 240.673 38.7612 280.934 94.9352 297.319C151.109 313.704 258.594 306.213 274.86 341.169C291.125 376.124 216.172 453.527 243.84 483.176C271.509 512.826 401.798 494.723 466.943 485.672L532.087 476.621" stroke="white" stroke-width="1.4"/>
<path opacity="0.16" d="M28.3185 202.178L30.7466 222.191C33.1746 242.204 38.0308 282.229 93.8191 298.555C149.607 314.881 256.328 307.507 272.502 342.266C288.677 377.025 214.305 453.918 241.798 483.41C269.29 512.903 398.647 494.995 463.326 486.041L528.005 477.087" stroke="white" stroke-width="1.4"/>
<path opacity="0.17" d="M27.602 203.945L30.0264 223.84C32.4508 243.735 37.2997 283.525 92.7023 299.792C148.105 316.058 254.061 308.8 270.144 343.363C286.227 377.926 212.437 454.309 239.754 483.644C267.071 512.98 395.496 495.267 459.709 486.41L523.921 477.554" stroke="white" stroke-width="1.4"/>
<path opacity="0.18" d="M26.8862 205.711L29.3069 225.488C31.7277 245.266 36.5693 284.821 91.5862 301.028C146.603 317.234 251.796 310.093 267.787 344.46C283.779 378.826 210.57 454.7 237.711 483.878C264.853 513.056 392.346 495.538 456.092 486.779L519.838 478.02" stroke="white" stroke-width="1.4"/>
<path opacity="0.19" d="M26.1696 207.478L28.5867 227.138C31.0039 246.797 35.8381 286.117 90.4694 302.264C145.101 318.412 249.529 311.387 265.429 345.557C281.329 379.727 208.702 455.092 235.668 484.113C262.634 513.133 389.194 495.81 452.475 487.149L515.755 478.487" stroke="white" stroke-width="1.4"/>
<path opacity="0.2" d="M25.4538 209.244L27.8673 228.786C30.2808 248.328 35.1077 287.412 89.3533 303.5C143.599 319.588 247.263 312.68 263.072 346.654C278.881 380.628 206.834 455.483 233.625 484.346C260.416 513.21 386.044 496.082 448.858 487.518L511.672 478.953" stroke="white" stroke-width="1.4"/>
<path opacity="0.21" d="M24.7372 211.011L27.1471 230.435C29.5569 249.859 34.3766 288.708 88.2365 304.736C142.096 320.765 244.996 313.974 260.714 347.751C276.431 381.529 204.966 455.874 231.582 484.581C258.197 513.287 382.893 496.354 445.241 487.887L507.589 479.42" stroke="white" stroke-width="1.4"/>
<path opacity="0.22" d="M24.0215 212.778L26.4277 232.084C28.8339 251.39 33.6462 290.003 87.1204 305.972C140.595 321.942 242.731 315.267 258.357 348.848C273.983 382.429 203.099 456.265 229.539 484.814C255.979 513.363 379.742 496.625 441.624 488.256L503.506 479.887" stroke="white" stroke-width="1.4"/>
<path opacity="0.23" d="M23.3049 214.544L25.7075 233.733C28.11 252.922 32.9151 291.299 86.0036 307.209C139.092 323.119 240.464 316.561 255.999 349.945C271.534 383.33 201.231 456.657 227.495 485.049C253.76 513.44 376.591 496.897 438.007 488.625L499.422 480.353" stroke="white" stroke-width="1.4"/>
<path opacity="0.24" d="M22.5891 216.311L24.988 235.382C27.3869 254.453 32.1847 292.595 84.8875 308.445C137.59 324.295 238.198 317.854 253.642 351.042C269.085 384.23 199.364 457.048 225.453 485.282C251.542 513.517 373.441 497.168 434.39 488.994L495.34 480.82" stroke="white" stroke-width="1.4"/>
<path opacity="0.25" d="M21.8726 218.078L24.2678 237.031C26.6631 255.984 31.4536 293.89 83.7707 309.681C136.088 325.472 235.932 319.148 251.284 352.139C266.636 385.131 197.496 457.439 223.409 485.517C249.323 513.594 370.289 497.44 430.773 489.363L491.256 481.287" stroke="white" stroke-width="1.4"/>
<path opacity="0.26" d="M21.1568 219.844L23.5484 238.68C25.94 257.515 30.7232 295.186 82.6546 310.917C134.586 326.649 233.666 320.441 248.926 353.236C264.187 386.032 195.628 457.83 221.366 485.75C247.104 513.67 367.139 497.712 427.156 489.732L487.173 481.753" stroke="white" stroke-width="1.4"/>
<path opacity="0.27" d="M20.4402 221.611L22.8282 240.329C25.2162 259.046 29.9921 296.482 81.5378 312.154C133.084 327.826 231.399 321.735 246.568 354.334C261.738 386.933 193.76 458.222 219.323 485.985C244.885 513.747 363.988 497.984 423.539 490.102L483.09 482.22" stroke="white" stroke-width="1.4"/>
<path opacity="0.28" d="M19.7244 223.377L22.1087 241.977C24.493 260.577 29.2617 297.777 80.4217 313.39C131.582 329.002 229.133 323.028 244.211 355.43C259.289 387.833 191.893 458.613 217.28 486.218C242.667 513.824 360.837 498.255 419.922 490.47L479.007 482.686" stroke="white" stroke-width="1.4"/>
<path opacity="0.29" d="M19.0079 225.144L21.3886 243.627C23.7692 262.109 28.5306 299.073 79.3049 314.626C130.079 330.179 226.867 324.321 241.853 356.528C256.84 388.734 190.025 459.004 215.237 486.453C240.448 513.901 357.686 498.527 416.305 490.84L474.924 483.153" stroke="white" stroke-width="1.4"/>
<path opacity="0.3" d="M18.2921 226.911L20.6691 245.275C23.0461 263.64 27.8001 300.368 78.1888 315.862C128.578 331.356 224.601 325.615 239.496 357.624C254.391 389.634 188.158 459.395 213.194 486.686C238.23 513.977 354.535 498.798 412.688 491.209L470.841 483.619" stroke="white" stroke-width="1.4"/>
<path opacity="0.31" d="M17.5756 228.678L19.949 246.924C22.3223 265.171 27.0691 301.664 77.0721 317.099C127.075 332.533 222.334 326.908 237.138 358.722C251.942 390.535 186.29 459.787 211.15 486.921C236.011 514.054 351.384 499.07 409.071 491.578L466.757 484.086" stroke="white" stroke-width="1.4"/>
<path opacity="0.32" d="M16.8597 230.444L19.2294 248.573C21.5992 266.702 26.3386 302.96 75.9559 318.335C125.573 333.709 220.068 328.201 234.781 359.819C249.493 391.436 184.422 460.178 209.108 487.154C233.793 514.131 348.234 499.342 405.454 491.947L462.674 484.552" stroke="white" stroke-width="1.4"/>
<path opacity="0.33" d="M16.1432 232.211L18.5093 250.222C20.8754 268.233 25.6076 304.256 74.8392 319.571C124.071 334.886 217.802 329.495 232.423 360.916C247.044 392.337 182.555 460.569 207.064 487.389C231.574 514.208 345.082 499.614 401.837 492.316L458.591 485.019" stroke="white" stroke-width="1.4"/>
<path opacity="0.34" d="M15.4274 233.977L17.7898 251.871C20.1522 269.764 24.8771 305.551 73.723 320.807C122.569 336.063 215.536 330.788 230.065 362.013C244.595 393.237 180.687 460.96 205.021 487.622C229.356 514.284 341.932 499.885 398.22 492.685L454.508 485.485" stroke="white" stroke-width="1.4"/>
<path opacity="0.35" d="M14.7109 235.744L17.0697 253.52C19.4285 271.296 24.1461 306.847 72.6063 322.044C121.067 337.24 213.269 332.082 227.708 363.11C242.146 394.138 178.819 461.352 202.978 487.857C227.137 514.362 338.781 500.157 394.603 493.055L450.425 485.952" stroke="white" stroke-width="1.4"/>
<path opacity="0.36" d="M13.995 237.511L16.3501 255.169C18.7053 272.827 23.4156 308.142 71.4901 323.279C119.565 338.417 211.003 333.375 225.35 364.207C239.697 395.038 176.952 461.743 200.935 488.09C224.918 514.438 335.63 500.428 390.986 493.423L446.342 486.419" stroke="white" stroke-width="1.4"/>
<path opacity="0.37" d="M13.2784 239.278L15.6299 256.818C17.9814 274.358 22.6844 309.438 70.3732 324.516C118.062 339.593 208.737 334.669 222.992 365.304C237.248 395.939 175.084 462.134 198.892 488.325C222.699 514.515 332.479 500.7 387.369 493.793L442.258 486.885" stroke="white" stroke-width="1.4"/>
<path opacity="0.38" d="M12.5626 241.044L14.9105 258.466C17.2583 275.889 21.954 310.734 69.2572 325.752C116.56 340.77 206.471 335.962 220.635 366.401C234.799 396.84 173.216 462.525 196.849 488.558C220.481 514.591 329.328 500.972 383.752 494.162L438.176 487.352" stroke="white" stroke-width="1.4"/>
<path opacity="0.39" d="M11.8461 242.811L14.1903 260.115C16.5345 277.42 21.2229 312.029 68.1403 326.988C115.058 341.947 204.204 337.256 218.277 367.498C232.35 397.74 171.348 462.917 194.805 488.793C218.262 514.668 326.177 501.243 380.135 494.531L434.092 487.818" stroke="white" stroke-width="1.4"/>
<path opacity="0.4" d="M11.1303 244.577L13.4709 261.764C15.8114 278.951 20.4925 313.325 67.0243 328.224C113.556 343.124 201.939 338.549 215.92 368.595C229.901 398.641 169.481 463.308 192.763 489.026C216.044 514.745 323.027 501.515 376.518 494.9L430.01 488.285" stroke="white" stroke-width="1.4"/>
<path opacity="0.41" d="M10.4137 246.344L12.7506 263.413C15.0875 280.482 19.7613 314.621 65.9074 329.461C112.054 344.301 199.672 339.842 213.562 369.692C227.452 399.542 167.613 463.699 190.719 489.261C213.825 514.822 319.875 501.787 372.901 495.269L425.926 488.752" stroke="white" stroke-width="1.4"/>
<path opacity="0.42" d="M9.69798 248.111L12.0312 265.062C14.3645 282.013 19.031 315.916 64.7914 330.697C110.552 345.477 197.406 341.136 211.205 370.789C225.003 400.442 165.746 464.091 188.676 489.495C211.607 514.898 316.725 502.058 369.284 495.638L421.843 489.218" stroke="white" stroke-width="1.4"/>
<path opacity="0.43" d="M8.98134 249.878L11.311 266.711C13.6406 283.545 18.2998 317.212 63.6745 331.933C109.049 346.654 195.139 342.429 208.847 371.886C222.554 401.343 163.878 464.482 186.633 489.729C209.388 514.975 313.574 502.33 365.667 496.007L417.76 489.685" stroke="white" stroke-width="1.4"/>
<path opacity="0.44" d="M8.26559 251.644L10.5916 268.36C12.9175 285.076 17.5695 318.507 62.5585 333.169C107.548 347.831 192.874 343.723 206.489 372.983C220.105 402.244 162.011 464.873 184.59 489.963C207.17 515.052 310.423 502.602 362.05 496.376L413.677 490.151" stroke="white" stroke-width="1.4"/>
<path opacity="0.45" d="M7.549 253.411L9.87132 270.009C12.1936 286.607 16.8383 319.803 61.4416 334.405C106.045 349.008 190.607 345.016 204.131 374.08C217.656 403.145 160.142 465.265 182.546 490.197C204.951 515.129 307.272 502.873 358.433 496.746L409.593 490.618" stroke="white" stroke-width="1.4"/>
<path opacity="0.46" d="M6.83328 255.177L9.15196 271.658C11.4706 288.138 16.108 321.099 60.3257 335.642C104.543 350.184 188.341 346.31 201.774 375.177C215.207 404.045 158.275 465.656 180.504 490.431C202.732 515.206 304.122 503.145 354.816 497.115L405.511 491.084" stroke="white" stroke-width="1.4"/>
<path opacity="0.47" d="M6.11664 256.944L8.43167 273.307C10.7467 289.669 15.3768 322.394 59.2087 336.878C103.041 351.361 186.075 347.603 199.416 376.274C212.758 404.946 156.407 466.047 178.46 490.665C200.513 515.282 300.97 503.417 351.199 497.484L401.427 491.551" stroke="white" stroke-width="1.4"/>
<path opacity="0.48" d="M5.40093 258.711L7.71231 274.956C10.0237 291.2 14.6465 323.69 58.0927 338.114C101.539 352.538 183.809 348.896 197.059 377.371C210.309 405.846 154.54 466.438 176.418 490.899C198.295 515.359 297.82 503.688 347.582 497.853L397.345 492.018" stroke="white" stroke-width="1.4"/>
<path opacity="0.49" d="M4.68428 260.477L6.99202 276.605C9.29976 292.732 13.9152 324.986 56.9758 339.35C100.036 353.715 181.542 350.19 194.701 378.469C207.86 406.747 152.672 466.83 174.374 491.133C196.076 515.436 294.669 503.96 343.965 498.222L393.261 492.484" stroke="white" stroke-width="1.4"/>
<path opacity="0.5" d="M3.96857 262.244L6.27266 278.253C8.57676 294.263 13.1849 326.281 55.8598 340.586C98.5347 354.892 179.276 351.483 192.344 379.565C205.411 407.648 150.805 467.221 172.331 491.367C193.858 515.513 291.518 504.232 340.348 498.591L389.178 492.951" stroke="white" stroke-width="1.4"/>
<path opacity="0.51" d="M3.25194 264.011L5.55239 279.902C7.85283 295.794 12.4537 327.577 54.7429 341.823C97.0321 356.068 177.01 352.777 189.986 380.663C202.962 408.549 148.936 467.612 170.288 491.601C191.639 515.589 288.367 504.503 336.731 498.96L385.095 493.417" stroke="white" stroke-width="1.4"/>
<path opacity="0.52" d="M2.53621 265.777L4.83301 281.551C7.12982 297.325 11.7234 328.873 53.6269 343.059C95.5305 357.245 174.744 354.07 187.629 381.76C200.513 409.449 147.069 468.003 168.245 491.835C189.421 515.666 285.216 504.775 333.114 499.329L381.012 493.884" stroke="white" stroke-width="1.4"/>
<path opacity="0.53" d="M1.8196 267.544L4.11275 283.2C6.40591 298.856 10.9922 330.168 52.51 344.295C94.0279 358.422 172.477 355.364 185.271 382.857C198.064 410.35 145.201 468.395 166.201 492.069C187.202 515.743 282.065 505.047 329.497 499.699L376.928 494.35" stroke="white" stroke-width="1.4"/>
<path opacity="0.54" d="M1.1039 269.311L3.39341 284.849C5.68292 300.387 10.2619 331.464 51.3941 345.531C92.5262 359.599 170.211 356.657 182.913 383.954C195.615 411.25 143.334 468.786 164.159 492.303C184.984 515.82 278.915 505.318 325.88 500.068L372.846 494.817" stroke="white" stroke-width="1.4"/>
<path opacity="0.55" d="M0.387243 271.077L2.67311 286.498C4.95897 301.918 9.53069 332.76 50.2771 346.768C91.0236 360.776 167.945 357.95 180.555 385.051C193.166 412.151 141.466 469.177 162.115 492.537C182.765 515.897 275.763 505.59 322.263 500.437L368.762 495.284" stroke="white" stroke-width="1.4"/>
<path opacity="0.56" d="M-0.328454 272.844L1.95376 288.147C4.23598 303.449 8.80041 334.055 49.1612 348.004C89.5219 361.952 165.679 359.244 178.198 386.148C190.717 413.052 139.599 469.568 160.073 492.771C180.546 515.973 272.613 505.862 318.646 500.806L364.68 495.75" stroke="white" stroke-width="1.4"/>
<path opacity="0.57" d="M-1.0451 274.611L1.23347 289.796C3.51204 304.981 8.06918 335.351 48.0443 349.24C88.0193 363.129 163.412 360.537 175.84 387.245C188.268 413.953 137.73 469.96 158.029 493.005C178.327 516.05 269.462 506.133 315.029 501.175L360.596 496.217" stroke="white" stroke-width="1.4"/>
<path opacity="0.58" d="M-1.76083 276.377L0.514095 291.444C2.78902 306.512 7.33887 336.646 46.9282 350.476C86.5176 364.306 161.147 361.831 173.483 388.342C185.819 414.853 135.863 470.351 155.986 493.239C176.109 516.127 266.311 506.405 311.412 501.544L356.513 496.683" stroke="white" stroke-width="1.4"/>
<path opacity="0.59" d="M-2.47747 278.144L-0.206194 293.093C2.06508 308.043 6.60764 337.942 45.8113 351.712C85.015 365.483 158.88 363.124 171.125 389.439C183.37 415.754 133.995 470.742 153.943 493.473C173.89 516.204 263.16 506.677 307.795 501.913L352.43 497.15" stroke="white" stroke-width="1.4"/>
<path opacity="0.6" d="M-3.19317 279.91L-0.925537 294.742C1.34209 309.574 5.87736 339.238 44.6954 352.948C83.5134 366.659 156.614 364.417 168.768 390.536C180.921 416.654 132.128 471.133 151.9 493.707C171.672 516.28 260.01 506.948 304.178 502.282L348.347 497.616" stroke="white" stroke-width="1.4"/>
<path opacity="0.61" d="M-3.90983 281.677L-1.64584 296.391C0.618141 311.105 5.14611 340.533 43.5784 354.185C82.0107 367.836 154.347 365.711 166.41 391.633C178.472 417.555 130.26 471.525 149.856 493.941C169.453 516.357 256.858 507.22 300.561 502.652L344.263 498.083" stroke="white" stroke-width="1.4"/>
<path opacity="0.62" d="M-4.62552 283.444L-2.36519 298.04C-0.104849 312.636 4.41583 341.829 42.4624 355.421C80.5091 369.013 152.082 367.004 164.053 392.73C176.023 418.456 128.393 471.916 147.814 494.175C167.235 516.434 253.708 507.492 296.944 503.021L340.181 498.55" stroke="white" stroke-width="1.4"/>
<path opacity="0.63" d="M-5.34214 285.211L-3.08544 299.689C-0.828753 314.168 3.68463 343.125 41.3456 356.657C79.0065 370.19 149.815 368.298 161.694 393.827C173.574 419.357 126.525 472.307 145.77 494.409C165.016 516.511 250.556 507.763 293.327 503.39L336.097 499.016" stroke="white" stroke-width="1.4"/>
<path opacity="0.64" d="M-6.05788 286.977L-3.80484 301.338C-1.55179 315.699 2.9543 344.42 40.2295 357.893C77.5048 371.366 147.549 369.591 159.337 394.924C171.125 420.257 124.657 472.698 143.727 494.643C162.798 516.587 247.406 508.035 289.71 503.759L332.015 499.483" stroke="white" stroke-width="1.4"/>
<path opacity="0.65" d="M-6.77449 288.744L-4.52509 302.987C-2.2757 317.23 2.2231 345.716 39.1127 359.13C76.0022 372.543 145.283 370.885 156.979 396.021C168.676 421.158 122.789 473.09 141.684 494.877C160.579 516.664 244.255 508.307 286.093 504.128L327.931 499.949" stroke="white" stroke-width="1.4"/>
<path opacity="0.66" d="M-7.49019 290.511L-5.24444 304.636C-2.99869 318.761 1.49282 347.011 37.9967 360.366C74.5005 373.72 143.017 372.178 154.622 397.118C166.227 422.058 120.922 473.481 139.641 495.111C158.36 516.741 241.104 508.578 282.476 504.497L323.848 500.416" stroke="white" stroke-width="1.4"/>
<path opacity="0.67" d="M-8.20685 292.277L-5.96474 306.285C-3.72264 320.292 0.761576 348.307 36.8798 361.602C72.9979 374.897 140.75 373.472 152.264 398.215C163.778 422.959 119.054 473.872 137.598 495.345C156.141 516.818 237.953 508.85 278.859 504.866L319.765 500.882" stroke="white" stroke-width="1.4"/>
<path opacity="0.68" d="M-8.92258 294.044L-6.68412 307.934C-4.44566 321.823 0.031261 349.603 35.7637 362.838C71.4962 376.074 138.484 374.765 149.907 399.312C161.329 423.86 117.187 474.263 135.555 495.579C153.923 516.894 234.803 509.122 275.242 505.235L315.682 501.349" stroke="white" stroke-width="1.4"/>
<path opacity="0.69" d="M-9.63921 295.811L-7.40439 309.583C-5.16958 323.355 -0.699953 350.899 34.6468 364.074C69.9936 377.25 136.218 376.058 147.549 400.41C158.88 424.761 115.319 474.655 133.511 495.813C151.704 516.971 231.651 509.393 271.625 505.604L311.598 501.816" stroke="white" stroke-width="1.4"/>
<path opacity="0.7" d="M-10.3549 297.577L-8.12374 311.231C-5.89257 324.886 -1.43023 352.194 33.5309 365.311C68.492 378.427 133.952 377.352 145.192 401.506C156.432 425.661 113.451 475.046 131.469 496.047C149.486 517.048 228.501 509.665 268.008 505.973L307.516 502.282" stroke="white" stroke-width="1.4"/>
<path opacity="0.71" d="M-11.0715 299.344L-8.84403 312.88C-6.61651 326.417 -2.16146 353.49 32.414 366.547C66.9894 379.604 131.685 378.645 142.834 402.604C153.982 426.562 111.583 475.437 129.425 496.281C147.267 517.125 225.35 509.937 264.391 506.343L303.432 502.749" stroke="white" stroke-width="1.4"/>
<path opacity="0.72" d="M-11.7873 301.11L-9.56339 314.529C-7.33951 327.948 -2.89176 354.785 31.298 367.783C65.4877 380.781 129.419 379.939 140.476 403.701C151.534 427.462 109.716 475.828 127.382 496.515C145.049 517.201 222.199 510.208 260.774 506.712L299.35 503.215" stroke="white" stroke-width="1.4"/>
<path opacity="0.73" d="M-12.5039 302.877L-10.2836 316.178C-8.06342 329.479 -3.62296 356.081 30.1811 369.019C63.9851 381.958 127.153 381.232 138.118 404.798C149.084 428.363 107.848 476.22 125.339 496.749C142.83 517.278 219.048 510.48 257.157 507.081L295.266 503.682" stroke="white" stroke-width="1.4"/>
<path opacity="0.74" d="M-13.2196 304.644L-11.003 317.827C-8.78642 331.01 -4.35326 357.377 29.0651 370.255C62.4834 383.134 124.887 382.525 135.761 405.895C146.636 429.264 105.981 476.611 123.296 496.983C140.612 517.355 215.897 510.752 253.54 507.45L291.183 504.148" stroke="white" stroke-width="1.4"/>
<path opacity="0.75" d="M-13.9363 306.41L-11.7233 319.476C-9.51039 332.541 -5.08452 358.672 27.9481 371.492C60.9808 384.311 122.62 383.819 133.403 406.992C144.186 430.165 104.113 477.002 121.253 497.217C138.393 517.432 212.746 511.023 249.923 507.819L287.1 504.615" stroke="white" stroke-width="1.4"/>
<path opacity="0.76" d="M-14.652 308.177L-12.4427 321.125C-10.2334 334.072 -5.81482 359.968 26.8322 372.728C59.4791 385.488 120.354 385.112 131.046 408.089C141.738 431.065 102.245 477.393 119.21 497.451C136.174 517.508 209.596 511.295 246.306 508.188L283.017 505.081" stroke="white" stroke-width="1.4"/>
<path opacity="0.77" d="M-15.3683 309.945L-13.1627 322.775C-10.957 335.605 -6.54574 361.265 25.7155 373.965C57.9768 386.666 118.088 386.407 128.688 409.187C139.288 431.967 100.378 477.786 117.167 497.686C133.956 517.586 206.445 511.568 242.689 508.558L278.934 505.549" stroke="white" stroke-width="1.4"/>
<path opacity="0.78" d="M-16.084 311.711L-13.882 324.423C-11.68 337.136 -7.27604 362.56 24.5996 375.201C56.4751 387.842 115.822 387.7 126.331 410.284C136.84 432.867 98.5103 478.177 115.124 497.92C131.738 517.663 203.294 511.839 239.073 508.927L274.851 506.016" stroke="white" stroke-width="1.4"/>
<path opacity="0.79" d="M-16.8007 313.478L-14.6023 326.073C-12.404 338.667 -8.00727 363.856 23.4826 376.438C54.9725 389.019 113.556 388.994 123.973 411.381C134.39 433.768 96.6422 478.568 113.08 498.154C129.518 517.74 200.143 512.111 235.455 509.297L270.767 506.482" stroke="white" stroke-width="1.4"/>
<path opacity="0.8" d="M-17.5164 315.245L-15.3217 327.721C-13.127 340.198 -8.73755 365.151 22.3667 377.674C53.4709 390.196 111.29 390.287 121.616 412.478C131.942 434.669 94.775 478.959 111.038 498.388C127.3 517.816 196.993 512.382 231.839 509.666L266.685 506.949" stroke="white" stroke-width="1.4"/>
<path opacity="0.81" d="M-18.233 317.011L-16.042 329.37C-13.8509 341.729 -9.4688 366.447 21.2497 378.91C51.9683 391.373 109.023 391.581 119.258 413.575C129.492 435.57 92.9069 479.351 108.994 498.622C125.081 517.893 193.841 512.654 228.221 510.035L262.601 507.415" stroke="white" stroke-width="1.4"/>
<path opacity="0.82" d="M-18.9487 318.778L-16.7613 331.019C-14.5739 343.26 -10.1991 367.743 20.1338 380.146C50.4666 392.549 106.757 392.874 116.901 414.672C127.044 436.47 91.0397 479.742 106.951 498.856C122.863 517.97 190.691 512.926 224.605 510.404L258.519 507.882" stroke="white" stroke-width="1.4"/>
<path opacity="0.83" d="M-19.6654 320.545L-17.4816 332.668C-15.2978 344.792 -10.9303 369.038 19.0168 381.382C48.964 393.726 104.491 394.167 114.543 415.769C124.595 437.371 89.1715 480.133 104.908 499.09C120.644 518.047 187.54 513.198 220.987 510.773L254.435 508.349" stroke="white" stroke-width="1.4"/>
<path opacity="0.84" d="M-20.3811 322.311L-18.201 334.317C-16.0208 346.323 -11.6606 370.334 17.9009 382.618C47.4623 394.903 102.225 395.461 112.185 416.866C122.146 438.271 87.3043 480.524 102.865 499.324C118.426 518.123 184.389 513.469 217.371 511.142L250.352 508.815" stroke="white" stroke-width="1.4"/>
<path opacity="0.85" d="M-21.0977 324.078L-18.9212 335.966C-16.7447 347.854 -12.3918 371.63 16.784 383.855C45.9597 396.08 99.9583 396.754 109.827 417.963C119.697 439.172 85.4362 480.916 100.822 499.558C116.207 518.2 181.238 513.741 213.753 511.511L246.269 509.282" stroke="white" stroke-width="1.4"/>
<path opacity="0.86" d="M-21.8134 325.845L-19.6406 337.615C-17.4677 349.385 -13.1221 372.925 15.668 385.091C44.4581 397.257 97.6926 398.048 107.47 419.06C117.248 440.073 83.569 481.307 98.7789 499.792C113.989 518.277 178.087 514.013 210.137 511.88L242.186 509.748" stroke="white" stroke-width="1.4"/>
<path opacity="0.87" d="M-22.5301 327.611L-20.3609 339.264C-18.1917 350.916 -13.8534 374.221 14.551 386.327C42.9554 398.434 95.4258 399.341 105.112 420.157C114.799 440.974 81.7009 481.698 96.7353 500.026C111.77 518.354 174.936 514.284 206.519 512.25L238.102 510.215" stroke="white" stroke-width="1.4"/>
<path opacity="0.88" d="M-23.2458 329.378L-21.0802 340.913C-18.9147 352.447 -14.5836 375.517 13.4351 387.563C41.4538 399.61 93.1601 400.634 102.755 421.254C112.35 441.874 79.8337 482.09 94.6926 500.26C109.552 518.43 171.786 514.556 202.903 512.619L234.02 510.681" stroke="white" stroke-width="1.4"/>
<path opacity="0.89" d="M-23.9624 331.145L-21.8005 342.562C-19.6386 353.979 -15.3149 376.812 12.3181 388.8C39.9512 400.787 90.8934 401.928 100.397 422.352C109.901 442.775 77.9656 482.481 92.649 500.494C107.332 518.507 168.634 514.828 199.285 512.988L229.936 511.148" stroke="white" stroke-width="1.4"/>
<path opacity="0.9" d="M-24.6781 332.911L-22.5199 344.21C-20.3616 355.51 -16.0451 378.108 11.2022 390.036C38.4495 401.964 88.6277 403.221 98.0399 423.448C107.452 443.676 76.0984 482.872 90.6063 500.728C105.114 518.584 165.484 515.099 195.669 513.357L225.854 511.614" stroke="white" stroke-width="1.4"/>
<path opacity="0.91" d="M-25.3947 334.678L-23.2401 345.859C-21.0855 357.041 -16.7764 379.404 10.0853 391.272C36.9469 403.141 86.361 404.515 95.6818 424.546C105.003 444.576 74.2303 483.264 88.5628 500.962C102.895 518.661 162.333 515.371 192.051 513.726L221.77 512.081" stroke="white" stroke-width="1.4"/>
<path opacity="0.92" d="M-26.1104 336.445L-23.9595 347.508C-21.8085 358.572 -17.5066 380.699 8.9693 392.508C35.4452 404.317 84.0952 405.808 93.3247 425.643C102.554 445.477 72.3631 483.655 86.5201 501.196C100.677 518.737 159.182 515.643 188.435 514.095L217.687 512.548" stroke="white" stroke-width="1.4"/>
<path opacity="0.93" d="M-26.8271 338.211L-24.6798 349.157C-22.5325 360.103 -18.2379 381.995 7.85234 393.745C33.9426 405.494 81.8285 407.102 90.9666 426.74C100.105 446.378 70.4949 484.046 84.4765 501.43C98.458 518.814 156.031 515.914 184.817 514.464L213.604 513.014" stroke="white" stroke-width="1.4"/>
<path opacity="0.94" d="M-27.5428 339.978L-25.3992 350.806C-23.2555 361.634 -18.9682 383.29 6.73637 394.981C32.4409 406.671 79.5627 408.395 88.6094 427.837C97.6561 447.278 68.6277 484.437 82.4338 501.664C96.2399 518.891 152.881 516.186 181.201 514.833L209.521 513.481" stroke="white" stroke-width="1.4"/>
<path opacity="0.95" d="M-28.2594 341.745L-26.1194 352.455C-23.9794 363.165 -19.6994 384.586 5.61947 396.217C30.9383 407.848 77.2961 409.689 86.2514 428.934C95.2067 448.179 66.7596 484.829 80.3902 501.898C94.0209 518.968 149.729 516.458 177.583 515.202L205.438 513.947" stroke="white" stroke-width="1.4"/>
<path opacity="0.96" d="M-28.9751 343.511L-26.8388 354.104C-24.7024 364.696 -20.4297 385.882 4.50349 397.453C29.4367 409.024 75.0303 410.982 83.8943 430.031C92.7582 449.08 64.8924 485.22 78.3476 502.132C91.8027 519.044 146.579 516.729 173.967 515.571L201.355 514.414" stroke="white" stroke-width="1.4"/>
<path opacity="0.97" d="M-29.6918 345.278L-27.5591 355.753C-25.4264 366.228 -21.1609 387.177 3.38655 398.689C27.934 410.201 72.7636 412.275 81.5362 431.128C90.3087 449.98 63.0243 485.611 76.304 502.366C89.5836 519.121 143.427 517.001 170.349 515.941L197.271 514.881" stroke="white" stroke-width="1.4"/>
<path opacity="0.98" d="M-30.4075 347.044L-28.2785 357.402C-26.1494 367.759 -21.8912 388.473 2.27056 399.925C26.4324 411.378 70.4978 413.569 79.179 432.225C87.8602 450.881 61.1571 486.002 74.2613 502.6C87.3655 519.198 140.277 517.272 166.733 516.31L193.189 515.347" stroke="white" stroke-width="1.4"/>
<path opacity="0.99" d="M-31.1241 348.811L-28.9987 359.051C-26.8733 369.29 -22.6224 389.769 1.15367 401.162C24.9298 412.555 68.2312 414.862 76.821 433.322C85.4108 451.782 59.289 486.394 72.2177 502.834C85.1465 519.275 137.126 517.544 163.115 516.679L189.105 515.814" stroke="white" stroke-width="1.4"/>
<path d="M-31.8398 350.578L-29.7181 360.699C-27.5963 370.821 -23.3527 391.064 0.0376893 402.398C23.4281 413.731 65.9654 416.156 74.4638 434.419C82.9622 452.682 57.4218 486.785 70.1751 503.068C82.9283 519.352 133.975 517.816 159.499 517.048L185.022 516.28" stroke="white" stroke-width="1.4"/>
</g>
</g>
<defs>
<filter id="filter0_d_57_4853" x="-20.5411" y="-17.3191" width="401.082" height="1033.08" filterUnits="userSpaceOnUse" color-interpolation-filters="sRGB">
<feFlood flood-opacity="0" result="BackgroundImageFix"/>
<feColorMatrix in="SourceAlpha" type="matrix" values="0 0 0 0 0 0 0 0 0 0 0 0 0 0 0 0 0 0 127 0" result="hardAlpha"/>
<feOffset dy="3.22197"/>
<feGaussianBlur stdDeviation="10.2706"/>
<feComposite in2="hardAlpha" operator="out"/>
<feColorMatrix type="matrix" values="0 0 0 0 0.36875 0 0 0 0 0.373773 0 0 0 0 0.375 0 0 0 0.14 0"/>
<feBlend mode="normal" in2="BackgroundImageFix" result="effect1_dropShadow_57_4853"/>
<feBlend mode="normal" in="SourceGraphic" in2="effect1_dropShadow_57_4853" result="shape"/>
</filter>
<linearGradient id="paint0_linear_57_4853" x1="16.6936" y1="-393.158" x2="628.368" y2="-322.583" gradientUnits="userSpaceOnUse">
<stop stop-color="#19C5EF"/>
<stop offset="0.489583" stop-color="#7FBBED"/>
<stop offset="0.963542" stop-color="#E3AAEB"/>
</linearGradient>
<linearGradient id="paint1_linear_57_4853" x1="16.6936" y1="-393.158" x2="628.368" y2="-322.583" gradientUnits="userSpaceOnUse">
<stop stop-color="#19C5EF"/>
<stop offset="0.489583" stop-color="#7FBBED"/>
<stop offset="0.963542" stop-color="#E3AAEB"/>
</linearGradient>
</defs>
</svg>
